<svg xmlns="http://www.w3.org/2000/svg" xmlns:xlink="http://www.w3.org/1999/xlink" version="1.1" x="0px" y="0px" viewBox="0 0 100 100" enable-background="new 0 0 100 100" xml:space="preserve" class="add-event-svg"><path d="M61,21H42.4H41h-2h-2h-2h-1.4H33c0,0.7,0.1,1.4,0.2,2h27.9C61,22.4,61,21.7,61,21z"/><path d="M34,14c1.2,0,2.4,2,2.9,5h2c-0.5-4.1-2.4-7-4.9-7c-2.9,0-5,3.9-5,9c0,0.7,0,1.4,0.1,2c0.5,4.1,2.4,7,4.9,7v-2  c-1.2,0-2.4-2-2.9-5c-0.1-0.6-0.1-1.3-0.1-2C31,17,32.6,14,34,14z"/><path d="M68,14c1.2,0,2.4,2,2.9,5h2c-0.5-4.1-2.4-7-4.9-7c-2.9,0-5,3.9-5,9c0,0.7,0,1.4,0.1,2c0.5,4.1,2.4,7,4.9,7v-2  c-1.2,0-2.4-2-2.9-5c-0.1-0.6-0.1-1.3-0.1-2C65,17,66.6,14,68,14z"/><circle cx="39" cy="50" r="3"/><circle cx="61" cy="50" r="3"/><circle cx="72" cy="50" r="3"/><circle cx="50" cy="50" r="3"/><circle cx="28" cy="61" r="3"/><circle cx="39" cy="61" r="3"/><circle cx="50" cy="61" r="3"/><circle cx="28" cy="72" r="3"/><circle cx="39" cy="72" r="3"/><circle cx="50" cy="72" r="3"/><path d="M19,84c-1.1,0-2-0.9-2-2V38h66v20.3c0.7,0.4,1.4,0.8,2,1.3V25c0-2.2-1.8-4-4-4h-4.6H75h-2h-2h-2h-1.4H67  c0,0.7,0.1,1.4,0.2,2H81c1.1,0,2,0.9,2,2v11H17V25c0-1.1,0.9-2,2-2h8.1C27,22.4,27,21.7,27,21h-8c-2.2,0-4,1.8-4,4v57  c0,2.2,1.8,4,4,4h39.5c-0.5-0.6-0.9-1.3-1.3-2H19z"/><path d="M83,63c-2.5-1.9-5.6-3-9-3c-8.3,0-15,6.7-15,15c0,3.4,1.1,6.5,3,9c0.5,0.7,1.1,1.4,1.8,2c2.7,2.5,6.2,4,10.2,4  c8.3,0,15-6.7,15-15c0-3.9-1.5-7.5-4-10.2C84.4,64.2,83.7,63.6,83,63z M85,81.9c-1,1.7-2.4,3.1-4.1,4.1c-2,1.3-4.4,2-6.9,2  s-4.9-0.7-6.9-2c-0.9-0.6-1.7-1.2-2.5-2c-2.2-2.3-3.6-5.5-3.6-9c0-7.2,5.8-13,13-13c3.5,0,6.7,1.4,9,3.6c0.8,0.7,1.4,1.6,2,2.5  c1.3,2,2,4.4,2,6.9S86.3,79.9,85,81.9z"/><polygon points="75,68 73,68 73,74 67,74 67,76 73,76 73,82 75,82 75,76 81,76 81,74 75,74 "/></svg>