<svg xmlns="http://www.w3.org/2000/svg" xmlns:xlink="http://www.w3.org/1999/xlink" version="1.1" x="0px" y="0px" viewBox="0 0 100 100" enable-background="new 0 0 100 100" xml:space="preserve" class="calendar-svg"><symbol viewBox="-27.299 -39.024 54.598 78.047"><path fill="none" d="M11.157,34.02c-1.275-1.85-3.408-3.026-5.733-3.026c-2.13,0-4.118,0.985-5.424,2.607   c-1.306-1.622-3.294-2.607-5.423-2.607c-2.325,0-4.457,1.176-5.734,3.026c-1.275-1.85-3.408-3.026-5.733-3.026   c-1.913,0-3.648,0.776-4.908,2.029v-66.474c1.26,1.253,2.995,2.029,4.908,2.029c2.325,0,4.458-1.176,5.733-3.026   c1.277,1.85,3.409,3.026,5.734,3.026c2.129,0,4.117-0.986,5.423-2.607c1.306,1.622,3.294,2.607,5.424,2.607   c2.325,0,4.458-1.176,5.733-3.026c1.277,1.85,3.409,3.026,5.734,3.026c1.913,0,3.647-0.776,4.907-2.028v66.473   c-1.26-1.253-2.994-2.028-4.907-2.028C14.567,30.995,12.435,32.17,11.157,34.02z"/><path stroke="#000000" stroke-width="3" stroke-miterlimit="10" d="M-20.463-37.524   c0.391,1.615,1.839,2.822,3.573,2.822c1.733,0,3.181-1.207,3.572-2.822h4.323c0.391,1.615,1.839,2.822,3.573,2.822   s3.182-1.207,3.573-2.822h3.701c0.391,1.615,1.839,2.822,3.573,2.822s3.182-1.207,3.573-2.822h4.322   c0.391,1.615,1.839,2.822,3.573,2.822s3.182-1.207,3.573-2.822h5.335v75.047h-5.266c-0.219-1.825-1.759-3.25-3.641-3.25   s-3.423,1.425-3.641,3.25H9.065c-0.219-1.825-1.759-3.25-3.641-3.25s-3.423,1.425-3.641,3.25h-3.564   c-0.219-1.825-1.759-3.25-3.641-3.25s-3.423,1.425-3.641,3.25h-4.186c-0.219-1.825-1.758-3.25-3.641-3.25   c-1.883,0-3.423,1.425-3.641,3.25h-5.267v-75.047H-20.463z"/></symbol><symbol viewBox="-30.282 -48.056 60.563 94.113"><path stroke="#000000" stroke-width="6" stroke-miterlimit="10" d="M16.006,43.056   c-3.233-4.883-8.77-8.108-15.065-8.108s-11.832,3.225-15.065,8.108h-10.584v-88.113h10.584c3.233,4.883,8.77,8.108,15.065,8.108   s11.832-3.224,15.065-8.108H26.59v88.113H16.006z"/><line fill="none" stroke="#000000" stroke-width="5" stroke-linecap="round" stroke-linejoin="round" stroke-miterlimit="10" stroke-dasharray="7,8" x1="27.781" y1="-20.755" x2="-27.782" y2="-20.755"/></symbol><symbol viewBox="-24.712 -42.834 54.356 85.667"><path stroke="#000000" stroke-width="5" stroke-miterlimit="10" d="M17.181,40.333h-4.475   c-0.466-2.355-2.539-4.131-5.031-4.131c-2.491,0-4.565,1.776-5.03,4.131h-4.883c-0.466-2.355-2.539-4.131-5.031-4.131   c-2.491,0-4.565,1.776-5.03,4.131h-4.883c-0.466-2.355-2.539-4.131-5.03-4.131v-72.023c2.622,0,4.76-1.974,5.069-4.512h4.806   c0.309,2.539,2.447,4.512,5.069,4.512c2.622,0,4.76-1.974,5.069-4.512h4.806c0.309,2.539,2.447,4.512,5.069,4.512   c2.622,0,4.76-1.974,5.069-4.512h4.398c0.309,2.539,2.447,4.512,5.069,4.512v72.023C19.72,36.202,17.647,37.978,17.181,40.333z"/><line fill="none" stroke="#000000" stroke-width="4" stroke-linecap="round" stroke-linejoin="round" stroke-miterlimit="10" stroke-dasharray="7,6" x1="-22.644" y1="-17.395" x2="27.644" y2="-17.395"/></symbol><symbol viewBox="-23.971 -42.094 47.944 84.188"><g><path stroke="#000000" stroke-width="3.521" stroke-miterlimit="10" d="M17.182,40.333h-4.475    c-0.466-2.355-2.539-4.131-5.031-4.131c-2.491,0-4.565,1.776-5.03,4.131h-4.883c-0.466-2.355-2.539-4.131-5.031-4.131    c-2.491,0-4.565,1.776-5.03,4.131h-4.883c-0.466-2.355-2.539-4.131-5.03-4.131v-72.023c2.622,0,4.76-1.974,5.069-4.512h4.806    c0.309,2.539,2.447,4.512,5.069,4.512c2.622,0,4.76-1.974,5.069-4.512h4.806c0.309,2.539,2.447,4.512,5.069,4.512    c2.622,0,4.76-1.974,5.069-4.512h4.398c0.309,2.539,2.447,4.512,5.069,4.512v72.023C19.721,36.202,17.648,37.978,17.182,40.333z"/></g><polygon stroke="#000000" stroke-width="3.8113" stroke-miterlimit="10" points="5.14,17.02 11.952,13.853    8.431,7.217 7.524,-0.241 0.124,1.057 -7.248,-0.385 -8.301,7.053 -11.951,13.62 -5.201,16.919 -0.084,22.42  "/></symbol><symbol id="a" viewBox="-21.087 -31.266 42.17 72.87"><path stroke="#000000" stroke-width="5" stroke-miterlimit="10" d="M6.373,39.104h5.21c0-3.87,3.13-7,7-7v-53.87   c-3.87,0-7-3.14-7-7h-5.21"/><path stroke="#000000" stroke-width="5" stroke-miterlimit="10" d="M-6.377-28.766h-5.21c0,3.86-3.13,7-7,7v53.87   c3.87,0,7,3.13,7,7h5.21"/><line fill="none" stroke="#000000" stroke-width="5" stroke-miterlimit="10" x1="2.373" y1="39.104" x2="-2.377" y2="39.104"/><line fill="none" stroke="#000000" stroke-width="5" stroke-miterlimit="10" x1="2.373" y1="-28.766" x2="-2.377" y2="-28.766"/><g><path stroke="#000000" stroke-width="0.9" stroke-miterlimit="10" d="M-9.901-10.118c0-0.994-0.806-1.8-1.8-1.8    s-1.8,0.806-1.8,1.8s0.806,1.8,1.8,1.8S-9.901-9.124-9.901-10.118z"/><path stroke="#000000" stroke-width="0.9" stroke-miterlimit="10" d="M-2.101-10.118c0-0.994-0.806-1.8-1.8-1.8    s-1.8,0.806-1.8,1.8s0.806,1.8,1.8,1.8S-2.101-9.124-2.101-10.118z"/><path stroke="#000000" stroke-width="0.9" stroke-miterlimit="10" d="M5.699-10.118c0-0.994-0.806-1.8-1.8-1.8s-1.8,0.806-1.8,1.8    s0.806,1.8,1.8,1.8S5.699-9.124,5.699-10.118z"/><path stroke="#000000" stroke-width="0.9" stroke-miterlimit="10" d="M13.499-10.118c0-0.994-0.806-1.8-1.8-1.8    s-1.8,0.806-1.8,1.8s0.806,1.8,1.8,1.8S13.499-9.124,13.499-10.118z"/></g></symbol><symbol viewBox="-21.086 -31.266 42.17 72.87"><use xlink:href="#a" width="42.17" height="72.87" x="-21.087" y="-31.266" transform="matrix(1 0 0 1 6.996482e-004 -2.671033e-004)" overflow="visible"/><line fill="none" stroke="#000000" stroke-width="4" stroke-miterlimit="10" x1="9.224" y1="13.75" x2="-9.223" y2="13.75"/></symbol><g display="none"><path display="inline" d="M108.792,834.743h-1237.798c-2.084,0-3.789-1.705-3.789-3.789V-356.211   c0-2.084,1.705-3.789,3.789-3.789H108.792c2.084,0,3.789,1.705,3.789,3.789V830.954   C112.582,833.038,110.877,834.743,108.792,834.743z"/></g><g><g><g><path d="M86.919,13.91h-0.061v-3.54c0-3.684-2.998-6.682-6.682-6.682h-0.46c-3.685,0-6.683,2.998-6.683,6.682v3.54h-6.139v-3.54     c0-3.684-2.998-6.682-6.682-6.682h-0.461c-3.684,0-6.682,2.998-6.682,6.682v3.54h-6.14v-3.54c0-3.684-2.998-6.682-6.682-6.682     h-0.46c-3.684,0-6.682,2.998-6.682,6.682v3.54h-6.14v-3.54c0-3.684-2.998-6.682-6.682-6.682h-0.461     c-3.684,0-6.682,2.998-6.682,6.682v3.54H13.08c-4.456,0-8.08,3.625-8.08,8.08v14.478v51.763c0,4.456,3.624,8.08,8.08,8.08h73.839     c4.456,0,8.081-3.625,8.081-8.08V36.469V21.991C95,17.535,91.375,13.91,86.919,13.91z M77.275,10.37     c0-1.346,1.096-2.441,2.442-2.441h0.46c1.346,0,2.441,1.095,2.441,2.441v10.417c0,1.346-1.094,2.441-2.441,2.441h-0.46     c-1.346,0-2.442-1.095-2.442-2.441V10.37z M57.311,10.37c0-1.346,1.094-2.441,2.441-2.441h0.461c1.346,0,2.441,1.095,2.441,2.441     v10.417c0,1.346-1.094,2.441-2.441,2.441h-0.461c-1.346,0-2.441-1.095-2.441-2.441V10.37z M37.347,10.37     c0-1.346,1.094-2.441,2.441-2.441h0.46c1.346,0,2.441,1.095,2.441,2.441v10.417c0,1.346-1.094,2.441-2.441,2.441h-0.46     c-1.346,0-2.441-1.095-2.441-2.441V10.37z M17.382,10.37c0-1.346,1.094-2.441,2.441-2.441h0.461c1.346,0,2.441,1.095,2.441,2.441     v10.417c0,1.346-1.094,2.441-2.441,2.441h-0.461c-1.346,0-2.441-1.095-2.441-2.441V10.37z M90.759,88.232     c0,2.117-1.722,3.839-3.84,3.839H13.08c-2.117,0-3.838-1.722-3.838-3.839V36.469h81.517V88.232z M90.759,32.228H9.241V21.991     c0-2.117,1.722-3.839,3.838-3.839h0.061v2.636c0,3.684,2.998,6.682,6.682,6.682h0.461c3.684,0,6.682-2.998,6.682-6.682v-2.636     h6.14v2.636c0,3.684,2.998,6.682,6.682,6.682h0.46c3.684,0,6.682-2.998,6.682-6.682v-2.636h6.14v2.636     c0,3.684,2.998,6.682,6.682,6.682h0.461c3.684,0,6.682-2.998,6.682-6.682v-2.636h6.139v2.636c0,3.684,2.998,6.682,6.683,6.682     h0.46c3.684,0,6.682-2.998,6.682-6.682v-2.636h0.061c2.118,0,3.84,1.722,3.84,3.839V32.228z"/><path d="M36.973,41.7h-19.54v12.544h19.54V41.7z M34.852,52.123H19.554V43.82h15.299V52.123z"/><path d="M59.77,41.7H40.23v12.544h19.54V41.7z M57.649,52.123H42.35V43.82h15.299V52.123z"/><path d="M82.566,41.7h-19.54v12.544h19.54V41.7z M80.446,52.123H65.147V43.82h15.299V52.123z"/><path d="M36.973,57.5h-19.54v12.544h19.54V57.5z M34.852,67.924H19.554v-8.303h15.299V67.924z"/><path d="M59.77,57.5H40.23v12.544h19.54V57.5z M57.649,67.924H42.35v-8.303h15.299V67.924z"/><path d="M82.566,57.5h-19.54v12.544h19.54V57.5z M80.446,67.924H65.147v-8.303h15.299V67.924z"/><path d="M36.973,73.301h-19.54v12.544h19.54V73.301z M34.852,83.725H19.554v-8.303h15.299V83.725z"/><path d="M59.77,73.301H40.23v12.544h19.54V73.301z M57.649,83.725H42.35v-8.303h15.299V83.725z"/><path d="M82.566,73.301h-19.54v12.544h19.54V73.301z M80.446,83.725H65.147v-8.303h15.299V83.725z"/></g></g></g></svg>