<!-- Generated by IcoMoon.io -->
<svg version="1.1" xmlns="http://www.w3.org/2000/svg" width="14" height="14" viewBox="0 0 14 14" class="loop-svg">
    <title>loop</title>
    <path d="M8.75 7v1.75h2.073l-2.35 2.35c-1.483 1.486-4.073 1.486-5.557 0l-1.238 1.236c1.072 1.074 2.5 1.665 4.018 1.665s2.943-0.591 4.014-1.665l2.54-2.538v2.452h1.75v-5.25h-5.25zM5.25 5.25h-2.073l2.35-2.35c1.483-1.486 4.073-1.486 5.557 0l1.238-1.236c-1.072-1.073-2.5-1.665-4.018-1.665s-2.943 0.592-4.014 1.665l-2.539 2.538v-2.452h-1.75v5.25h5.25v-1.75z"></path>
</svg>
