<svg xmlns="http://www.w3.org/2000/svg" xmlns:xlink="http://www.w3.org/1999/xlink" version="1.1" x="0px" y="0px" viewBox="0 0 60 75" enable-background="new 0 0 60 60" xml:space="preserve"><rect x="-340.0126648" y="-584.6329346" display="none" fill="#000000" width="832.911377" height="826.0680542"/><g><path d="M34.3725586,38.2685547H30.5v-3.8730469c0-0.2763672-0.2236328-0.5-0.5-0.5s-0.5,0.2236328-0.5,0.5v3.8730469h-3.8725586   c-0.2763672,0-0.5,0.2236328-0.5,0.5s0.2236328,0.5,0.5,0.5H29.5v3.8720703c0,0.2763672,0.2236328,0.5,0.5,0.5   s0.5-0.2236328,0.5-0.5v-3.8720703h3.8725586c0.2763672,0,0.5-0.2236328,0.5-0.5S34.6489258,38.2685547,34.3725586,38.2685547z"/><path d="M57.4521484,6.3496094h-5.5175781V4.5634766c0-0.2763672-0.2236328-0.5-0.5-0.5s-0.5,0.2236328-0.5,0.5v1.7861328   h-6.1445312V4.5634766c0-0.2763672-0.2236328-0.5-0.5-0.5s-0.5,0.2236328-0.5,0.5v1.7861328h-6.1450195V4.5634766   c0-0.2763672-0.2236328-0.5-0.5-0.5s-0.5,0.2236328-0.5,0.5v1.7861328H30.5V4.5634766c0-0.2763672-0.2236328-0.5-0.5-0.5   s-0.5,0.2236328-0.5,0.5v1.7861328h-6.1450195V4.5634766c0-0.2763672-0.2236328-0.5-0.5-0.5s-0.5,0.2236328-0.5,0.5v1.7861328   h-6.1445312V4.5634766c0-0.2763672-0.2236328-0.5-0.5-0.5s-0.5,0.2236328-0.5,0.5v1.7861328H9.0654297V4.5634766   c0-0.2763672-0.2236328-0.5-0.5-0.5s-0.5,0.2236328-0.5,0.5v1.7861328H2.5478516c-0.8271484,0-1.5,0.6728516-1.5,1.5v46.5839844   c0,0.8271484,0.6728516,1.5,1.5,1.5h7.1177979c0.005127,0.0001831,0.0093384,0.0029297,0.0145264,0.0029297   s0.0093994-0.0027466,0.0145264-0.0029297h8.098877c0.005127,0.0001831,0.0093384,0.0029297,0.0145264,0.0029297   s0.0093994-0.0027466,0.0145264-0.0029297h24.3547363c0.005127,0.0001831,0.0093384,0.0029297,0.0145264,0.0029297   s0.0093994-0.0027466,0.0145264-0.0029297h8.098877c0.005127,0.0001831,0.0093384,0.0029297,0.0145264,0.0029297   s0.0093994-0.0027466,0.0145264-0.0029297h7.1177979c0.8271484,0,1.5-0.6728516,1.5-1.5V7.8496094   C58.9521484,7.0224609,58.2792969,6.3496094,57.4521484,6.3496094z M17.3081055,22.6005859v7.5361328h-7.1279297v-7.5361328   H17.3081055z M25.4326172,22.6005859v7.1831055c-0.2116089,0.1075439-0.4142456,0.2306519-0.6179199,0.3530273h-6.5065918   v-7.5361328H25.4326172z M33.5673828,22.6005859v6.7435913c-0.81427-0.3102417-1.663147-0.5261841-2.5375977-0.6117554   c-1.5960693-0.1571045-3.1620483,0.0638428-4.597168,0.6060791v-6.737915H33.5673828z M41.6918945,22.6005859v7.5361328h-6.4935303   c-0.2045898-0.1245728-0.4190063-0.2261353-0.6309814-0.3352051v-7.2009277H41.6918945z M49.8198242,22.6005859v7.5361328   h-7.1279297v-7.5361328H49.8198242z M57.9521484,22.6005859v7.5361328h-7.1323242v-7.5361328H57.9521484z M31.9042969,47.6552734   c-0.9077148,0.1962891-1.8378906,0.2480469-2.840332,0.1523438l-0.1309814-0.0161133   c-0.0214233-0.0029907-0.039978-0.0054932-0.067749-0.0092773c-2.2555542-0.2729492-4.2598267-1.3997192-5.6939697-3.0353394   c-1.213562-1.3842773-2.0203857-3.1314697-2.2113037-5.0466919c-0.2578125-2.6083984,0.5605469-5.1044922,2.3046875-7.0302734   c1.7207031-1.8984375,4.1767578-2.9882812,6.7382812-2.9882812c0.3061523,0,0.6157227,0.015625,0.9287109,0.046875   c1.7226562,0.1679688,3.355957,0.8378906,4.7250977,1.9394531c0.9711914,0.7753906,1.7553711,1.7128906,2.3330078,2.7910156   c0.5766602,1.0498047,0.9301758,2.1884766,1.050293,3.3828125C39.4990234,42.4736328,36.4316406,46.6923828,31.9042969,47.6552734z    M2.0478516,31.1367188h7.1323242v7.1347656H2.0478516V31.1367188z M10.1801758,31.1367188h7.1279297v7.1347656h-7.1279297   V31.1367188z M18.3081055,31.1367188h5.1020508c-0.3105469,0.2683105-0.6078491,0.5545044-0.8867188,0.8623047   c-1.5914917,1.7564697-2.4754639,3.9437256-2.5854492,6.2724609h-1.6298828V31.1367188z M19.9395752,39.2714844   c0.008606,0.1758423,0.0077515,0.3504639,0.0252686,0.5273438c0.0289307,0.2901001,0.0704956,0.5767822,0.1240845,0.8595581   c0.4293823,2.2647705,1.6325684,4.2755127,3.3231812,5.7380981h-5.1040039v-7.125H19.9395752z M40.0621948,39.2714844h1.6296997   v7.125h-5.1002808C38.6325684,44.6276855,39.9205322,42.0728149,40.0621948,39.2714844z M40.0628662,38.2714844   c-0.0083618-0.1760254-0.0101318-0.3510742-0.02771-0.5283203c-0.1337891-1.3300781-0.5273438-2.5966797-1.1660156-3.7607422   c-0.5808716-1.0846558-1.3617554-2.0357666-2.3046265-2.8457031h5.1273804v7.1347656H40.0628662z M42.6918945,31.1367188h7.1279297   v7.1347656h-7.1279297V31.1367188z M50.8198242,31.1367188h7.1323242v7.1347656h-7.1323242V31.1367188z M9.1801758,30.1367188   H2.0478516v-7.5361328h7.1323242V30.1367188z M2.0478516,39.2714844h7.1323242v7.125H2.0478516V39.2714844z M10.1801758,39.2714844   h7.1279297v7.125h-7.1279297V39.2714844z M17.3081055,47.3964844v7.5371094h-7.1279297v-7.5371094H17.3081055z    M18.3081055,47.3964844h6.4780273c0.2103882,0.1278076,0.4265137,0.2469482,0.6464844,0.359375v7.1777344h-7.1245117V47.3964844z    M26.4326172,48.1964111c0.4820557,0.1832886,0.9793701,0.3347168,1.4928589,0.4420776   c0.2843018,0.0600586,0.572998,0.1082764,0.8655396,0.1437378c0.0649414,0.0087891,0.1279297,0.0166016,0.1850586,0.0214844   c0.3491211,0.0341797,0.6948242,0.0507812,1.0366211,0.0507812c0.7128906,0,1.4199219-0.0742188,2.1005859-0.2207031   c0.503418-0.1072388,0.9854736-0.2600098,1.4541016-0.4365234v6.7363281h-7.1347656V48.1964111z M34.5673828,47.760376   c0.2225952-0.112854,0.4380493-0.2356567,0.6499634-0.3638916h6.4745483v7.5371094h-7.1245117V47.760376z M42.6918945,47.3964844   h7.1279297v7.5371094h-7.1279297V47.3964844z M42.6918945,46.3964844v-7.125h7.1279297v7.125H42.6918945z M50.8198242,39.2714844   h7.1323242v7.125h-7.1323242V39.2714844z M2.5478516,7.3496094h5.5175781v1.414978   c-1.0643921,0.2304688-1.8652344,1.1776733-1.8652344,2.3096313c0,1.3037109,1.0610352,2.3652344,2.3652344,2.3652344   s2.3652344-1.0615234,2.3652344-2.3652344c0-1.131958-0.8008423-2.0791626-1.8652344-2.3096313v-1.414978h6.1450195v1.414917   c-1.0648193,0.2304077-1.8657227,1.1776733-1.8657227,2.3096924c0,1.3037109,1.0610352,2.3652344,2.3657227,2.3652344   c1.3041992,0,2.3652344-1.0615234,2.3652344-2.3652344c0-1.131958-0.8008423-2.0791626-1.8652344-2.3096313v-1.414978h6.1445312   v1.414978c-1.0643921,0.2304688-1.8652344,1.1776733-1.8652344,2.3096313c0,1.3037109,1.0610352,2.3652344,2.3652344,2.3652344   s2.3652344-1.0615234,2.3652344-2.3652344c0-1.131958-0.8008423-2.0791626-1.8652344-2.3096313v-1.414978H29.5v1.414978   c-1.0643921,0.2304688-1.8652344,1.1776733-1.8652344,2.3096313c0,1.3037109,1.0610352,2.3652344,2.3652344,2.3652344   s2.3652344-1.0615234,2.3652344-2.3652344c0-1.131958-0.8008423-2.0791626-1.8652344-2.3096313v-1.414978h6.1450195v1.414978   c-1.0643921,0.2304688-1.8652344,1.1776733-1.8652344,2.3096313c0,1.3037109,1.0610352,2.3652344,2.3652344,2.3652344   s2.3652344-1.0615234,2.3652344-2.3652344c0-1.131958-0.8008423-2.0791626-1.8652344-2.3096313v-1.414978h6.1450195v1.414978   c-1.0643921,0.2304688-1.8652344,1.1776733-1.8652344,2.3096313c0,1.3037109,1.0610352,2.3652344,2.3652344,2.3652344   s2.3652344-1.0615234,2.3652344-2.3652344c0-1.131958-0.8008423-2.0791626-1.8652344-2.3096313v-1.414978h6.1445312v1.414978   c-1.0643921,0.2304688-1.8652344,1.1776733-1.8652344,2.3096313c0,1.3037109,1.0610352,2.3652344,2.3652344,2.3652344   s2.3652344-1.0615234,2.3652344-2.3652344c0-1.131958-0.8008423-2.0791626-1.8652344-2.3096313v-1.414978h5.5175781   c0.2758789,0,0.5,0.2246094,0.5,0.5v13.7509766H2.0478516V7.8496094C2.0478516,7.5742188,2.2719727,7.3496094,2.5478516,7.3496094z    M8.5654297,11.5742188c0.2763672,0,0.5-0.2236328,0.5-0.5V9.8067627c0.5056152,0.2001953,0.8652344,0.6914062,0.8652344,1.2674561   c0,0.7529297-0.6123047,1.3652344-1.3652344,1.3652344s-1.3652344-0.6123047-1.3652344-1.3652344   c0-0.5760498,0.3596191-1.0672607,0.8652344-1.2674561v1.2674561C8.0654297,11.3505859,8.2890625,11.5742188,8.5654297,11.5742188z    M15.7104492,11.5742188c0.2763672,0,0.5-0.2236328,0.5-0.5V9.8067627   c0.5056152,0.2001953,0.8652344,0.6914062,0.8652344,1.2674561c0,0.7529297-0.6123047,1.3652344-1.3652344,1.3652344   s-1.3657227-0.6123047-1.3657227-1.3652344c0-0.5761108,0.3599854-1.0673218,0.8657227-1.2674561v1.2674561   C15.2104492,11.3505859,15.434082,11.5742188,15.7104492,11.5742188z M22.8549805,11.5742188c0.2763672,0,0.5-0.2236328,0.5-0.5   V9.8067627c0.5056152,0.2001953,0.8652344,0.6914062,0.8652344,1.2674561c0,0.7529297-0.6123047,1.3652344-1.3652344,1.3652344   s-1.3652344-0.6123047-1.3652344-1.3652344c0-0.5760498,0.3596191-1.0672607,0.8652344-1.2674561v1.2674561   C22.3549805,11.3505859,22.5786133,11.5742188,22.8549805,11.5742188z M30,11.5742188c0.2763672,0,0.5-0.2236328,0.5-0.5V9.8067627   c0.5056152,0.2001953,0.8652344,0.6914062,0.8652344,1.2674561c0,0.7529297-0.6123047,1.3652344-1.3652344,1.3652344   s-1.3652344-0.6123047-1.3652344-1.3652344c0-0.5760498,0.3596191-1.0672607,0.8652344-1.2674561v1.2674561   C29.5,11.3505859,29.7236328,11.5742188,30,11.5742188z M37.1450195,11.5742188c0.2763672,0,0.5-0.2236328,0.5-0.5V9.8067627   c0.5056152,0.2001953,0.8652344,0.6914062,0.8652344,1.2674561c0,0.7529297-0.6123047,1.3652344-1.3652344,1.3652344   s-1.3652344-0.6123047-1.3652344-1.3652344c0-0.5760498,0.3596191-1.0672607,0.8652344-1.2674561v1.2674561   C36.6450195,11.3505859,36.8686523,11.5742188,37.1450195,11.5742188z M44.2900391,11.5742188c0.2763672,0,0.5-0.2236328,0.5-0.5   V9.8067627c0.5056152,0.2001953,0.8652344,0.6914062,0.8652344,1.2674561c0,0.7529297-0.6123047,1.3652344-1.3652344,1.3652344   s-1.3652344-0.6123047-1.3652344-1.3652344c0-0.5760498,0.3596191-1.0672607,0.8652344-1.2674561v1.2674561   C43.7900391,11.3505859,44.0136719,11.5742188,44.2900391,11.5742188z M51.4345703,11.5742188c0.2763672,0,0.5-0.2236328,0.5-0.5   V9.8067627c0.5056152,0.2001953,0.8652344,0.6914062,0.8652344,1.2674561c0,0.7529297-0.6123047,1.3652344-1.3652344,1.3652344   s-1.3652344-0.6123047-1.3652344-1.3652344c0-0.5760498,0.3596191-1.0672607,0.8652344-1.2674561v1.2674561   C50.9345703,11.3505859,51.1582031,11.5742188,51.4345703,11.5742188z M2.0478516,54.4335938v-7.0371094h7.1323242v7.5371094   H2.5478516C2.2719727,54.9335938,2.0478516,54.7089844,2.0478516,54.4335938z M57.4521484,54.9335938h-6.6323242v-7.5371094   h7.1323242v7.0371094C57.9521484,54.7089844,57.7280273,54.9335938,57.4521484,54.9335938z"/></g></svg>