<svg xmlns="http://www.w3.org/2000/svg" xmlns:xlink="http://www.w3.org/1999/xlink" version="1.1" x="0px" y="0px" viewBox="-252 375.9 90 112.5" style="enable-background:new -252 375.9 90 90;" xml:space="preserve"><g><path d="M-164.3,380.1c-0.3-2.3-2.2-4.1-4.5-4.1h-76.6c-2.4,0-4.3,1.9-4.3,4.3v11.9c0,0.4,0.1,0.7,0.4,1l33.9,39.4v31.7   c0,0.5,0.3,1,0.8,1.3c0.2,0.1,0.5,0.2,0.7,0.2c0.3,0,0.6-0.1,0.8-0.2l13.8-8.6c0.4-0.3,0.7-0.8,0.7-1.3v-23.1l33.9-39.4   c0.2-0.3,0.4-0.6,0.4-1v-11.9C-164.3,380.2-164.3,380.2-164.3,380.1z M-167.3,391.6l-33.9,39.4c-0.2,0.3-0.4,0.6-0.4,1v22.9   l-10.8,6.7V432c0-0.4-0.1-0.7-0.4-1l-33.9-39.4v-11.3c0-0.6,0.5-1.3,1.3-1.3h76.6c0.7,0,1.4,0.6,1.5,1.4V391.6z"/><path d="M-190,390.7h-49.7c-0.8,0-1.5,0.7-1.5,1.5s0.7,1.5,1.5,1.5h49.7c0.8,0,1.5-0.7,1.5-1.5S-189.2,390.7-190,390.7z"/><path d="M-175.2,390.7h-7.6c-0.8,0-1.5,0.7-1.5,1.5s0.7,1.5,1.5,1.5h7.6c0.8,0,1.5-0.7,1.5-1.5S-174.4,390.7-175.2,390.7z"/></g></svg>