<svg xmlns="http://www.w3.org/2000/svg" xmlns:xlink="http://www.w3.org/1999/xlink" version="1.1" x="0px" y="0px" viewBox="0 0 100 100" style="enable-background:new 0 0 100 100;" xml:space="preserve" class="filter-svg"><g><path d="M46.7,89.7c-0.2,0-0.3,0-0.5-0.1c-0.3-0.2-0.5-0.5-0.5-0.8V60.8L19.4,41.3c-0.2-0.2-0.4-0.5-0.4-0.8V15.8c0-0.5,0.4-1,1-1   c0.5,0,0.9,0.4,1,0.9c0.1,0.2,1.3,1.4,8.8,2.4c5.5,0.8,12.7,1.2,20.3,1.2s14.8-0.4,20.3-1.2c6.8-0.9,8.4-2,8.7-2.3   c-0.3-0.3-1.9-1.4-8.7-2.3c-5.5-0.8-12.7-1.2-20.3-1.2c-9.6,0-18.7,0.7-24.3,1.9c-0.5,0.1-1-0.2-1.1-0.7c-0.1-0.5,0.2-1,0.7-1.1   C31,11,40.2,10.3,50,10.3c8.1,0,15.6,0.5,21.4,1.3c8.5,1.3,9.6,2.9,9.6,4.1s-1.1,2.9-9.6,4.1c-5.7,0.9-13.3,1.3-21.4,1.3   s-15.6-0.5-21.4-1.3c-3.9-0.6-6.3-1.3-7.7-1.9v22l26.3,19.5c0.2,0.2,0.4,0.5,0.4,0.8v26.8l4.6-2.4V60.3c0-0.3,0.1-0.6,0.4-0.8   L79,40.1V21.7c0-0.5,0.4-1,1-1c0.5,0,1,0.4,1,1v18.9c0,0.3-0.1,0.6-0.4,0.8L54.2,60.8v24.5c0,0.4-0.2,0.7-0.5,0.9l-6.5,3.4   C47,89.6,46.9,89.7,46.7,89.7z"/></g></svg>