<svg xmlns="http://www.w3.org/2000/svg" xmlns:xlink="http://www.w3.org/1999/xlink" version="1.1" x="0px" y="0px" viewBox="0 0 100 100" enable-background="new 0 0 100 100" xml:space="preserve" class="search-svg"><path d="M84.79,15.21C78.206,8.625,69.452,5,60.14,5c-9.311,0-18.065,3.625-24.649,10.21c-6.585,6.584-10.21,15.337-10.21,24.65  c0,8.718,3.179,16.947,8.988,23.364l-4.378,4.378c-1.072-0.632-2.293-0.976-3.57-0.976c-1.884,0-3.654,0.733-4.986,2.065  L7.066,82.96C5.733,84.292,5,86.064,5,87.948s0.734,3.654,2.066,4.986C8.398,94.266,10.169,95,12.052,95s3.655-0.733,4.987-2.066  l14.27-14.27c2.314-2.314,2.655-5.839,1.074-8.541l4.393-4.393c6.417,5.81,14.646,8.988,23.364,8.988  c9.312,0,18.066-3.625,24.65-10.21C91.375,57.925,95,49.171,95,39.86C95,30.548,91.375,21.794,84.79,15.21z M28.803,76.157  l-14.27,14.27c-1.325,1.324-3.635,1.325-4.96,0c-0.663-0.663-1.027-1.543-1.027-2.479c0-0.937,0.365-1.818,1.027-2.48l14.27-14.27  c0.663-0.663,1.543-1.026,2.479-1.026c0.937,0,1.818,0.365,2.48,1.026C30.169,72.565,30.169,74.791,28.803,76.157z M82.283,62.002  c-5.914,5.914-13.778,9.172-22.143,9.172c-8.364,0-16.227-3.257-22.142-9.172s-9.172-13.778-9.172-22.142  c0-8.365,3.257-16.228,9.172-22.143S51.776,8.546,60.14,8.546c8.365,0,16.228,3.257,22.143,9.172s9.172,13.778,9.172,22.143  C91.454,48.224,88.197,56.087,82.283,62.002z"/><path d="M39.757,40.86c-0.552,0-1-0.448-1-1c0-5.723,2.221-11.096,6.254-15.128c4.037-4.038,9.41-6.261,15.128-6.261  c0.552,0,1,0.448,1,1s-0.448,1-1,1c-5.185,0-10.055,2.016-13.714,5.675c-3.655,3.655-5.668,8.525-5.668,13.714  C40.757,40.412,40.31,40.86,39.757,40.86z"/><path d="M79.06,58.78c-5.04,5.05-11.76,7.83-18.92,7.83s-13.88-2.78-18.92-7.83c-10.43-10.43-10.43-27.41,0-37.84  c5.04-5.05,11.76-7.83,18.92-7.83s13.88,2.78,18.92,7.83C89.5,31.37,89.5,48.35,79.06,58.78z M60.14,64.24  c6.52,0,12.65-2.53,17.25-7.13c9.51-9.51,9.51-24.99,0-34.5c-4.6-4.6-10.73-7.14-17.25-7.14s-12.65,2.54-17.25,7.14  c-9.51,9.51-9.51,24.99,0,34.5C47.49,61.71,53.62,64.24,60.14,64.24z"/></svg>