<?xml version="1.0" standalone="no"?>
<!DOCTYPE svg PUBLIC "-//W3C//DTD SVG 1.1//EN" "http://www.w3.org/Graphics/SVG/1.1/DTD/svg11.dtd" >
<svg xmlns="http://www.w3.org/2000/svg">
<metadata>
Created by FontPrep 20130207 at Thu Dec 10 10:25:26 2015
 By Mohamed Alsharaf
Copyright (c) Lux Typographics, 2010. All rights reserved.
</metadata>
<defs>
<font id="80e9b74cb0db71e7cd1b07c8182605f1" horiz-adv-x='1024' >
  <font-face 
    font-family="Gustan-Bold"
    font-weight="700"
    font-stretch="normal"
    units-per-em="2048"
    panose-1="2 11 5 4 3 3 1 2 1 3"
    ascent="1638"
    descent="-410"
    x-height="1044"
    cap-height="1389"
    bbox="-422 -549 2783.01 2052"
    underline-thickness="81"
    underline-position="-160"
    unicode-range="U+0020-FB04"
  />
<missing-glyph horiz-adv-x="1966" 
d="M1075 799l563 -563v1126zM891 799l-563 563v-1126zM412 1462l571 -571l571 571h-1142zM983 707l-571 -572h1142zM184 0v1597h1598v-1597h-1598z" />
    <glyph glyph-name="fi" unicode="fi" horiz-adv-x="1386" 
d="M1247 1389v-222h-297v222h297zM1231 1044v-1044h-270v1044h270zM483 848v-848h-270v848h-170v174l170 14v49q0 195 91 262t290 66q106 0 207 -24v-185q-80 16 -165 16t-119 -22q-34 -23 -34 -98v-56h318v-196h-318z" />
    <glyph glyph-name="fl" unicode="fl" horiz-adv-x="1386" 
d="M1231 1389v-1389h-270v1389h270zM483 848v-848h-270v848h-170v174l170 14v49q0 195 91 262t290 66q106 0 207 -24v-185q-80 16 -165 16t-119 -22q-34 -23 -34 -98v-56h318v-196h-318z" />
    <glyph glyph-name="f_dotlessi" unicode="f&#x131;" horiz-adv-x="1386" 
d="M1231 1044v-1044h-270v1044h270zM483 848v-848h-270v848h-170v174l170 14v49q0 195 91 262t290 66q106 0 207 -24v-185q-80 16 -165 16t-119 -22q-34 -23 -34 -98v-56h318v-196h-318z" />
    <glyph glyph-name=".notdef" horiz-adv-x="1966" 
d="M1075 799l563 -563v1126zM891 799l-563 563v-1126zM412 1462l571 -571l571 571h-1142zM983 707l-571 -572h1142zM184 0v1597h1598v-1597h-1598z" />
    <glyph glyph-name=".null" horiz-adv-x="0" 
 />
    <glyph glyph-name="nonmarkingreturn" horiz-adv-x="681" 
 />
    <glyph glyph-name="space" unicode=" " horiz-adv-x="481" 
 />
    <glyph glyph-name="exclam" unicode="!" horiz-adv-x="620" 
d="M469 281v-281h-317v281h317zM465 1389l-45 -912h-217l-47 912h309z" />
    <glyph glyph-name="quotedbl" unicode="&#x22;" horiz-adv-x="878" 
d="M362 1389l-40 -601h-164l-41 601h245zM762 1389l-41 -601h-164l-41 601h246z" />
    <glyph glyph-name="numbersign" unicode="#" horiz-adv-x="1247" 
d="M483 283h179l83 340h-176zM1071 283l-47 -172h-217l-90 -357h-191l88 357h-176l-88 -357h-192l88 357h-219l49 172h217l84 340h-215l47 174h215l88 346h193l-89 -346h177l88 346h192l-90 -346h217l-49 -174h-213l-86 -340h219z" />
    <glyph glyph-name="dollar" unicode="$" horiz-adv-x="1081" 
d="M469 182q258 0 258 144q0 86 -51 112t-172 27q-408 4 -408 332q0 186 119 278t326 99l51 215h229l-57 -232q88 -14 137 -29v-196q-155 37 -291 37t-190 -30t-53 -100q0 -70 31 -98t80 -31q50 -3 119 -5q151 -4 263 -63q137 -71 136 -266q-1 -194 -131 -296t-357 -111
l-53 -211h-230l60 226q-92 14 -170 36v207q182 -45 354 -45z" />
    <glyph glyph-name="percent" unicode="%" horiz-adv-x="1837" 
d="M1526 100q0 109 -27 164t-109 55t-108 -55q-27 -55 -27 -164q0 -110 27 -164t109 -54q83 0 109 54q26 55 26 164zM1743 100q0 -184 -82 -281t-270 -97q-189 0 -271 96q-82 98 -82 282t82 282t270 97q188 1 271 -97q82 -98 82 -282zM582 797q0 109 -27 164t-109 55
t-108 -55t-27 -164q0 -109 27 -164q26 -55 108 -55t109 55t27 164zM799 797q0 -183 -82 -281q-83 -98 -271 -98t-270 97t-82 281t82 282t270 98t270 -98t83 -281zM1528 1143l-991 -1389h-222l992 1389h221z" />
    <glyph glyph-name="ampersand" unicode="&#x26;" horiz-adv-x="1523" 
d="M913 602h-196q-163 0 -229 -66t-66 -145q0 -205 231 -205q87 0 159 37t101 88v291zM626 -33q-247 0 -392 131q-107 100 -107 290q0 104 66 194t165 133v4q-199 100 -198 330q0 190 135 281t369 91q160 0 278 -35v-210q-115 30 -251 30t-186 -50t-50 -137t59 -147t203 -59
h225l68 178h172v-178h243v-211h-243v-274q0 -80 32 -108t108 -28t138 13v-201q-84 -25 -203 -24q-213 0 -284 110h-4q-55 -53 -155 -88t-188 -35z" />
    <glyph glyph-name="quotesingle" unicode="'" horiz-adv-x="479" 
d="M362 1389l-40 -601h-164l-41 601h245z" />
    <glyph glyph-name="parenleft" unicode="(" horiz-adv-x="729" 
d="M453 633q0 -229 39 -425t139 -450h-221q-143 268 -197 468q-53 200 -53 408t52 406t196 455h223q-100 -229 -139 -431t-39 -431z" />
    <glyph glyph-name="parenright" unicode=")" horiz-adv-x="729" 
d="M276 633q0 229 -38 431q-39 202 -140 431h226q143 -258 194 -456q51 -197 51 -405t-53 -408t-197 -468h-221q100 254 140 450q38 196 38 425z" />
    <glyph glyph-name="asterisk" unicode="*" 
d="M702 1229l250 74l52 -154l-248 -88l151 -217l-131 -96l-162 210l-157 -206l-133 96l147 213l-244 88l52 154l247 -74l9 266h161z" />
    <glyph glyph-name="plus" unicode="+" horiz-adv-x="1286" 
d="M1190 659v-219h-420v-403h-254v403h-420v219h420v408h254v-408h420z" />
    <glyph glyph-name="comma" unicode="," horiz-adv-x="620" 
d="M72 -285l141 600h326l-256 -600h-211z" />
    <glyph glyph-name="hyphen" unicode="-" horiz-adv-x="833" 
d="M786 659v-219h-739v219h739z" />
    <glyph glyph-name="period" unicode="." horiz-adv-x="620" 
d="M469 281v-281h-317v281h317z" />
    <glyph glyph-name="slash" unicode="/" horiz-adv-x="763" 
d="M805 1563l-600 -1737h-246l600 1737h246z" />
    <glyph glyph-name="zero" unicode="0" horiz-adv-x="1374" 
d="M416 569q0 -146 25 -236q45 -163 245 -163t245 164q25 92 25 237t-20 219t-50 107q-69 76 -199 76t-201 -76q-70 -77 -70 -328zM1247 571q0 -299 -123 -451t-444 -153q-321 0 -442 165q-61 83 -86 187t-25 250q0 301 121 454t437 153t439 -153t123 -452z" />
    <glyph glyph-name="one" unicode="1" horiz-adv-x="833" 
d="M616 0h-270v920l-326 -2v165l596 76v-1159z" />
    <glyph glyph-name="two" unicode="2" horiz-adv-x="1132" 
d="M721 217h313v-217h-928l-12 209q336 177 482 323t147 252q0 184 -250 185q-143 0 -340 -39v198q188 48 392 48t343 -94t140 -300q0 -162 -134 -298t-382 -267l2 -4q196 4 227 4z" />
    <glyph glyph-name="three" unicode="3" horiz-adv-x="1165" 
d="M520 565q228 0 230 205q0 96 -62 148t-208 51q-146 0 -341 -39v198q167 48 391 48t364 -94t140 -271q0 -215 -190 -340v-4q205 -109 205 -320q1 -115 -47 -199t-131 -133q-163 -94 -380 -94t-397 58v205q195 -47 373 -47q301 -6 301 208q0 98 -58 157t-184 58h-245v205
h239z" />
    <glyph glyph-name="four" unicode="4" horiz-adv-x="1208" 
d="M1016 696v-430h151v-207h-151v-301h-271v301h-682l-12 211l504 873h276l-483 -877l2 -4q123 4 289 4h111l38 430h228z" />
    <glyph glyph-name="five" unicode="5" horiz-adv-x="1200" 
d="M166 1143h852v-207h-582v-336q41 2 124 2q208 0 364 -79q184 -92 184 -353q0 -213 -159 -331t-390 -118t-405 56v207q174 -43 358 -43q315 0 315 225q0 164 -154 206q-63 17 -205 17t-302 -12v766z" />
    <glyph glyph-name="six" unicode="6" horiz-adv-x="1327" 
d="M705 682q-86 0 -167 -41t-118 -98q4 -156 72 -260q68 -105 196 -105t193 67q66 67 65 185q1 252 -241 252zM760 905q225 0 345 -131q120 -130 120 -338q-1 -208 -143 -338t-408 -131q-266 0 -407 176q-140 176 -140 516q0 762 672 762q193 0 325 -45v-200
q-150 39 -315 38q-212 0 -305 -108q-94 -108 -98 -320l4 -2q53 53 151 87t199 34z" />
    <glyph glyph-name="seven" unicode="7" horiz-adv-x="1024" 
d="M37 936v207h946l10 -185l-495 -1204h-295l344 826q45 109 155 354l-2 6l-297 -4h-366z" />
    <glyph glyph-name="eight" unicode="8" horiz-adv-x="1353" 
d="M677 811q114 0 179 66q47 47 47 141t-49 147t-177 53t-177 -52q-49 -54 -49 -148t47 -141q65 -66 179 -66zM678 172q64 0 116 15t95 65t43 143q0 92 -49 142q-70 69 -206 69t-206 -69q-49 -49 -49 -141t43 -143q43 -49 97 -65t116 -16zM677 1421q224 0 367 -91t144 -273
q0 -215 -176 -336v-4q205 -109 205 -340q0 -261 -228 -355q-123 -53 -336 -54t-365 95q-152 97 -151 321q0 224 205 333v4q-176 121 -176 336q0 182 143 273q144 91 368 91z" />
    <glyph glyph-name="nine" unicode="9" horiz-adv-x="1327" 
d="M623 461q86 0 167 41t117 98q-4 156 -71 260q-68 104 -196 104t-194 -66q-66 -67 -65 -185q0 -252 242 -252zM102 708q0 208 142 338t410 130q266 0 406 -176t140 -517q0 -762 -672 -762q-193 0 -325 46v200q141 -39 333 -39q378 0 386 428l-4 2q-54 -53 -152 -87
t-199 -33q-225 0 -345 131t-120 339z" />
    <glyph glyph-name="colon" unicode=":" horiz-adv-x="620" 
d="M469 281v-281h-317v281h317zM469 1044v-280h-317v280h317z" />
    <glyph glyph-name="semicolon" unicode=";" horiz-adv-x="620" 
d="M51 -285l142 600h325l-256 -600h-211zM508 1044v-280h-318v280h318z" />
    <glyph glyph-name="less" unicode="&#x3c;" horiz-adv-x="1370" 
d="M373 553v-4q88 -31 483 -182l369 -148v-258l-1170 483v209l1170 484v-254l-369 -148q-395 -151 -483 -182z" />
    <glyph glyph-name="equal" unicode="=" horiz-adv-x="1353" 
d="M1257 432v-219h-1161v219h1161zM1257 889v-219h-1161v219h1161z" />
    <glyph glyph-name="greater" unicode="&#x3e;" horiz-adv-x="1370" 
d="M997 549v4q-88 31 -483 182l-369 148v254l1170 -484v-209l-1170 -483v258l369 148q395 151 483 182z" />
    <glyph glyph-name="question" unicode="?" horiz-adv-x="1007" 
d="M438 1421q254 -1 378 -105t124 -283t-150 -289t-350 -136l-6 -131h-233l-8 316q248 20 346 76q98 57 98 157t-69 138t-219 38t-273 -43v211q170 51 362 51zM477 281v-281h-317v281h317z" />
    <glyph glyph-name="at" unicode="@" horiz-adv-x="1697" 
d="M715 386q0 -97 78 -97q39 0 80 38t53 99l32 190q-33 4 -57 5q-84 2 -135 -68t-51 -167zM752 109q-115 1 -180 81t-64 203q0 170 100 278t291 107q150 0 281 -51l-54 -330q-8 -51 24 -86t94 -35t110 54q47 54 47 174q0 236 -141 368q-142 132 -388 132t-393 -160
t-147 -404t134 -389t388 -145q154 0 276 55v-184q-104 -49 -276 -49q-346 0 -541 188t-195 525t204 539t544 202t526 -188t187 -492q0 -190 -92 -290q-93 -100 -219 -101t-188 31t-97 102h-4q-72 -135 -227 -135z" />
    <glyph glyph-name="A" unicode="A" horiz-adv-x="1323" 
d="M465 535h383l-96 290q-43 137 -93 310h-6q-49 -172 -92 -310zM1026 0l-106 322h-531l-104 -322h-285l500 1389h323l500 -1389h-297z" />
    <glyph glyph-name="B" unicode="B" horiz-adv-x="1316" 
d="M948 406q0 110 -45 154t-180 44h-274v-397h274q135 0 180 45t45 154zM717 0h-551v1389h516q322 0 428 -109q90 -90 90 -241t-59 -214q-59 -64 -121 -100v-4q86 -41 154 -123t67 -213q0 -184 -100 -285q-61 -60 -163 -80t-261 -20zM449 811h241q133 0 175 42t42 142
q0 101 -42 143t-175 42h-241v-369z" />
    <glyph glyph-name="C" unicode="C" horiz-adv-x="1181" 
d="M96 690q0 379 154 555t473 176q221 0 358 -51v-211q-154 41 -309 41q-203 0 -288 -105t-85 -397q0 -387 159 -461q74 -36 234 -36t320 51v-223q-76 -29 -192 -45t-197 -17q-309 0 -468 172t-159 551z" />
    <glyph glyph-name="D" unicode="D" horiz-adv-x="1433" 
d="M696 0h-530v1389h502q354 0 512 -167t158 -538t-175 -539q-152 -145 -467 -145zM449 219h256q152 0 215 62q116 113 116 409t-110 412q-63 68 -219 67h-258v-950z" />
    <glyph glyph-name="E" unicode="E" horiz-adv-x="1157" 
d="M1094 219v-219h-928v1389h913v-220h-630v-352h540v-219h-540v-379h645z" />
    <glyph glyph-name="F" unicode="F" horiz-adv-x="1091" 
d="M449 598v-598h-283v1389h928v-220h-645v-352h540v-219h-540z" />
    <glyph glyph-name="G" unicode="G" horiz-adv-x="1413" 
d="M707 598v219h575v-749q-100 -51 -253 -76t-277 -25q-334 0 -495 170t-161 557t170 557t525 170q233 0 401 -51v-211q-154 41 -334 41t-272 -39q-187 -79 -187 -428t104 -457q52 -53 114 -73q63 -21 185 -21t197 23v393h-292z" />
    <glyph glyph-name="H" unicode="H" horiz-adv-x="1474" 
d="M449 0h-283v1389h283v-572h577v572h283v-1389h-283v598h-577v-598z" />
    <glyph glyph-name="I" unicode="I" horiz-adv-x="614" 
d="M449 0h-283v1389h283v-1389z" />
    <glyph glyph-name="J" unicode="J" horiz-adv-x="630" 
d="M182 1389h283v-979q0 -223 -37 -370t-135 -282h-266q156 260 155 580v1051z" />
    <glyph glyph-name="K" unicode="K" horiz-adv-x="1308" 
d="M449 598v-598h-283v1389h283v-572h153l375 572h297l-428 -656l473 -733h-320l-391 598h-159z" />
    <glyph glyph-name="L" unicode="L" horiz-adv-x="1099" 
d="M1094 219v-219h-928v1389h283v-1170h645z" />
    <glyph glyph-name="M" unicode="M" horiz-adv-x="1792" 
d="M438 0h-272v1389h371l356 -766h6l356 766h371v-1389h-276v524q0 223 24 586h-6q-61 -201 -145 -379l-228 -471h-202l-228 471q-84 178 -145 379h-6q25 -362 24 -586v-524z" />
    <glyph glyph-name="N" unicode="N" horiz-adv-x="1513" 
d="M436 434v-434h-270v1389h317l418 -680q111 -172 189 -342h6q-18 369 -19 587v435h271v-1389h-310l-430 684q-104 160 -184 334h-6q18 -369 18 -584z" />
    <glyph glyph-name="O" unicode="O" horiz-adv-x="1470" 
d="M1374 694q0 -367 -143 -547t-495 -180t-496 180q-143 180 -144 547q0 367 144 547t495 180t495 -180t144 -547zM1071 694q0 285 -75 399q-75 113 -261 113t-261 -114t-75 -398t75 -398t261 -114t261 114t75 398z" />
    <glyph glyph-name="P" unicode="P" horiz-adv-x="1310" 
d="M449 1169v-495h217q93 0 120 1q73 3 109 40q59 59 59 207q0 222 -128 241q-40 6 -136 6h-241zM449 453v-453h-283v1389h530q174 0 276 -25q283 -70 282 -445t-282 -442q-101 -25 -276 -24h-247z" />
    <glyph glyph-name="Q" unicode="Q" horiz-adv-x="1470" 
d="M399 694q0 -286 74 -398t261 -112t262 114t75 397q0 284 -75 398q-75 113 -261 113t-261 -114t-75 -398zM1374 694q0 -494 -260 -643l266 -293h-331l-201 215q-53 -6 -113 -6q-352 0 -495 180t-144 547q0 367 144 547t495 180t495 -180t144 -547z" />
    <glyph glyph-name="R" unicode="R" horiz-adv-x="1339" 
d="M698 1169h-249v-424h253q111 1 127 5q15 4 33 9t35 23q59 59 59 175t-59 176q-32 32 -109 35q-24 1 -90 1zM449 0h-283v1389h559q162 0 256 -22q268 -63 266 -411q0 -215 -108 -323q-80 -78 -195 -101l350 -532h-323l-340 526h-182v-526z" />
    <glyph glyph-name="S" unicode="S" horiz-adv-x="1255" 
d="M565 201q330 0 330 196q0 113 -67 147t-208 41t-221 26q-79 19 -149 63q-142 89 -142 314q2 433 584 433q221 0 373 -51v-211q-176 41 -367 41q-301 0 -301 -176q0 -86 42 -126t153 -46q35 -2 126 -6q340 -15 429 -220q37 -85 37 -208q0 -223 -165 -337t-429 -114
t-453 62v223q190 -51 428 -51z" />
    <glyph glyph-name="T" unicode="T" horiz-adv-x="1085" 
d="M684 1169v-1169h-283v1169h-389v220h1061v-220h-389z" />
    <glyph glyph-name="U" unicode="U" horiz-adv-x="1415" 
d="M418 436q0 -124 64 -188t226 -64q161 0 225 64t64 188v953h283v-918q0 -250 -127 -377t-445 -127t-454 135q-119 119 -119 369v918h283v-953z" />
    <glyph glyph-name="V" unicode="V" horiz-adv-x="1310" 
d="M664 264q94 322 151 500l205 625h291l-477 -1389h-357l-477 1389h303l205 -625q70 -215 149 -500h7z" />
    <glyph glyph-name="W" unicode="W" horiz-adv-x="1984" 
d="M780 1389h291l234 -707q70 -215 114 -403h8q51 270 86 409l181 701h280l-379 -1389h-323l-174 518q-87 266 -101 316h-6q-55 -184 -100 -314l-178 -520h-324l-379 1389h293l178 -699q59 -229 88 -411h9q49 193 114 389l166 493z" />
    <glyph glyph-name="X" unicode="X" horiz-adv-x="1220" 
d="M610 936l293 453h318l-455 -674l475 -715h-336l-307 477l-305 -477h-313l464 700l-460 689h333z" />
    <glyph glyph-name="Y" unicode="Y" horiz-adv-x="1269" 
d="M770 0h-281v504l-499 885h309l336 -637h6l344 637h295l-510 -883v-506z" />
    <glyph glyph-name="Z" unicode="Z" horiz-adv-x="1155" 
d="M1087 0h-1021v197l669 968v4h-614v220h960v-199l-669 -967v-4h675v-219z" />
    <glyph glyph-name="bracketleft" unicode="[" horiz-adv-x="718" 
d="M647 -47v-195h-457v1737h457v-197h-186v-1345h186z" />
    <glyph glyph-name="backslash" unicode="\" horiz-adv-x="763" 
d="M559 -174l-600 1737h246l600 -1737h-246z" />
    <glyph glyph-name="bracketright" unicode="]" horiz-adv-x="718" 
d="M72 -242v195h186v1345h-186v197h456v-1737h-456z" />
    <glyph glyph-name="asciicircum" unicode="^" horiz-adv-x="1069" 
d="M770 770l-231 428l-244 -428h-211l367 619h170l364 -619h-215z" />
    <glyph glyph-name="underscore" unicode="_" horiz-adv-x="1142" 
d="M1143 -344h-1143v197h1143v-197z" />
    <glyph glyph-name="grave" unicode="`" 
d="M504 1157l-328 232h322l229 -232h-223z" />
    <glyph glyph-name="a" unicode="a" horiz-adv-x="1150" 
d="M592 473q-152 0 -203 -49q-33 -33 -33 -109q0 -77 44 -103t130 -26q147 0 218 103v178q-93 6 -156 6zM748 739q0 57 -10 81q-25 57 -210 58q-184 1 -362 -38v196q156 41 400 41t346 -75q101 -75 102 -275v-727h-187l-34 106h-2q-51 -59 -135 -94t-181 -35
q-209 -1 -301 91t-92 242t80 231q111 109 416 108q82 0 170 -6v96z" />
    <glyph glyph-name="b" unicode="b" horiz-adv-x="1267" 
d="M885 533q1 175 -55 248t-180 73t-224 -121v-467q82 -76 219 -76t189 84q51 84 51 259zM692 1069q482 -1 482 -539q0 -272 -138 -414t-370 -141q-174 0 -301 97h-5l-32 -72h-172v1389h270v-420h4q115 100 262 100z" />
    <glyph glyph-name="c" unicode="c" horiz-adv-x="1011" 
d="M383 528q-1 -206 67 -274t212 -68t280 43v-209q-162 -53 -313 -53q-281 0 -408 135t-127 420q0 121 22 211t78 173q115 171 451 171q150 0 275 -41v-196q-122 30 -262 30t-208 -68t-67 -274z" />
    <glyph glyph-name="d" unicode="d" horiz-adv-x="1267" 
d="M631 854q-145 0 -197 -84t-51 -259q0 -175 55 -248q56 -73 180 -73t224 121v480q-66 63 -211 63zM94 514q0 272 137 414t371 141q147 0 240 -55v375h270v-1389h-188l-31 115h-2q-135 -139 -316 -140q-241 0 -361 133q-120 134 -120 406z" />
    <glyph glyph-name="e" unicode="e" horiz-adv-x="1161" 
d="M803 690q-1 96 -47 142t-150 47q-104 -1 -156 -53t-63 -179h414q2 27 2 43zM381 461q1 -155 67 -221t237 -66t329 41v-195q-180 -53 -379 -53q-287 0 -414 135t-127 432t149 421q149 123 371 123q445 -2 445 -449q0 -86 -10 -168h-668z" />
    <glyph glyph-name="f" unicode="f" horiz-adv-x="825" 
d="M483 848v-848h-270v848h-170v174l170 14v49q0 195 91 262t290 66q139 0 250 -24v-185q-88 16 -190 16t-137 -22q-34 -23 -34 -98v-56h338v-196h-338z" />
    <glyph glyph-name="g" unicode="g" horiz-adv-x="1253" 
d="M615 860q-134 0 -183 -75t-49 -231t54 -220q54 -66 171 -66q62 0 124 38t95 85v391q-78 78 -212 78zM1098 1044v-976q0 -444 -525 -445q-246 0 -395 53v209q168 -47 348 -47t240 56q61 56 61 155v103h-4q-113 -98 -274 -99q-229 0 -342 125t-113 383q0 508 506 508
q164 0 289 -96h4l33 71h172z" />
    <glyph glyph-name="h" unicode="h" horiz-adv-x="1269" 
d="M156 0v1389h270v-441h4q150 121 344 121t277 -76q82 -76 82 -250v-743h-271v694q0 90 -36 125t-118 35t-158 -39t-124 -96v-719h-270z" />
    <glyph glyph-name="i" unicode="i" horiz-adv-x="581" 
d="M442 1389v-222h-303v222h303zM426 1044v-1044h-270v1044h270z" />
    <glyph glyph-name="j" unicode="j" horiz-adv-x="591" 
d="M453 1389v-222h-303v222h303zM166 123v921h270v-710q0 -251 -14 -362q-14 -110 -44 -178t-81 -138h-248q117 199 117 467z" />
    <glyph glyph-name="k" unicode="k" horiz-adv-x="1165" 
d="M426 449v-449h-270v1389h270v-738h121l262 393h297l-332 -481l385 -563h-315l-297 449h-121z" />
    <glyph glyph-name="l" unicode="l" horiz-adv-x="581" 
d="M426 1389v-1389h-270v1389h270z" />
    <glyph glyph-name="m" unicode="m" horiz-adv-x="1873" 
d="M1737 743v-743h-271v694q0 90 -30 125q-31 35 -104 35q-72 0 -140 -39t-111 -96v-719h-270v694q0 90 -31 125q-32 35 -104 35t-140 -39t-110 -96v-719h-270v1044h188l37 -137h4q145 162 358 162q243 1 306 -149h4q143 150 335 150t271 -77q78 -76 78 -250z" />
    <glyph glyph-name="n" unicode="n" horiz-adv-x="1269" 
d="M757 1069q212 0 294 -76t82 -250v-743h-271v694q0 90 -36 125t-118 35t-158 -39t-124 -96v-719h-270v1044h188l37 -137h4q160 162 372 162z" />
    <glyph glyph-name="o" unicode="o" horiz-adv-x="1253" 
d="M383 522q0 -225 78 -303q55 -55 166 -55t166 55q78 78 77 303q0 225 -77 303q-55 55 -166 55t-166 -55q-78 -78 -78 -303zM627 -33q-236 0 -384 119q-149 118 -149 436t149 437t385 119q236 -1 383 -119q148 -118 148 -436q0 -317 -148 -437q-148 -119 -384 -119z" />
    <glyph glyph-name="p" unicode="p" horiz-adv-x="1267" 
d="M885 533q1 175 -55 248t-180 73t-224 -121v-479q66 -64 211 -64t197 84q51 84 51 259zM692 1069q482 -1 482 -539q0 -272 -138 -413t-370 -142q-147 0 -240 56v-375h-270v1388h188l31 -114h2q135 139 315 139z" />
    <glyph glyph-name="q" unicode="q" horiz-adv-x="1267" 
d="M623 854q-137 0 -189 -84t-51 -259q0 -175 55 -248t179 -73t225 121v467q-82 76 -219 76zM575 -25q-481 0 -481 539q0 272 137 414q138 141 371 141q174 0 301 -96h4l33 71h172v-1388h-270v420h-4q-115 -100 -263 -101z" />
    <glyph glyph-name="r" unicode="r" horiz-adv-x="817" 
d="M662 1067q98 0 147 -31v-205q-55 19 -138 19q-150 1 -245 -164v-686h-270v1044h188l39 -147h2q100 170 277 170z" />
    <glyph glyph-name="s" unicode="s" horiz-adv-x="1048" 
d="M358 766q0 -92 99 -105q45 -6 122 -7q160 -2 273 -61q135 -70 135 -257q0 -188 -140 -278t-382 -91q-180 0 -359 53v207q183 -45 355 -45q258 0 258 117q0 71 -50 93q-51 22 -157 24t-174 15t-127 48q-123 73 -123 256t129 263t341 79q212 0 335 -41v-196
q-143 35 -322 34q-213 0 -213 -108z" />
    <glyph glyph-name="t" unicode="t" horiz-adv-x="860" 
d="M213 350v498h-170v174l195 25l67 231h180v-234h322v-196h-324v-492q0 -104 33 -134t122 -30t173 23v-195q-102 -40 -279 -40t-248 78t-71 292z" />
    <glyph glyph-name="u" unicode="u" horiz-adv-x="1269" 
d="M496 -25q-193 0 -276 81t-83 255v733h271v-694q0 -90 36 -125t117 -35q82 0 159 39t124 97v718h270v-1044h-188l-37 137h-4q-160 -162 -389 -162z" />
    <glyph glyph-name="v" unicode="v" horiz-adv-x="1134" 
d="M578 238q61 205 120 374l152 432h274l-391 -1044h-334l-389 1044h291l152 -432q59 -170 120 -374h5z" />
    <glyph glyph-name="w" unicode="w" horiz-adv-x="1681" 
d="M649 1044h256l142 -382q104 -291 129 -396h4q12 59 106 402l113 376h268l-342 -1044h-272l-211 545h-4l-209 -545h-277l-338 1044h279l117 -374q82 -287 102 -404h4q16 66 139 412l66 180q-72 184 -72 186z" />
    <glyph glyph-name="x" unicode="x" horiz-adv-x="1062" 
d="M686 535l387 -535h-328l-225 332l-227 -332h-303l379 532l-379 512h321l221 -317l228 317h299z" />
    <glyph glyph-name="y" unicode="y" horiz-adv-x="1136" 
d="M713 690l137 354h272l-571 -1388h-281l156 379l-416 1009h291l137 -354q70 -182 135 -383h5q61 193 135 383z" />
    <glyph glyph-name="z" unicode="z" horiz-adv-x="960" 
d="M911 0h-862v170l522 664v4h-483v206h823v-170l-520 -663v-4h520v-207z" />
    <glyph glyph-name="braceleft" unicode="{" horiz-adv-x="727" 
d="M211 1151q0 180 69 262t263 82q72 0 112 -6v-191q-47 4 -75 5q-113 0 -113 -129q0 -45 16 -168t17 -154q0 -99 -51 -199q51 -100 51 -198q0 -31 -16 -176t-17 -191q0 -137 113 -137q29 0 75 4v-191q-41 -6 -112 -6q-193 0 -263 85t-69 268q-1 95 17 222q18 128 20 154
l-127 146v41l127 145q-37 259 -37 332z" />
    <glyph glyph-name="bar" unicode="|" horiz-adv-x="1085" 
d="M655 1563v-1737h-225v1737h225z" />
    <glyph glyph-name="braceright" unicode="}" horiz-adv-x="727" 
d="M260 1174q0 129 -113 129q-29 0 -75 -5v191q39 6 112 6q196 0 264 -82t68 -262q0 -68 -17 -193t-20 -139l127 -145v-41l-127 -146q1 -27 19 -156t18 -220q0 -181 -70 -267t-262 -86q-74 0 -112 6v191q47 -4 75 -4q113 0 113 137q0 44 -16 190t-17 177q1 98 52 198
q-51 100 -52 199q0 31 17 154q16 123 16 168z" />
    <glyph glyph-name="asciitilde" unicode="~" horiz-adv-x="1353" 
d="M909 764q164 0 348 90v-215q-176 -86 -346 -86q-83 0 -243 49t-232 49q-156 0 -340 -90v215q172 86 342 86q80 0 238 -49t233 -49z" />
    <glyph glyph-name="nbspace" unicode="&#xa0;" horiz-adv-x="481" 
 />
    <glyph glyph-name="exclamdown" unicode="&#xa1;" horiz-adv-x="620" 
d="M469 1044v-280h-317v280h317zM420 567l45 -911h-309l47 911h217z" />
    <glyph glyph-name="cent" unicode="&#xa2;" horiz-adv-x="1060" 
d="M711 186q127 0 264 43v-209q-143 -53 -313 -53q-51 0 -95 6l-55 -215h-229l73 273q-229 127 -229 538q0 323 133 464q116 123 338 138l51 218h230l-56 -228q55 -8 129 -33v-196q-123 37 -223 37q-101 -1 -155 -19t-86 -47t-52 -98t-20 -257t58 -275t237 -87z" />
    <glyph glyph-name="sterling" unicode="&#xa3;" horiz-adv-x="1163" 
d="M137 489v207h162l10 80q25 203 127 301q102 99 292 99t316 -48v-196q-100 37 -230 37t-176 -47t-60 -177l-7 -49h297v-207h-319l-27 -237q122 -47 270 -47t269 35v-207q-109 -43 -305 -43t-332 61q-55 -55 -156 -55t-162 16v189q30 2 48 3q96 6 102 64l25 221h-144z" />
    <glyph glyph-name="currency" unicode="&#xa4;" horiz-adv-x="1746" 
d="M872 319q148 1 251 91t103 286t-102 285q-104 90 -252 90t-252 -90t-104 -285t104 -286t252 -91zM873 98q-206 0 -359 80l-192 -194l-170 168l182 182q-102 150 -102 364t100 359l-180 182l170 168l190 -195q152 82 358 82t363 -82l192 195l170 -168l-182 -182
q100 -143 100 -359t-102 -362l184 -184l-170 -168l-194 196q-152 -82 -358 -82z" />
    <glyph glyph-name="yen" unicode="&#xa5;" horiz-adv-x="1196" 
d="M1092 768v-139h-250l-58 -94h308v-140h-377v-395h-266v395h-347v140h281l-53 94h-228v139h152l-207 375h285l258 -496h4l283 496h272l-225 -375h168z" />
    <glyph glyph-name="brokenbar" unicode="&#xa6;" horiz-adv-x="1085" 
d="M655 815h-225v748h225v-748zM430 600h225v-774h-225v774z" />
    <glyph glyph-name="section" unicode="&#xa7;" horiz-adv-x="1114" 
d="M432 733q-53 -47 -53 -113t50 -92l48 -24q32 -16 221 -49q41 45 41 106t-27 82q-28 21 -44 31t-52 20t-55 14q-18 4 -64 13q-46 8 -65 12zM379 1079q0 -55 32 -87q31 -32 105 -49t154 -35t158 -47t128 -99t50 -190t-86 -216q38 -28 62 -96t24 -143q0 -195 -138 -290
t-383 -95q-180 0 -358 53v207q181 -45 333 -45t216 35q63 35 63 122q1 55 -29 85t-108 52t-159 38t-159 45q-78 28 -126 94q-49 66 -49 168q0 145 100 231q-100 80 -100 251t130 262t341 91t333 -41v-196q-143 35 -321 35q-213 0 -213 -140z" />
    <glyph glyph-name="dieresis" unicode="&#xa8;" 
d="M975 1384v-213h-258v213h258zM514 1384v-213h-258v213h258z" />
    <glyph glyph-name="copyright" unicode="&#xa9;" horiz-adv-x="1818" 
d="M909 1243q-291 -1 -431 -145t-140 -408t142 -405t429 -142q571 0 572 545q0 555 -572 555zM125 690q0 346 204 539q205 193 579 193t580 -190q206 -188 206 -540t-206 -538t-579 -186t-579 188t-205 534zM602 700q0 197 85 288t255 91q106 0 188 -26v-146q-74 23 -160 23
t-122 -48q-35 -48 -35 -182t35 -181q36 -48 108 -48t162 16v-143q-90 -25 -176 -25q-340 0 -340 381z" />
    <glyph glyph-name="ordfeminine" unicode="&#xaa;" horiz-adv-x="882" 
d="M453 930q-106 0 -138 -37q-18 -18 -18 -70q1 -90 103 -90t149 64v129q-78 4 -96 4zM549 1130q0 36 -6 52q-14 37 -137 38q-122 1 -283 -36v170q125 35 313 35q188 -1 266 -57t78 -212v-545h-170l-22 66h-2q-94 -80 -240 -80t-215 71q-70 72 -70 186t62 175q84 84 317 84
q74 0 109 -4v57z" />
    <glyph glyph-name="guillemotleft" unicode="&#xab;" horiz-adv-x="1284" 
d="M1178 104h-283l-330 474l330 466h283l-326 -466zM721 104h-283l-329 474l329 466h283l-326 -466z" />
    <glyph glyph-name="logicalnot" unicode="&#xac;" horiz-adv-x="1142" 
d="M1047 1143v-584h-271v377h-713v207h984z" />
    <glyph glyph-name="uni00AD" unicode="&#xad;" horiz-adv-x="833" 
d="M786 659v-219h-739v219h739z" />
    <glyph glyph-name="registered" unicode="&#xae;" horiz-adv-x="1818" 
d="M821 715h125q53 -1 75 21t21 81q0 98 -96 98h-125v-200zM821 571v-227h-190v713h305q154 0 228 -51t73 -189q-1 -99 -49 -153t-107 -62l138 -258h-197l-113 227h-88zM909 1243q-291 -1 -431 -145t-140 -408t142 -405t429 -142q571 0 572 545q0 555 -572 555zM125 690
q0 346 204 539q205 193 579 193t580 -190q206 -188 206 -540t-206 -538t-579 -186t-579 188t-205 534z" />
    <glyph glyph-name="macron" unicode="&#xaf;" 
d="M983 1389v-185h-737v185h737z" />
    <glyph glyph-name="degree" unicode="&#xb0;" horiz-adv-x="929" 
d="M465 741q-178 0 -289 87t-110 253q0 166 110 254q111 88 289 88t289 -87q110 -87 110 -255t-110 -254t-289 -86zM466 911q202 0 202 171t-202 171t-202 -171t202 -171z" />
    <glyph glyph-name="plusminus" unicode="&#xb1;" horiz-adv-x="1224" 
d="M1128 219v-219h-1032v219h1032zM1128 879v-220h-389v-301h-254v301h-389v220h389v305h254v-305h389z" />
    <glyph glyph-name="uni00B2" unicode="&#xb2;" horiz-adv-x="645" 
d="M578 799v-144h-533l-10 125q28 18 96 74t110 96t59 66q17 27 40 62t25 93q0 88 -119 89q-94 0 -189 -31v143q101 33 227 33t208 -53q82 -52 82 -162t-55 -194q-54 -84 -195 -197v-2q43 2 168 2h86z" />
    <glyph glyph-name="uni00B3" unicode="&#xb3;" horiz-adv-x="679" 
d="M315 1098q84 0 84 78q0 84 -103 84t-210 -31v143q102 33 229 33t207 -53t80 -157t-90 -163v-2q100 -51 100 -164t-93 -171t-216 -57t-237 38v145q121 -33 219 -33q123 0 123 89q0 81 -80 79h-170v142h157z" />
    <glyph glyph-name="acute" unicode="&#xb4;" 
d="M1053 1389l-328 -232h-223l229 232h322z" />
    <glyph glyph-name="mu" unicode="&#xb5;" horiz-adv-x="1474" 
d="M489 1143v-783q0 -94 43 -132q44 -38 136 -38t179 38t138 98v817h272v-1143h-186l-39 137h-4q-164 -164 -432 -164q-59 0 -107 13v-330h-272v1487h272z" />
    <glyph glyph-name="mu" unicode="&#x3bc;" horiz-adv-x="1474" 
d="M489 1143v-783q0 -94 43 -132q44 -38 136 -38t179 38t138 98v817h272v-1143h-186l-39 137h-4q-164 -164 -432 -164q-59 0 -107 13v-330h-272v1487h272z" />
    <glyph glyph-name="paragraph" unicode="&#xb6;" horiz-adv-x="1277" 
d="M610 903v-672h-22q-193 0 -329 96q-153 108 -153 362q0 350 320 430q84 22 184 22h561v-238h-141v-1247h-282v1247h-138z" />
    <glyph glyph-name="periodcentered" unicode="&#xb7;" horiz-adv-x="620" 
d="M469 690v-280h-317v280h317z" />
    <glyph glyph-name="cedilla" unicode="&#xb8;" 
d="M846 -221q0 -156 -279 -156q-100 0 -194 29v139q99 -31 173 -31t75 41q0 41 -86 45l-13 56l43 98h193l-37 -88q125 -43 125 -133z" />
    <glyph glyph-name="uni00B9" unicode="&#xb9;" horiz-adv-x="489" 
d="M373 655h-197v578l-166 -2v125l363 45v-746z" />
    <glyph glyph-name="ordmasculine" unicode="&#xba;" horiz-adv-x="960" 
d="M479 1221q-70 0 -106 -37q-53 -53 -53 -214t53 -214q35 -35 107 -35t106 35q53 53 53 214t-53 214q-37 37 -107 37zM479 553q-190 0 -299 94q-108 93 -108 323t108 324q109 94 299 94t299 -94t109 -323t-109 -323t-299 -95z" />
    <glyph glyph-name="guillemotright" unicode="&#xbb;" horiz-adv-x="1284" 
d="M391 104h-282l325 474l-325 466h282l330 -466zM848 104h-283l326 474l-326 466h283l330 -466z" />
    <glyph glyph-name="uni00BC" unicode="&#xbc;" horiz-adv-x="1536" 
d="M1440 152v-152h-193v152h-344l-10 137l262 444h191l-246 -436v-2l164 2l24 207h152v-207h78v-145h-78zM373 655h-197v578l-166 -2v125l363 45v-746zM1288 1389l-991 -1389h-221l991 1389h221z" />
    <glyph glyph-name="uni00BD" unicode="&#xbd;" horiz-adv-x="1527" 
d="M1460 143v-143h-532l-10 125q6 4 38 29q32 26 45 36t47 37t51 43t45 44t42 51t38 59t23 92q0 88 -119 88q-94 0 -188 -31v144q102 33 227 33t207 -54t82 -162q0 -110 -54 -193t-196 -198v-2q43 2 168 2h86zM373 655h-197v578l-166 -2v125l363 45v-746zM1307 1389
l-992 -1389h-221l991 1389h222z" />
    <glyph glyph-name="uni00BE" unicode="&#xbe;" horiz-adv-x="1726" 
d="M1630 152v-152h-192v152h-344l-11 137l263 444h190l-246 -436v-2l164 2l25 207h151v-207h78v-145h-78zM315 1098q84 0 84 78q0 84 -103 84t-210 -31v143q102 33 229 33t207 -53t80 -157t-90 -163v-2q100 -51 100 -164t-93 -171t-216 -57t-237 38v145q121 -33 219 -33
q123 0 123 89q0 81 -80 79h-170v142h157zM1481 1389l-992 -1389h-221l992 1389h221z" />
    <glyph glyph-name="questiondown" unicode="&#xbf;" horiz-adv-x="966" 
d="M569 -377q-253 1 -377 105t-124 283t149 289q150 110 350 136l6 131h234l8 -315q-248 -20 -346 -76t-98 -157q0 -100 68 -139q69 -38 219 -38t274 43v-211q-170 -51 -363 -51zM530 764v280h318v-280h-318z" />
    <glyph glyph-name="Agrave" unicode="&#xc0;" horiz-adv-x="1323" 
d="M551 1501l-328 232h322l229 -232h-223zM465 535h383l-96 290q-43 137 -93 310h-6q-49 -172 -92 -310zM1026 0l-106 322h-531l-104 -322h-285l500 1389h323l500 -1389h-297z" />
    <glyph glyph-name="Aacute" unicode="&#xc1;" horiz-adv-x="1323" 
d="M1104 1733l-328 -232h-223l229 232h322zM465 535h383l-96 290q-43 137 -93 310h-6q-49 -172 -92 -310zM1026 0l-106 322h-531l-104 -322h-285l500 1389h323l500 -1389h-297z" />
    <glyph glyph-name="Acircumflex" unicode="&#xc2;" horiz-adv-x="1323" 
d="M541 1739h241l250 -246h-246l-124 117l-125 -117h-244zM465 535h383l-96 290q-43 137 -93 310h-6q-49 -172 -92 -310zM1026 0l-106 322h-531l-104 -322h-285l500 1389h323l500 -1389h-297z" />
    <glyph glyph-name="Atilde" unicode="&#xc3;" horiz-adv-x="1323" 
d="M465 535h383l-96 290q-43 137 -93 310h-6q-49 -172 -92 -310zM811 1696q49 0 113 24t104 56v-181q-36 -29 -100 -55t-126 -24t-153 34q-92 32 -141 31q-100 0 -223 -78v183q39 28 107 54t126 24q60 -2 152 -34q92 -34 141 -34zM1026 0l-106 322h-531l-104 -322h-285
l500 1389h323l500 -1389h-297z" />
    <glyph glyph-name="Adieresis" unicode="&#xc4;" horiz-adv-x="1323" 
d="M1016 1729v-213h-258v213h258zM555 1729v-213h-258v213h258zM465 535h383l-96 290q-43 137 -93 310h-6q-49 -172 -92 -310zM1026 0l-106 322h-531l-104 -322h-285l500 1389h323l500 -1389h-297z" />
    <glyph glyph-name="Aring" unicode="&#xc5;" horiz-adv-x="1323" 
d="M874 1640q0 -164 -212 -164t-211 164q-1 164 211 164t212 -164zM733 1640q-1 66 -71 66t-70 -66q0 -61 70 -61t71 61zM465 535h383l-96 290q-43 137 -93 310h-6q-49 -172 -92 -310zM1026 0l-106 322h-531l-104 -322h-285l500 1389h323l500 -1389h-297z" />
    <glyph glyph-name="AE" unicode="&#xc6;" horiz-adv-x="1966" 
d="M975 535v639h-6q-57 -94 -217 -330l-211 -309h434zM1903 219v-219h-928v322h-580l-225 -322h-334l1006 1389h1046v-220h-631v-352h541v-219h-541v-379h646z" />
    <glyph glyph-name="Ccedilla" unicode="&#xc7;" horiz-adv-x="1181" 
d="M96 706q0 362 154 539q154 176 473 176q221 0 358 -51v-211q-154 41 -309 41q-203 0 -288 -105t-85 -397q0 -387 159 -461q74 -36 234 -36t320 51v-223q-106 -41 -297 -58l-24 -59q125 -43 124 -133q0 -156 -278 -156q-100 0 -195 29v139q98 -31 173 -31t75 41t-86 45
l-12 56l31 71q-260 25 -394 198q-133 173 -133 535z" />
    <glyph glyph-name="Egrave" unicode="&#xc8;" horiz-adv-x="1157" 
d="M573 1501l-327 232h321l230 -232h-224zM1094 219v-219h-928v1389h913v-220h-630v-352h540v-219h-540v-379h645z" />
    <glyph glyph-name="Eacute" unicode="&#xc9;" horiz-adv-x="1157" 
d="M1057 1733l-328 -232h-223l229 232h322zM1094 219v-219h-928v1389h913v-220h-630v-352h540v-219h-540v-379h645z" />
    <glyph glyph-name="Ecircumflex" unicode="&#xca;" horiz-adv-x="1157" 
d="M506 1739h242l249 -246h-245l-125 117l-125 -117h-244zM1094 219v-219h-928v1389h913v-220h-630v-352h540v-219h-540v-379h645z" />
    <glyph glyph-name="Edieresis" unicode="&#xcb;" horiz-adv-x="1157" 
d="M987 1729v-213h-258v213h258zM526 1729v-213h-258v213h258zM1094 219v-219h-928v1389h913v-220h-630v-352h540v-219h-540v-379h645z" />
    <glyph glyph-name="Igrave" unicode="&#xcc;" horiz-adv-x="614" 
d="M449 0h-283v1389h283v-1389zM195 1501l-328 232h321l230 -232h-223z" />
    <glyph glyph-name="Iacute" unicode="&#xcd;" horiz-adv-x="614" 
d="M449 0h-283v1389h283v-1389zM748 1733l-328 -232h-223l229 232h322z" />
    <glyph glyph-name="Icircumflex" unicode="&#xce;" horiz-adv-x="614" 
d="M451 0h-283v1389h283v-1389zM190 1739h242l250 -246h-246l-125 117l-125 -117h-243z" />
    <glyph glyph-name="Idieresis" unicode="&#xcf;" horiz-adv-x="614" 
d="M449 0h-283v1389h283v-1389zM668 1729v-213h-258v213h258zM207 1729v-213h-258v213h258z" />
    <glyph glyph-name="Eth" unicode="&#xd0;" horiz-adv-x="1503" 
d="M518 219h256q152 0 215 62q117 113 117 409t-111 412q-63 68 -219 67h-258v-352h361v-219h-361v-379zM766 0h-530v598h-207v219h207v572h501q354 0 512 -167t158 -538t-174 -539q-152 -145 -467 -145z" />
    <glyph glyph-name="Ntilde" unicode="&#xd1;" horiz-adv-x="1513" 
d="M926 1696q49 0 112 24t105 56v-181q-35 -29 -100 -55t-126 -24t-153 34t-141 31q-100 0 -224 -78v183q39 28 107 54t128 24t151 -34q92 -34 141 -34zM436 434v-434h-270v1389h317l418 -680q111 -172 189 -342h6q-18 369 -19 587v435h271v-1389h-310l-430 684
q-104 160 -184 334h-6q18 -369 18 -584z" />
    <glyph glyph-name="Ograve" unicode="&#xd2;" horiz-adv-x="1470" 
d="M643 1501l-328 232h322l229 -232h-223zM1374 694q0 -367 -143 -547t-495 -180t-496 180q-143 180 -144 547q0 367 144 547t495 180t495 -180t144 -547zM1071 694q0 285 -75 399q-75 113 -261 113t-261 -114t-75 -398t75 -398t261 -114t261 114t75 398z" />
    <glyph glyph-name="Oacute" unicode="&#xd3;" horiz-adv-x="1470" 
d="M1139 1733l-328 -232h-223l229 232h322zM1374 694q0 -367 -143 -547t-495 -180t-496 180q-143 180 -144 547q0 367 144 547t495 180t495 -180t144 -547zM1071 694q0 285 -75 399q-75 113 -261 113t-261 -114t-75 -398t75 -398t261 -114t261 114t75 398z" />
    <glyph glyph-name="Ocircumflex" unicode="&#xd4;" horiz-adv-x="1470" 
d="M1374 694q0 -367 -143 -547t-495 -180t-496 180q-143 180 -144 547q0 367 144 547t495 180t495 -180t144 -547zM1071 694q0 285 -75 399q-75 113 -261 113t-261 -114t-75 -398t75 -398t261 -114t261 114t75 398zM614 1739h242l250 -246h-246l-125 117l-125 -117h-243z
" />
    <glyph glyph-name="Otilde" unicode="&#xd5;" horiz-adv-x="1470" 
d="M891 1696q49 0 113 24t104 56v-181q-36 -29 -100 -55t-126 -24t-153 34q-92 32 -141 31q-100 0 -223 -78v183q39 28 107 54t126 24q60 -2 152 -34q92 -34 141 -34zM1071 694q0 285 -75 399q-75 113 -261 113t-261 -114t-75 -398t75 -398t261 -114t261 114t75 398z
M1374 694q0 -367 -143 -547t-495 -180t-496 180q-143 180 -144 547q0 367 144 547t495 180t495 -180t144 -547z" />
    <glyph glyph-name="Odieresis" unicode="&#xd6;" horiz-adv-x="1470" 
d="M1374 694q0 -367 -143 -547t-495 -180t-496 180q-143 180 -144 547q0 367 144 547t495 180t495 -180t144 -547zM1071 694q0 285 -75 399q-75 113 -261 113t-261 -114t-75 -398t75 -398t261 -114t261 114t75 398zM1092 1729v-213h-258v213h258zM631 1729v-213h-258v213
h258z" />
    <glyph glyph-name="multiply" unicode="&#xd7;" horiz-adv-x="1267" 
d="M805 553l334 -332l-172 -172l-332 334l-336 -336l-170 170l334 336l-334 336l170 170l336 -336l332 334l172 -172z" />
    <glyph glyph-name="Oslash" unicode="&#xd8;" horiz-adv-x="1470" 
d="M735 182q186 0 261 114t75 396q0 283 -72 398l-319 -906q16 -2 55 -2zM735 1206q-186 0 -261 -114t-75 -405q0 -292 82 -402l322 917q-45 4 -68 4zM96 694q0 367 144 547t495 180q55 0 142 -8l51 148h237l-73 -211q283 -143 282 -656q0 -367 -143 -547t-496 -180
q-51 0 -129 8l-53 -151h-234l72 207q-159 77 -227 241t-68 422z" />
    <glyph glyph-name="Ugrave" unicode="&#xd9;" horiz-adv-x="1415" 
d="M627 1501l-328 232h322l229 -232h-223zM418 436q0 -124 64 -188t226 -64q161 0 225 64t64 188v953h283v-918q0 -250 -127 -377t-445 -127t-454 135q-119 119 -119 369v918h283v-953z" />
    <glyph glyph-name="Uacute" unicode="&#xda;" horiz-adv-x="1415" 
d="M1122 1733l-327 -232h-224l230 232h321zM418 436q0 -124 64 -188t226 -64q161 0 225 64t64 188v953h283v-918q0 -250 -127 -377t-445 -127t-454 135q-119 119 -119 369v918h283v-953z" />
    <glyph glyph-name="Ucircumflex" unicode="&#xdb;" horiz-adv-x="1415" 
d="M586 1739h241l250 -246h-246l-124 117l-125 -117h-244zM418 436q0 -124 64 -188t226 -64q161 0 225 64t64 188v953h283v-918q0 -250 -127 -377t-445 -127t-454 135q-119 119 -119 369v918h283v-953z" />
    <glyph glyph-name="Udieresis" unicode="&#xdc;" horiz-adv-x="1415" 
d="M1067 1729v-213h-258v213h258zM606 1729v-213h-258v213h258zM418 436q0 -124 64 -188t226 -64q161 0 225 64t64 188v953h283v-918q0 -250 -127 -377t-445 -127t-454 135q-119 119 -119 369v918h283v-953z" />
    <glyph glyph-name="Yacute" unicode="&#xdd;" horiz-adv-x="1269" 
d="M1059 1733l-328 -232h-223l229 232h322zM770 0h-281v504l-499 885h309l336 -637h6l344 637h295l-510 -883v-506z" />
    <glyph glyph-name="Thorn" unicode="&#xde;" horiz-adv-x="1331" 
d="M449 952v-495h217q93 0 120 1q73 3 109 40q59 58 59 206q0 222 -128 242q-40 6 -136 6h-241zM449 236v-236h-283v1389h283v-218h247q174 -1 276 -25q283 -68 282 -444t-282 -442q-101 -25 -276 -24h-247z" />
    <glyph glyph-name="germandbls" unicode="&#xdf;" horiz-adv-x="1413" 
d="M883 182q215 0 215 117q0 67 -40 91t-130 26q-358 8 -359 299q0 111 72 182q43 43 123 88t100 66t21 61q0 100 -176 100q-283 0 -283 -260v-952h-270v940q0 252 137 367t403 114q215 0 329 -90t114 -218t-88 -208q-33 -29 -97 -65t-89 -61t-25 -59t36 -48t113 -17
q377 -8 377 -333q0 -174 -129 -264t-350 -91q-160 0 -320 53v207q162 -45 316 -45z" />
    <glyph glyph-name="agrave" unicode="&#xe0;" horiz-adv-x="1150" 
d="M500 1157l-328 232h322l229 -232h-223zM592 473q-152 0 -203 -49q-33 -33 -33 -109q0 -77 44 -103t130 -26q147 0 218 103v178q-93 6 -156 6zM748 739q0 57 -10 81q-25 57 -210 58q-184 1 -362 -38v196q156 41 400 41t346 -75q101 -75 102 -275v-727h-187l-34 106h-2
q-51 -59 -135 -94t-181 -35q-209 -1 -301 91t-92 242t80 231q111 109 416 108q82 0 170 -6v96z" />
    <glyph glyph-name="aacute" unicode="&#xe1;" horiz-adv-x="1150" 
d="M965 1389l-328 -232h-223l229 232h322zM592 473q-152 0 -203 -49q-33 -33 -33 -109q0 -77 44 -103t130 -26q147 0 218 103v178q-93 6 -156 6zM748 739q0 57 -10 81q-25 57 -210 58q-184 1 -362 -38v196q156 41 400 41t346 -75q101 -75 102 -275v-727h-187l-34 106h-2
q-51 -59 -135 -94t-181 -35q-209 -1 -301 91t-92 242t80 231q111 109 416 108q82 0 170 -6v96z" />
    <glyph glyph-name="acircumflex" unicode="&#xe2;" horiz-adv-x="1150" 
d="M449 1395h241l250 -246h-246l-125 117l-125 -117h-243zM592 473q-152 0 -203 -49q-33 -33 -33 -109q0 -77 44 -103t130 -26q147 0 218 103v178q-93 6 -156 6zM748 739q0 57 -10 81q-25 57 -210 58q-184 1 -362 -38v196q156 41 400 41t346 -75q101 -75 102 -275v-727h-187
l-34 106h-2q-51 -59 -135 -94t-181 -35q-209 -1 -301 91t-92 242t80 231q111 109 416 108q82 0 170 -6v96z" />
    <glyph glyph-name="atilde" unicode="&#xe3;" horiz-adv-x="1150" 
d="M592 473q-152 0 -203 -49q-33 -33 -33 -109q0 -77 44 -103t130 -26q147 0 218 103v178q-93 6 -156 6zM705 1352q49 0 112 24t105 56v-181q-35 -29 -100 -55t-126 -24q-61 1 -153 33t-142 32q-100 0 -223 -78v182q39 29 107 55t127 24q60 -2 152 -34q92 -34 141 -34z
M748 739q0 57 -10 81q-25 57 -210 58q-184 1 -362 -38v196q156 41 400 41t346 -75q101 -75 102 -275v-727h-187l-34 106h-2q-51 -59 -135 -94t-181 -35q-209 -1 -301 91t-92 242t80 231q111 109 416 108q82 0 170 -6v96z" />
    <glyph glyph-name="adieresis" unicode="&#xe4;" horiz-adv-x="1150" 
d="M922 1384v-213h-258v213h258zM461 1384v-213h-258v213h258zM592 473q-152 0 -203 -49q-33 -33 -33 -109q0 -77 44 -103t130 -26q147 0 218 103v178q-93 6 -156 6zM748 739q0 57 -10 81q-25 57 -210 58q-184 1 -362 -38v196q156 41 400 41t346 -75q101 -75 102 -275v-727
h-187l-34 106h-2q-51 -59 -135 -94t-181 -35q-209 -1 -301 91t-92 242t80 231q111 109 416 108q82 0 170 -6v96z" />
    <glyph glyph-name="aring" unicode="&#xe5;" horiz-adv-x="1150" 
d="M778 1296q0 -164 -212 -164t-212 164t212 164t212 -164zM637 1296q0 66 -71 66t-70 -66q0 -61 70 -61t71 61zM592 473q-152 0 -203 -49q-33 -33 -33 -109q0 -77 44 -103t130 -26q147 0 218 103v178q-93 6 -156 6zM748 739q0 57 -10 81q-25 57 -210 58q-184 1 -362 -38
v196q156 41 400 41t346 -75q101 -75 102 -275v-727h-187l-34 106h-2q-51 -59 -135 -94t-181 -35q-209 -1 -301 91t-92 242t80 231q111 109 416 108q82 0 170 -6v96z" />
    <glyph glyph-name="ae" unicode="&#xe6;" horiz-adv-x="1804" 
d="M1446 690q0 96 -46 142t-152 47q-104 -1 -156 -53t-62 -179h414q2 27 2 43zM592 473q-152 0 -203 -49q-33 -33 -33 -109q0 -77 44 -103t130 -26q150 0 230 113q-16 61 -23 168q-86 6 -145 6zM1024 461q0 -155 67 -221t237 -66t329 41v-195q-180 -53 -379 -53
q-307 0 -434 158q-156 -147 -367 -147t-303 90q-92 92 -92 242t80 231q111 109 416 108q82 0 170 -6v96q0 57 -10 81q-25 57 -210 58q-184 1 -362 -38v196q156 41 385 41q291 0 375 -106q122 106 338 106q438 0 438 -448q0 -86 -10 -168h-668z" />
    <glyph glyph-name="ccedilla" unicode="&#xe7;" horiz-adv-x="1011" 
d="M636 1077q158 0 284 -41v-196q-122 30 -262 30t-208 -68t-67 -274q-1 -207 67 -274q68 -68 212 -68t280 43v-209q-127 -39 -240 -49l-24 -59q125 -43 125 -133q0 -156 -279 -156q-102 0 -194 29v139q96 -31 172 -31t76 41t-86 45l-13 56l31 71q-215 27 -315 161t-101 388
q0 121 22 211t78 173t170 127t272 44z" />
    <glyph glyph-name="egrave" unicode="&#xe8;" horiz-adv-x="1161" 
d="M528 1157l-327 232h321l230 -232h-224zM803 690q-1 96 -47 142t-150 47q-104 -1 -156 -53t-63 -179h414q2 27 2 43zM381 461q1 -155 67 -221t237 -66t329 41v-195q-180 -53 -379 -53q-287 0 -414 135t-127 432t149 421q149 123 371 123q445 -2 445 -449q0 -86 -10 -168
h-668z" />
    <glyph glyph-name="eacute" unicode="&#xe9;" horiz-adv-x="1161" 
d="M997 1389l-327 -232h-224l230 232h321zM803 690q-1 96 -47 142t-150 47q-104 -1 -156 -53t-63 -179h414q2 27 2 43zM381 461q1 -155 67 -221t237 -66t329 41v-195q-180 -53 -379 -53q-287 0 -414 135t-127 432t149 421q149 123 371 123q445 -2 445 -449q0 -86 -10 -168
h-668z" />
    <glyph glyph-name="ecircumflex" unicode="&#xea;" horiz-adv-x="1161" 
d="M475 1395h242l250 -246h-246l-125 117l-125 -117h-244zM803 690q-1 96 -47 142t-150 47q-104 -1 -156 -53t-63 -179h414q2 27 2 43zM381 461q1 -155 67 -221t237 -66t329 41v-195q-180 -53 -379 -53q-287 0 -414 135t-127 432t149 421q149 123 371 123q445 -2 445 -449
q0 -86 -10 -168h-668z" />
    <glyph glyph-name="edieresis" unicode="&#xeb;" horiz-adv-x="1161" 
d="M963 1384v-213h-258v213h258zM502 1384v-213h-258v213h258zM803 690q-1 96 -47 142t-150 47q-104 -1 -156 -53t-63 -179h414q2 27 2 43zM381 461q1 -155 67 -221t237 -66t329 41v-195q-180 -53 -379 -53q-287 0 -414 135t-127 432t149 421q149 123 371 123
q445 -2 445 -449q0 -86 -10 -168h-668z" />
    <glyph glyph-name="igrave" unicode="&#xec;" horiz-adv-x="581" 
d="M180 1157l-327 232h321l229 -232h-223zM426 1047v-1047h-270v1047h270z" />
    <glyph glyph-name="iacute" unicode="&#xed;" horiz-adv-x="581" 
d="M725 1389l-328 -232h-223l229 232h322zM426 1047v-1047h-270v1047h270z" />
    <glyph glyph-name="icircumflex" unicode="&#xee;" horiz-adv-x="581" 
d="M170 1395h242l250 -246h-246l-125 117l-125 -117h-244zM426 1047v-1047h-270v1047h270z" />
    <glyph glyph-name="idieresis" unicode="&#xef;" horiz-adv-x="581" 
d="M649 1384v-213h-258v213h258zM188 1384v-213h-258v213h258zM426 1047v-1047h-270v1047h270z" />
    <glyph glyph-name="eth" unicode="&#xf0;" horiz-adv-x="1257" 
d="M877 502q1 204 -63 268t-183 64t-183 -65t-65 -267q0 -202 82 -283q55 -55 167 -55t163 51q82 83 82 287zM94 524q0 134 42 230t100 147t157 90q98 39 208 39q109 0 175 -26l4 2q-41 92 -145 165l-289 -116l-55 141l186 68l-104 43l205 118q80 -27 141 -57l244 94
l59 -151l-137 -54q279 -242 278 -739q0 -374 -239 -490q-121 -59 -303 -61q-291 0 -417 157q-48 60 -79 164t-31 236z" />
    <glyph glyph-name="ntilde" unicode="&#xf1;" horiz-adv-x="1269" 
d="M807 1352q49 0 113 24t104 56v-181q-36 -29 -100 -55t-126 -24q-62 1 -153 33q-92 32 -141 32q-100 0 -223 -78v182q39 29 107 55t126 24q60 -2 152 -34q92 -34 141 -34zM757 1069q212 0 294 -76t82 -250v-743h-271v694q0 90 -36 125t-118 35t-158 -39t-124 -96v-719
h-270v1044h188l37 -137h4q160 162 372 162z" />
    <glyph glyph-name="ograve" unicode="&#xf2;" horiz-adv-x="1253" 
d="M545 1157l-328 232h322l229 -232h-223zM383 522q0 -225 78 -303q55 -55 166 -55t166 55q78 78 77 303q0 225 -77 303q-55 55 -166 55t-166 -55q-78 -78 -78 -303zM627 -33q-236 0 -384 119q-149 118 -149 436t149 437t385 119q236 -1 383 -119q148 -118 148 -436
q0 -317 -148 -437q-148 -119 -384 -119z" />
    <glyph glyph-name="oacute" unicode="&#xf3;" horiz-adv-x="1253" 
d="M1038 1389l-327 -232h-224l230 232h321zM383 522q0 -225 78 -303q55 -55 166 -55t166 55q78 78 77 303q0 225 -77 303q-55 55 -166 55t-166 -55q-78 -78 -78 -303zM627 -33q-236 0 -384 119q-149 118 -149 436t149 437t385 119q236 -1 383 -119q148 -118 148 -436
q0 -317 -148 -437q-148 -119 -384 -119z" />
    <glyph glyph-name="ocircumflex" unicode="&#xf4;" horiz-adv-x="1253" 
d="M506 1395h242l249 -246h-245l-125 117l-125 -117h-244zM383 522q0 -225 78 -303q55 -55 166 -55t166 55q78 78 77 303q0 225 -77 303q-55 55 -166 55t-166 -55q-78 -78 -78 -303zM627 -33q-236 0 -384 119q-149 118 -149 436t149 437t385 119q236 -1 383 -119
q148 -118 148 -436q0 -317 -148 -437q-148 -119 -384 -119z" />
    <glyph glyph-name="otilde" unicode="&#xf5;" horiz-adv-x="1253" 
d="M782 1352q48 0 112 24t105 56v-181q-35 -29 -99 -55t-126 -24q-62 1 -154 33t-141 32q-100 0 -223 -78v182q38 29 106 55t128 24t151 -34q92 -34 141 -34zM383 522q0 -225 78 -303q55 -55 166 -55t166 55q78 78 77 303q0 225 -77 303q-55 55 -166 55t-166 -55
q-78 -78 -78 -303zM627 -33q-236 0 -384 119q-149 118 -149 436t149 437t385 119q236 -1 383 -119q148 -118 148 -436q0 -317 -148 -437q-148 -119 -384 -119z" />
    <glyph glyph-name="odieresis" unicode="&#xf6;" horiz-adv-x="1253" 
d="M987 1384v-213h-258v213h258zM526 1384v-213h-258v213h258zM383 522q0 -225 78 -303q55 -55 166 -55t166 55q78 78 77 303q0 225 -77 303q-55 55 -166 55t-166 -55q-78 -78 -78 -303zM627 -33q-236 0 -384 119q-149 118 -149 436t149 437t385 119q236 -1 383 -119
q148 -118 148 -436q0 -317 -148 -437q-148 -119 -384 -119z" />
    <glyph glyph-name="divide" unicode="&#xf7;" horiz-adv-x="1286" 
d="M774 287v-232h-262v232h262zM1190 659v-219h-1094v219h1094zM774 1047v-232h-262v232h262z" />
    <glyph glyph-name="oslash" unicode="&#xf8;" horiz-adv-x="1253" 
d="M870 522q0 158 -36 242l-213 -600h6q111 0 166 55q77 78 77 303zM383 550q0 -198 39 -278l215 609h-10q-111 0 -166 -56q-78 -77 -78 -275zM94 522q0 318 149 437t384 118q29 0 78 -4l45 127h237l-65 -182q238 -121 237 -496q0 -316 -148 -436q-148 -119 -384 -119
q-27 0 -76 4l-39 -112h-233l57 164q-242 117 -242 499z" />
    <glyph glyph-name="ugrave" unicode="&#xf9;" horiz-adv-x="1269" 
d="M545 1157l-328 232h322l229 -232h-223zM496 -25q-193 0 -276 81t-83 255v733h271v-694q0 -90 36 -125t117 -35q82 0 159 39t124 97v718h270v-1044h-188l-37 137h-4q-160 -162 -389 -162z" />
    <glyph glyph-name="uacute" unicode="&#xfa;" horiz-adv-x="1269" 
d="M1040 1389l-327 -232h-224l230 232h321zM496 -25q-193 0 -276 81t-83 255v733h271v-694q0 -90 36 -125t117 -35q82 0 159 39t124 97v718h270v-1044h-188l-37 137h-4q-160 -162 -389 -162z" />
    <glyph glyph-name="ucircumflex" unicode="&#xfb;" horiz-adv-x="1269" 
d="M504 1395h241l250 -246h-245l-125 117l-125 -117h-244zM496 -25q-193 0 -276 81t-83 255v733h271v-694q0 -90 36 -125t117 -35q82 0 159 39t124 97v718h270v-1044h-188l-37 137h-4q-160 -162 -389 -162z" />
    <glyph glyph-name="udieresis" unicode="&#xfc;" horiz-adv-x="1269" 
d="M524 1384v-213h-258v213h258zM985 1384v-213h-258v213h258zM496 -25q-193 0 -276 81t-83 255v733h271v-694q0 -90 36 -125t117 -35q82 0 159 39t124 97v718h270v-1044h-188l-37 137h-4q-160 -162 -389 -162z" />
    <glyph glyph-name="yacute" unicode="&#xfd;" horiz-adv-x="1136" 
d="M993 1389l-327 -232h-224l230 232h321zM713 690l137 354h272l-571 -1388h-281l156 379l-416 1009h291l137 -354q70 -182 135 -383h5q61 193 135 383z" />
    <glyph glyph-name="thorn" unicode="&#xfe;" horiz-adv-x="1267" 
d="M692 1069q482 -1 482 -539q0 -272 -138 -413t-370 -142q-147 0 -240 56v-375h-270v1733h270v-420q121 100 266 100zM885 533q1 175 -55 248t-180 73t-224 -121v-479q66 -64 211 -64t197 84q51 84 51 259z" />
    <glyph glyph-name="ydieresis" unicode="&#xff;" horiz-adv-x="1136" 
d="M465 1384v-213h-258v213h258zM926 1384v-213h-258v213h258zM713 690l137 354h272l-571 -1388h-281l156 379l-416 1009h291l137 -354q70 -182 135 -383h5q61 193 135 383z" />
    <glyph glyph-name="Amacron" unicode="&#x100;" horiz-adv-x="1323" 
d="M1026 1733v-185h-737v185h737zM465 535h383l-96 290q-43 137 -93 310h-6q-49 -172 -92 -310zM1026 0l-106 322h-531l-104 -322h-285l500 1389h323l500 -1389h-297z" />
    <glyph glyph-name="amacron" unicode="&#x101;" horiz-adv-x="1150" 
d="M934 1389v-185h-737v185h737zM592 473q-152 0 -203 -49q-33 -33 -33 -109q0 -77 44 -103t130 -26q147 0 218 103v178q-93 6 -156 6zM748 739q0 57 -10 81q-25 57 -210 58q-184 1 -362 -38v196q156 41 400 41t346 -75q101 -75 102 -275v-727h-187l-34 106h-2
q-51 -59 -135 -94t-181 -35q-209 -1 -301 91t-92 242t80 231q111 109 416 108q82 0 170 -6v96z" />
    <glyph glyph-name="Abreve" unicode="&#x102;" horiz-adv-x="1323" 
d="M659 1628q147 0 175 105h213q-41 -260 -387 -260t-388 260h213q27 -105 174 -105zM465 535h383l-96 290q-43 137 -93 310h-6q-49 -172 -92 -310zM1026 0l-106 322h-531l-104 -322h-285l500 1389h323l500 -1389h-297z" />
    <glyph glyph-name="abreve" unicode="&#x103;" horiz-adv-x="1150" 
d="M563 1284q147 0 174 105h213q-41 -261 -387 -261t-387 261h213q27 -105 174 -105zM592 473q-152 0 -203 -49q-33 -33 -33 -109q0 -77 44 -103t130 -26q147 0 218 103v178q-93 6 -156 6zM748 739q0 57 -10 81q-25 57 -210 58q-184 1 -362 -38v196q156 41 400 41t346 -75
q101 -75 102 -275v-727h-187l-34 106h-2q-51 -59 -135 -94t-181 -35q-209 -1 -301 91t-92 242t80 231q111 109 416 108q82 0 170 -6v96z" />
    <glyph glyph-name="Aogonek" unicode="&#x104;" horiz-adv-x="1323" 
d="M1196 -168q0 -63 77 -63t144 22v-139q-73 -29 -185 -29t-171 42t-60 118q0 129 127 217h-102l-106 322h-531l-104 -322h-285l500 1389h323l500 -1389q-127 -68 -127 -168zM465 535h383l-96 290q-43 137 -93 310h-6q-49 -172 -92 -310z" />
    <glyph glyph-name="aogonek" unicode="&#x105;" horiz-adv-x="1150" 
d="M592 473q-152 0 -203 -49q-33 -33 -33 -109q0 -77 44 -103t130 -26q147 0 218 103v178q-93 6 -156 6zM748 739q0 57 -10 81q-25 57 -210 58q-184 1 -362 -38v196q156 41 400 41t346 -75q101 -75 102 -275v-727q-127 -68 -127 -168q0 -63 77 -63t144 22v-139
q-74 -29 -186 -29t-170 42q-60 41 -60 109t37 128t96 102l-32 102h-2q-51 -59 -135 -94t-181 -35q-209 -1 -301 91t-92 242t80 231q111 109 416 108q82 0 170 -6v96z" />
    <glyph glyph-name="Cacute" unicode="&#x106;" horiz-adv-x="1181" 
d="M1067 1733l-328 -232h-223l229 232h322zM96 690q0 379 154 555t473 176q221 0 358 -51v-211q-154 41 -309 41q-203 0 -288 -105t-85 -397q0 -387 159 -461q74 -36 234 -36t320 51v-223q-76 -29 -192 -45t-197 -17q-309 0 -468 172t-159 551z" />
    <glyph glyph-name="cacute" unicode="&#x107;" horiz-adv-x="1011" 
d="M956 1389l-327 -232h-223l229 232h321zM383 528q-1 -206 67 -274t212 -68t280 43v-209q-162 -53 -313 -53q-281 0 -408 135t-127 420q0 121 22 211t78 173q115 171 451 171q150 0 275 -41v-196q-122 30 -262 30t-208 -68t-67 -274z" />
    <glyph glyph-name="Ccircumflex" unicode="&#x108;" horiz-adv-x="1181" 
d="M573 1739h242l250 -246h-246l-125 117l-125 -117h-243zM96 690q0 379 154 555t473 176q221 0 358 -51v-211q-154 41 -309 41q-203 0 -288 -105t-85 -397q0 -387 159 -461q74 -36 234 -36t320 51v-223q-76 -29 -192 -45t-197 -17q-309 0 -468 172t-159 551z" />
    <glyph glyph-name="ccircumflex" unicode="&#x109;" horiz-adv-x="1011" 
d="M457 1395h241l250 -246h-246l-124 117l-125 -117h-244zM383 528q-1 -206 67 -274t212 -68t280 43v-209q-162 -53 -313 -53q-281 0 -408 135t-127 420q0 121 22 211t78 173q115 171 451 171q150 0 275 -41v-196q-122 30 -262 30t-208 -68t-67 -274z" />
    <glyph glyph-name="Cdotaccent" unicode="&#x10a;" horiz-adv-x="1181" 
d="M823 1733v-213h-270v213h270zM96 690q0 379 154 555t473 176q221 0 358 -51v-211q-154 41 -309 41q-203 0 -288 -105t-85 -397q0 -387 159 -461q74 -36 234 -36t320 51v-223q-76 -29 -192 -45t-197 -17q-309 0 -468 172t-159 551z" />
    <glyph glyph-name="cdotaccent" unicode="&#x10b;" horiz-adv-x="1011" 
d="M383 528q-1 -206 67 -274t212 -68t280 43v-209q-162 -53 -313 -53q-281 0 -408 135t-127 420q0 121 22 211t78 173q115 171 451 171q150 0 275 -41v-196q-122 30 -262 30t-208 -68t-67 -274zM698 1389v-213h-270v213h270z" />
    <glyph glyph-name="Ccaron" unicode="&#x10c;" horiz-adv-x="1181" 
d="M803 1493h-242l-248 246h244l125 -117l125 117h246zM96 690q0 379 154 555t473 176q221 0 358 -51v-211q-154 41 -309 41q-203 0 -288 -105t-85 -397q0 -387 159 -461q74 -36 234 -36t320 51v-223q-76 -29 -192 -45t-197 -17q-309 0 -468 172t-159 551z" />
    <glyph glyph-name="ccaron" unicode="&#x10d;" horiz-adv-x="1011" 
d="M676 1149h-242l-248 246h244l125 -117l125 117h246zM383 528q-1 -206 67 -274t212 -68t280 43v-209q-162 -53 -313 -53q-281 0 -408 135t-127 420q0 121 22 211t78 173q115 171 451 171q150 0 275 -41v-196q-122 30 -262 30t-208 -68t-67 -274z" />
    <glyph glyph-name="Dcaron" unicode="&#x10e;" horiz-adv-x="1433" 
d="M782 1493h-241l-248 246h244l125 -117l124 117h246zM696 0h-530v1389h502q354 0 512 -167t158 -538t-175 -539q-152 -145 -467 -145zM449 219h256q152 0 215 62q116 113 116 409t-110 412q-63 68 -219 67h-258v-950z" />
    <glyph glyph-name="dcaron" unicode="&#x10f;" horiz-adv-x="1576" 
d="M1245 991l86 398h264l-200 -398h-150zM631 854q-145 0 -197 -84t-51 -259q0 -175 55 -248q56 -73 180 -73t224 121v480q-66 63 -211 63zM94 514q0 272 137 414t371 141q147 0 240 -55v375h270v-1389h-188l-31 115h-2q-135 -139 -316 -140q-241 0 -361 133
q-120 134 -120 406z" />
    <glyph glyph-name="Dcroat" unicode="&#x110;" horiz-adv-x="1503" 
d="M518 219h256q152 0 215 62q117 113 117 409t-111 412q-63 68 -219 67h-258v-352h361v-219h-361v-379zM766 0h-530v598h-207v219h207v572h501q354 0 512 -167t158 -538t-174 -539q-152 -145 -467 -145z" />
    <glyph glyph-name="dcroat" unicode="&#x111;" horiz-adv-x="1267" 
d="M631 854q-145 0 -197 -84t-51 -259q0 -175 55 -248q56 -73 180 -73t224 121v480q-66 63 -211 63zM575 -25q-481 0 -481 539q0 272 137 414t371 141q147 0 240 -55v108h-250v168h250v99h270v-99h205v-168h-205v-1122h-188l-31 115h-2q-135 -139 -316 -140z" />
    <glyph glyph-name="Emacron" unicode="&#x112;" horiz-adv-x="1157" 
d="M1001 1733v-185h-737v185h737zM1094 219v-219h-928v1389h913v-220h-630v-352h540v-219h-540v-379h645z" />
    <glyph glyph-name="emacron" unicode="&#x113;" horiz-adv-x="1161" 
d="M965 1389v-185h-738v185h738zM803 690q-1 96 -47 142t-150 47q-104 -1 -156 -53t-63 -179h414q2 27 2 43zM381 461q1 -155 67 -221t237 -66t329 41v-195q-180 -53 -379 -53q-287 0 -414 135t-127 432t149 421q149 123 371 123q445 -2 445 -449q0 -86 -10 -168h-668z" />
    <glyph glyph-name="Ebreve" unicode="&#x114;" horiz-adv-x="1157" 
d="M625 1628q147 0 174 105h213q-41 -260 -387 -260t-387 260h213q27 -105 174 -105zM1094 219v-219h-928v1389h913v-220h-630v-352h540v-219h-540v-379h645z" />
    <glyph glyph-name="ebreve" unicode="&#x115;" horiz-adv-x="1161" 
d="M803 690q-1 96 -47 142t-150 47q-104 -1 -156 -53t-63 -179h414q2 27 2 43zM381 461q1 -155 67 -221t237 -66t329 41v-195q-180 -53 -379 -53q-287 0 -414 135t-127 432t149 421q149 123 371 123q445 -2 445 -449q0 -86 -10 -168h-668zM600 1284q147 0 174 105h213
q-41 -261 -387 -261t-387 261h213q27 -105 174 -105z" />
    <glyph glyph-name="Edotaccent" unicode="&#x116;" horiz-adv-x="1157" 
d="M788 1733v-213h-270v213h270zM1094 219v-219h-928v1389h913v-220h-630v-352h540v-219h-540v-379h645z" />
    <glyph glyph-name="edotaccent" unicode="&#x117;" horiz-adv-x="1161" 
d="M743 1389v-213h-270v213h270zM803 690q-1 96 -47 142t-150 47q-104 -1 -156 -53t-63 -179h414q2 27 2 43zM381 461q1 -155 67 -221t237 -66t329 41v-195q-180 -53 -379 -53q-287 0 -414 135t-127 432t149 421q149 123 371 123q445 -2 445 -449q0 -86 -10 -168h-668z" />
    <glyph glyph-name="Eogonek" unicode="&#x118;" horiz-adv-x="1157" 
d="M967 -168q0 -63 77 -63t144 22v-139q-74 -29 -186 -29t-171 42t-59 118q0 129 127 217h-733v1389h913v-220h-630v-352h540v-219h-540v-379h645v-219q-127 -68 -127 -168z" />
    <glyph glyph-name="eogonek" unicode="&#x119;" horiz-adv-x="1161" 
d="M803 690q-1 96 -47 142t-150 47q-104 -1 -156 -53t-63 -179h414q2 27 2 43zM898 -377q-230 0 -230 173q0 89 94 177q-68 -6 -127 -6q-287 0 -414 135t-127 432t149 421q149 123 371 123q445 -2 445 -449q0 -86 -10 -168h-668q1 -155 67 -221t237 -66t329 41v-195
q-152 -78 -152 -188q0 -63 77 -63t144 22v-139q-73 -29 -185 -29z" />
    <glyph glyph-name="Ecaron" unicode="&#x11a;" horiz-adv-x="1157" 
d="M750 1493h-242l-248 246h244l125 -117l125 117h245zM1094 219v-219h-928v1389h913v-220h-630v-352h540v-219h-540v-379h645z" />
    <glyph glyph-name="ecaron" unicode="&#x11b;" horiz-adv-x="1161" 
d="M717 1149h-242l-248 246h244l125 -117l125 117h246zM803 690q-1 96 -47 142t-150 47q-104 -1 -156 -53t-63 -179h414q2 27 2 43zM381 461q1 -155 67 -221t237 -66t329 41v-195q-180 -53 -379 -53q-287 0 -414 135t-127 432t149 421q149 123 371 123q445 -2 445 -449
q0 -86 -10 -168h-668z" />
    <glyph glyph-name="Gcircumflex" unicode="&#x11c;" horiz-adv-x="1413" 
d="M618 1739h242l250 -246h-246l-125 117l-125 -117h-243zM707 598v219h575v-749q-100 -51 -253 -76t-277 -25q-334 0 -495 170t-161 557t170 557t525 170q233 0 401 -51v-211q-154 41 -334 41t-272 -39q-187 -79 -187 -428t104 -457q52 -53 114 -73q63 -21 185 -21t197 23
v393h-292z" />
    <glyph glyph-name="gcircumflex" unicode="&#x11d;" horiz-adv-x="1253" 
d="M492 1395h241l250 -246h-246l-125 117l-125 -117h-243zM615 860q-134 0 -183 -75t-49 -231t54 -220q54 -66 171 -66q62 0 124 38t95 85v391q-78 78 -212 78zM1098 1044v-976q0 -444 -525 -445q-246 0 -395 53v209q168 -47 348 -47t240 56q61 56 61 155v103h-4
q-113 -98 -274 -99q-229 0 -342 125t-113 383q0 508 506 508q164 0 289 -96h4l33 71h172z" />
    <glyph glyph-name="Gbreve" unicode="&#x11e;" horiz-adv-x="1413" 
d="M725 1628q147 0 174 105h213q-41 -260 -387 -260t-387 260h213q27 -105 174 -105zM707 598v219h575v-749q-100 -51 -253 -76t-277 -25q-334 0 -495 170t-161 557t170 557t525 170q233 0 401 -51v-211q-154 41 -334 41t-272 -39q-187 -79 -187 -428t104 -457
q52 -53 114 -73q63 -21 185 -21t197 23v393h-292z" />
    <glyph glyph-name="gbreve" unicode="&#x11f;" horiz-adv-x="1253" 
d="M598 1284q147 0 174 105h213q-41 -261 -387 -261t-387 261h213q27 -105 174 -105zM615 860q-134 0 -183 -75t-49 -231t54 -220q54 -66 171 -66q62 0 124 38t95 85v391q-78 78 -212 78zM1098 1044v-976q0 -444 -525 -445q-246 0 -395 53v209q168 -47 348 -47t240 56
q61 56 61 155v103h-4q-113 -98 -274 -99q-229 0 -342 125t-113 383q0 508 506 508q164 0 289 -96h4l33 71h172z" />
    <glyph glyph-name="Gdotaccent" unicode="&#x120;" horiz-adv-x="1413" 
d="M870 1733v-213h-270v213h270zM707 598v219h575v-749q-100 -51 -253 -76t-277 -25q-334 0 -495 170t-161 557t170 557t525 170q233 0 401 -51v-211q-154 41 -334 41t-272 -39q-187 -79 -187 -428t104 -457q52 -53 114 -73q63 -21 185 -21t197 23v393h-292z" />
    <glyph glyph-name="gdotaccent" unicode="&#x121;" horiz-adv-x="1253" 
d="M741 1389v-213h-270v213h270zM615 860q-134 0 -183 -75t-49 -231t54 -220q54 -66 171 -66q62 0 124 38t95 85v391q-78 78 -212 78zM1098 1044v-976q0 -444 -525 -445q-246 0 -395 53v209q168 -47 348 -47t240 56q61 56 61 155v103h-4q-113 -98 -274 -99q-229 0 -342 125
t-113 383q0 508 506 508q164 0 289 -96h4l33 71h172z" />
    <glyph glyph-name="Gcommaaccent" unicode="&#x122;" horiz-adv-x="1413" 
d="M563 -549l86 397h264l-200 -397h-150zM707 598v219h575v-749q-100 -51 -253 -76t-277 -25q-334 0 -495 170t-161 557t170 557t525 170q233 0 401 -51v-211q-154 41 -334 41t-272 -39q-187 -79 -187 -428t104 -457q52 -53 114 -73q63 -21 185 -21t197 23v393h-292z" />
    <glyph glyph-name="gcommaaccent" unicode="&#x123;" horiz-adv-x="1253" 
d="M569 1153l86 397h265l-201 -397h-150zM615 860q-134 0 -183 -75t-49 -231t54 -220q54 -66 171 -66q62 0 124 38t95 85v391q-78 78 -212 78zM1098 1044v-976q0 -444 -525 -445q-246 0 -395 53v209q168 -47 348 -47t240 56q61 56 61 155v103h-4q-113 -98 -274 -99
q-229 0 -342 125t-113 383q0 508 506 508q164 0 289 -96h4l33 71h172z" />
    <glyph glyph-name="Hcircumflex" unicode="&#x124;" horiz-adv-x="1474" 
d="M614 1739h242l250 -246h-246l-125 117l-125 -117h-243zM449 0h-283v1389h283v-572h577v572h283v-1389h-283v598h-577v-598z" />
    <glyph glyph-name="hcircumflex" unicode="&#x125;" horiz-adv-x="1269" 
d="M170 1741h242l250 -246h-246l-125 117l-125 -117h-244zM156 0v1389h270v-441h4q150 121 344 121t277 -76q82 -76 82 -250v-743h-271v694q0 90 -36 125t-118 35t-158 -39t-124 -96v-719h-270z" />
    <glyph glyph-name="Hbar" unicode="&#x126;" horiz-adv-x="1474" 
d="M1026 817v139h-577v-139h577zM449 1389v-213h577v213h283v-1389h-283v598h-577v-598h-283v1389h283z" />
    <glyph glyph-name="hbar" unicode="&#x127;" horiz-adv-x="1269" 
d="M676 1290v-168h-250v-174h4q150 121 344 121t277 -76q82 -76 82 -250v-743h-271v694q0 90 -36 125t-118 35t-158 -39t-124 -96v-719h-270v1122h-205v168h205v99h270v-99h250z" />
    <glyph glyph-name="Itilde" unicode="&#x128;" horiz-adv-x="614" 
d="M469 1696q49 0 113 24t104 56v-181q-36 -29 -100 -55t-126 -24t-153 34q-92 32 -141 31q-100 0 -223 -78v183q39 28 107 54t126 24q60 -2 152 -34q92 -34 141 -34zM451 0h-283v1389h283v-1389z" />
    <glyph glyph-name="itilde" unicode="&#x129;" horiz-adv-x="581" 
d="M447 1352q49 0 112 24t105 56v-181q-35 -29 -100 -55q-64 -26 -126 -24q-62 1 -154 33t-141 32q-100 0 -223 -78v182q39 29 107 55t127 24q60 -2 152 -34q92 -34 141 -34zM426 1047v-1047h-270v1047h270z" />
    <glyph glyph-name="Imacron" unicode="&#x12a;" horiz-adv-x="614" 
d="M449 0h-283v1389h283v-1389zM676 1733v-185h-737v185h737z" />
    <glyph glyph-name="imacron" unicode="&#x12b;" horiz-adv-x="581" 
d="M659 1389v-185h-737v185h737zM426 1047v-1047h-270v1047h270z" />
    <glyph glyph-name="Ibreve" unicode="&#x12c;" horiz-adv-x="614" 
d="M446 0h-282v1389h282v-1389zM307 1628q147 0 174 105h213q-41 -260 -387 -260t-387 260h213q27 -105 174 -105z" />
    <glyph glyph-name="ibreve" unicode="&#x12d;" horiz-adv-x="581" 
d="M291 1284q147 0 174 105h213q-41 -261 -387 -261t-387 261h213q27 -105 174 -105zM426 1047v-1047h-270v1047h270z" />
    <glyph glyph-name="Iogonek" unicode="&#x12e;" horiz-adv-x="614" 
d="M326 -168q0 -63 77 -63t144 22v-139q-74 -29 -186 -29t-171 42t-59 118q0 129 127 217h-88v1389h283v-1389q-127 -68 -127 -168z" />
    <glyph glyph-name="iogonek" unicode="&#x12f;" horiz-adv-x="581" 
d="M444 1389v-222h-303v222h303zM301 -168q0 -63 77 -63t144 22v-139q-74 -29 -186 -29t-170 42q-59 42 -60 118q0 129 127 217h-75v1044h270v-1044q-127 -68 -127 -168z" />
    <glyph glyph-name="Idotaccent" unicode="&#x130;" horiz-adv-x="614" 
d="M451 0h-283v1389h283v-1389zM442 1733v-213h-270v213h270z" />
    <glyph glyph-name="dotlessi" unicode="&#x131;" horiz-adv-x="581" 
d="M426 1047v-1047h-270v1047h270z" />
    <glyph glyph-name="IJ" unicode="&#x132;" horiz-adv-x="1245" 
d="M797 338v1051h282v-979q0 -223 -37 -370t-135 -282h-266q156 260 156 580zM449 0h-283v1389h283v-1389z" />
    <glyph glyph-name="ij" unicode="&#x133;" horiz-adv-x="1173" 
d="M1034 1389v-222h-303v222h303zM748 123v921h270v-710q0 -145 -2 -214q-6 -212 -57 -327q-29 -67 -80 -137h-248q117 199 117 467zM442 1389v-222h-303v222h303zM426 1044v-1044h-270v1044h270z" />
    <glyph glyph-name="Jcircumflex" unicode="&#x134;" horiz-adv-x="630" 
d="M182 1389h283v-979q0 -223 -37 -370t-135 -282h-266q156 260 155 580v1051zM203 1739h241l250 -246h-245l-125 117l-125 -117h-244z" />
    <glyph glyph-name="jcircumflex" unicode="&#x135;" horiz-adv-x="591" 
d="M180 1395h242l250 -246h-246l-125 117l-125 -117h-244zM166 123v921h270v-710q0 -251 -14 -362q-14 -110 -44 -178t-81 -138h-248q117 199 117 467z" />
    <glyph glyph-name="Kcommaaccent" unicode="&#x136;" horiz-adv-x="1308" 
d="M489 -549l86 397h265l-201 -397h-150zM449 598v-598h-283v1389h283v-572h153l375 572h297l-428 -656l473 -733h-320l-391 598h-159z" />
    <glyph glyph-name="kcommaaccent" unicode="&#x137;" horiz-adv-x="1165" 
d="M408 -549l86 397h264l-201 -397h-149zM426 449v-449h-270v1389h270v-738h121l262 393h297l-332 -481l385 -563h-315l-297 449h-121z" />
    <glyph glyph-name="kgreenlandic" unicode="&#x138;" horiz-adv-x="1165" 
d="M156 1044h270v-393h121l262 393h297l-332 -481l385 -563h-315l-297 449h-121v-449h-270v1044z" />
    <glyph glyph-name="Lacute" unicode="&#x139;" horiz-adv-x="1099" 
d="M743 1733l-327 -232h-223l229 232h321zM1094 219v-219h-928v1389h283v-1170h645z" />
    <glyph glyph-name="lacute" unicode="&#x13a;" horiz-adv-x="581" 
d="M727 1733l-328 -232h-223l230 232h321zM426 1389v-1389h-270v1389h270z" />
    <glyph glyph-name="Lcommaaccent" unicode="&#x13b;" horiz-adv-x="1099" 
d="M412 -549l86 397h264l-201 -397h-149zM1094 219v-219h-928v1389h283v-1170h645z" />
    <glyph glyph-name="lcommaaccent" unicode="&#x13c;" horiz-adv-x="581" 
d="M74 -549l86 397h264l-201 -397h-149zM426 1389v-1389h-270v1389h270z" />
    <glyph glyph-name="Lcaron" unicode="&#x13d;" horiz-adv-x="1222" 
d="M692 991l86 398h264l-200 -398h-150zM1094 219v-219h-928v1389h283v-1170h645z" />
    <glyph glyph-name="lcaron" unicode="&#x13e;" horiz-adv-x="890" 
d="M559 991l86 398h264l-200 -398h-150zM426 1389v-1389h-270v1389h270z" />
    <glyph glyph-name="Ldot" unicode="&#x13f;" horiz-adv-x="1099" 
d="M995 819v-223h-254v223h254zM1094 219v-219h-928v1389h283v-1170h645z" />
    <glyph glyph-name="ldot" unicode="&#x140;" horiz-adv-x="894" 
d="M850 819v-223h-254v223h254zM426 1389v-1389h-270v1389h270z" />
    <glyph glyph-name="Lslash" unicode="&#x141;" horiz-adv-x="1153" 
d="M502 219h645v-219h-928v451l-213 -138v254l213 138v684h283v-504l403 260v-252l-403 -260v-414z" />
    <glyph glyph-name="lslash" unicode="&#x142;" horiz-adv-x="729" 
d="M500 1389v-467l217 141v-252l-217 -141v-670h-271v494l-217 -140v254l217 140v641h271z" />
    <glyph glyph-name="Nacute" unicode="&#x143;" horiz-adv-x="1513" 
d="M1184 1733l-328 -232h-223l229 232h322zM436 434v-434h-270v1389h317l418 -680q111 -172 189 -342h6q-18 369 -19 587v435h271v-1389h-310l-430 684q-104 160 -184 334h-6q18 -369 18 -584z" />
    <glyph glyph-name="nacute" unicode="&#x144;" horiz-adv-x="1269" 
d="M1075 1389l-327 -232h-224l230 232h321zM757 1069q212 0 294 -76t82 -250v-743h-271v694q0 90 -36 125t-118 35t-158 -39t-124 -96v-719h-270v1044h188l37 -137h4q160 162 372 162z" />
    <glyph glyph-name="Ncommaaccent" unicode="&#x145;" horiz-adv-x="1513" 
d="M528 -549l86 397h265l-201 -397h-150zM436 434v-434h-270v1389h317l418 -680q111 -172 189 -342h6q-18 369 -19 587v435h271v-1389h-310l-430 684q-104 160 -184 334h-6q18 -369 18 -584z" />
    <glyph glyph-name="ncommaaccent" unicode="&#x146;" horiz-adv-x="1269" 
d="M436 -549l86 397h264l-200 -397h-150zM757 1069q212 0 294 -76t82 -250v-743h-271v694q0 90 -36 125t-118 35t-158 -39t-124 -96v-719h-270v1044h188l37 -137h4q160 162 372 162z" />
    <glyph glyph-name="Ncaron" unicode="&#x147;" horiz-adv-x="1513" 
d="M899 1493h-242l-247 246h243l125 -117l125 117h246zM436 434v-434h-270v1389h317l418 -680q111 -172 189 -342h6q-18 369 -19 587v435h271v-1389h-310l-430 684q-104 160 -184 334h-6q18 -369 18 -584z" />
    <glyph glyph-name="ncaron" unicode="&#x148;" horiz-adv-x="1269" 
d="M776 1149h-241l-248 246h243l125 -117l125 117h246zM757 1069q212 0 294 -76t82 -250v-743h-271v694q0 90 -36 125t-118 35t-158 -39t-124 -96v-719h-270v1044h188l37 -137h4q160 162 372 162z" />
    <glyph glyph-name="Eng" unicode="&#x14a;" horiz-adv-x="1513" 
d="M436 434v-434h-270v1389h315l420 -680q131 -213 186 -324h7q-16 328 -17 569v435h271v-1082q0 -223 -37 -369t-135 -282h-267q98 160 133 342l-434 686q-100 156 -182 324h-6q16 -328 16 -574z" />
    <glyph glyph-name="eng" unicode="&#x14b;" horiz-adv-x="1269" 
d="M757 1069q212 0 294 -76t82 -250v-663q0 -242 -138 -424h-260q127 199 127 424v614q0 90 -36 125t-118 35t-158 -39t-124 -96v-719h-270v1044h188l37 -137h4q160 162 372 162z" />
    <glyph glyph-name="Omacron" unicode="&#x14c;" horiz-adv-x="1470" 
d="M1104 1733v-185h-737v185h737zM1374 694q0 -367 -143 -547t-495 -180t-496 180q-143 180 -144 547q0 367 144 547t495 180t495 -180t144 -547zM1071 694q0 285 -75 399q-75 113 -261 113t-261 -114t-75 -398t75 -398t261 -114t261 114t75 398z" />
    <glyph glyph-name="omacron" unicode="&#x14d;" horiz-adv-x="1253" 
d="M995 1389v-185h-737v185h737zM383 522q0 -225 78 -303q55 -55 166 -55t166 55q78 78 77 303q0 225 -77 303q-55 55 -166 55t-166 -55q-78 -78 -78 -303zM627 -33q-236 0 -384 119q-149 118 -149 436t149 437t385 119q236 -1 383 -119q148 -118 148 -436q0 -317 -148 -437
q-148 -119 -384 -119z" />
    <glyph glyph-name="Obreve" unicode="&#x14e;" horiz-adv-x="1470" 
d="M735 1628q147 0 174 105h213q-41 -260 -387 -260t-387 260h213q27 -105 174 -105zM1374 694q0 -367 -143 -547t-495 -180t-496 180q-143 180 -144 547q0 367 144 547t495 180t495 -180t144 -547zM1071 694q0 285 -75 399q-75 113 -261 113t-261 -114t-75 -398t75 -398
t261 -114t261 114t75 398z" />
    <glyph glyph-name="obreve" unicode="&#x14f;" horiz-adv-x="1253" 
d="M627 1284q147 0 174 105h213q-41 -261 -387 -261t-387 261h213q27 -105 174 -105zM383 522q0 -225 78 -303q55 -55 166 -55t166 55q78 78 77 303q0 225 -77 303q-55 55 -166 55t-166 -55q-78 -78 -78 -303zM627 -33q-236 0 -384 119q-149 118 -149 436t149 437t385 119
q236 -1 383 -119q148 -118 148 -436q0 -317 -148 -437q-148 -119 -384 -119z" />
    <glyph glyph-name="Ohungarumlaut" unicode="&#x150;" horiz-adv-x="1470" 
d="M1309 1733l-324 -236h-194l225 236h293zM926 1733l-324 -236h-194l225 236h293zM1374 694q0 -367 -143 -547t-495 -180t-496 180q-143 180 -144 547q0 367 144 547t495 180t495 -180t144 -547zM1071 694q0 285 -75 399q-75 113 -261 113t-261 -114t-75 -398t75 -398
t261 -114t261 114t75 398z" />
    <glyph glyph-name="ohungarumlaut" unicode="&#x151;" horiz-adv-x="1253" 
d="M1208 1389l-323 -236h-195l225 236h293zM825 1389l-323 -236h-195l225 236h293zM383 522q0 -225 78 -303q55 -55 166 -55t166 55q78 78 77 303q0 225 -77 303q-55 55 -166 55t-166 -55q-78 -78 -78 -303zM627 -33q-236 0 -384 119q-149 118 -149 436t149 437t385 119
q236 -1 383 -119q148 -118 148 -436q0 -317 -148 -437q-148 -119 -384 -119z" />
    <glyph glyph-name="OE" unicode="&#x152;" horiz-adv-x="2080" 
d="M1071 694q0 285 -75 399q-75 113 -261 113t-261 -114t-75 -398t75 -398t261 -114t261 114t75 398zM2017 219v-219h-925v59h-5q-115 -92 -352 -92q-352 0 -495 180t-144 547q0 367 144 547t495 180q240 0 352 -94h5v62h911v-220h-631v-352h541v-219h-541v-379h645z" />
    <glyph glyph-name="oe" unicode="&#x153;" horiz-adv-x="1939" 
d="M1581 690q0 96 -46 142q-47 46 -151 47q-104 -1 -156 -53t-63 -179h414q2 27 2 43zM383 522q0 -225 78 -303q55 -55 166 -55t166 55q78 78 77 303q0 225 -77 303q-55 55 -166 55t-166 -55q-78 -78 -78 -303zM1159 461q0 -155 67 -221q68 -66 238 -66t328 41v-195
q-180 -53 -379 -53q-276 0 -401 127q-125 -127 -373 -127t-396 119q-149 118 -149 436t149 437t399 119q249 -1 374 -134q127 133 363 133q236 1 347 -111t111 -337q0 -86 -10 -168h-668z" />
    <glyph glyph-name="Racute" unicode="&#x154;" horiz-adv-x="1339" 
d="M1047 1733l-328 -232h-223l229 232h322zM698 1169h-249v-424h253q111 1 127 5q15 4 33 9t35 23q59 59 59 175t-59 176q-32 32 -109 35q-24 1 -90 1zM449 0h-283v1389h559q162 0 256 -22q268 -63 266 -411q0 -215 -108 -323q-80 -78 -195 -101l350 -532h-323l-340 526
h-182v-526z" />
    <glyph glyph-name="racute" unicode="&#x155;" horiz-adv-x="817" 
d="M895 1389l-328 -232h-223l229 232h322zM662 1067q98 0 147 -31v-205q-55 19 -138 19q-150 1 -245 -164v-686h-270v1044h188l39 -147h2q100 170 277 170z" />
    <glyph glyph-name="Rcommaaccent" unicode="&#x156;" horiz-adv-x="1339" 
d="M487 -549l86 397h265l-201 -397h-150zM698 1169h-249v-424h253q111 1 127 5q15 4 33 9t35 23q59 59 59 175t-59 176q-32 32 -109 35q-24 1 -90 1zM449 0h-283v1389h559q162 0 256 -22q268 -63 266 -411q0 -215 -108 -323q-80 -78 -195 -101l350 -532h-323l-340 526h-182
v-526z" />
    <glyph glyph-name="rcommaaccent" unicode="&#x157;" horiz-adv-x="817" 
d="M76 -549l86 397h264l-201 -397h-149zM662 1067q98 0 147 -31v-205q-55 19 -138 19q-150 1 -245 -164v-686h-270v1044h188l39 -147h2q100 170 277 170z" />
    <glyph glyph-name="Rcaron" unicode="&#x158;" horiz-adv-x="1339" 
d="M780 1493h-241l-248 246h244l124 -117l125 117h246zM698 1169h-249v-424h253q111 1 127 5q15 4 33 9t35 23q59 59 59 175t-59 176q-32 32 -109 35q-24 1 -90 1zM449 0h-283v1389h559q162 0 256 -22q268 -63 266 -411q0 -215 -108 -323q-80 -78 -195 -101l350 -532h-323
l-340 526h-182v-526z" />
    <glyph glyph-name="rcaron" unicode="&#x159;" horiz-adv-x="817" 
d="M604 1149h-242l-247 246h243l125 -117l125 117h246zM662 1067q98 0 147 -31v-205q-55 19 -138 19q-150 1 -245 -164v-686h-270v1044h188l39 -147h2q100 170 277 170z" />
    <glyph glyph-name="Sacute" unicode="&#x15a;" horiz-adv-x="1255" 
d="M1044 1733l-327 -232h-223l229 232h321zM565 201q330 0 330 196q0 113 -67 147t-208 41t-221 26q-79 19 -149 63q-142 89 -142 314q2 433 584 433q221 0 373 -51v-211q-176 41 -367 41q-301 0 -301 -176q0 -86 42 -126t153 -46q35 -2 126 -6q340 -15 429 -220
q37 -85 37 -208q0 -223 -165 -337t-429 -114t-453 62v223q190 -51 428 -51z" />
    <glyph glyph-name="sacute" unicode="&#x15b;" horiz-adv-x="1048" 
d="M952 1389l-327 -232h-224l230 232h321zM358 766q0 -92 99 -105q45 -6 122 -7q160 -2 273 -61q135 -70 135 -257q0 -188 -140 -278t-382 -91q-180 0 -359 53v207q183 -45 355 -45q258 0 258 117q0 71 -50 93q-51 22 -157 24t-174 15t-127 48q-123 73 -123 256t129 263
t341 79q212 0 335 -41v-196q-143 35 -322 34q-213 0 -213 -108z" />
    <glyph glyph-name="Scircumflex" unicode="&#x15c;" horiz-adv-x="1255" 
d="M506 1739h242l249 -246h-245l-125 117l-125 -117h-244zM565 201q330 0 330 196q0 113 -67 147t-208 41t-221 26q-79 19 -149 63q-142 89 -142 314q2 433 584 433q221 0 373 -51v-211q-176 41 -367 41q-301 0 -301 -176q0 -86 42 -126t153 -46q35 -2 126 -6
q340 -15 429 -220q37 -85 37 -208q0 -223 -165 -337t-429 -114t-453 62v223q190 -51 428 -51z" />
    <glyph glyph-name="scircumflex" unicode="&#x15d;" horiz-adv-x="1048" 
d="M399 1395h242l250 -246h-246l-125 117l-125 -117h-243zM358 766q0 -92 99 -105q45 -6 122 -7q160 -2 273 -61q135 -70 135 -257q0 -188 -140 -278t-382 -91q-180 0 -359 53v207q183 -45 355 -45q258 0 258 117q0 71 -50 93q-51 22 -157 24t-174 15t-127 48
q-123 73 -123 256t129 263t341 79q212 0 335 -41v-196q-143 35 -322 34q-213 0 -213 -108z" />
    <glyph glyph-name="Scedilla" unicode="&#x15e;" horiz-adv-x="1255" 
d="M565 201q330 0 330 196q0 113 -67 147t-208 41t-221 26q-79 19 -149 63q-142 89 -142 314q2 433 584 433q221 0 373 -51v-211q-176 41 -367 41q-301 0 -301 -176q0 -86 42 -126t153 -46q35 -2 126 -6q340 -15 429 -220q37 -85 37 -208q0 -186 -116 -297t-320 -141
l-29 -68q125 -43 125 -133q0 -156 -279 -156q-102 0 -194 29v139q99 -31 173 -31t74 41t-86 45l-12 56l29 65q-242 6 -412 62v223q190 -51 428 -51z" />
    <glyph glyph-name="scedilla" unicode="&#x15f;" horiz-adv-x="1048" 
d="M358 766q0 -92 99 -105q45 -6 122 -7q160 -2 273 -61q135 -70 135 -271q0 -136 -88 -222t-246 -116l-28 -72q125 -43 125 -133q0 -156 -279 -156q-102 0 -195 29v139q96 -31 172 -31t76 41t-86 45l-12 56l29 65q-188 6 -349 53v207q182 -45 355 -45q258 0 258 117
q0 71 -50 93q-51 22 -157 24t-174 15t-127 48q-123 73 -123 256t129 263t341 79q212 0 335 -41v-196q-143 35 -322 34q-213 0 -213 -108z" />
    <glyph glyph-name="Scaron" unicode="&#x160;" horiz-adv-x="1255" 
d="M750 1493h-242l-248 246h244l125 -117l125 117h245zM565 201q330 0 330 196q0 113 -67 147t-208 41t-221 26q-79 19 -149 63q-142 89 -142 314q2 433 584 433q221 0 373 -51v-211q-176 41 -367 41q-301 0 -301 -176q0 -86 42 -126t153 -46q35 -2 126 -6q340 -15 429 -220
q37 -85 37 -208q0 -223 -165 -337t-429 -114t-453 62v223q190 -51 428 -51z" />
    <glyph glyph-name="scaron" unicode="&#x161;" horiz-adv-x="1048" 
d="M637 1149h-242l-248 246h244l125 -117l125 117h246zM358 766q0 -92 99 -105q45 -6 122 -7q160 -2 273 -61q135 -70 135 -257q0 -188 -140 -278t-382 -91q-180 0 -359 53v207q183 -45 355 -45q258 0 258 117q0 71 -50 93q-51 22 -157 24t-174 15t-127 48q-123 73 -123 256
t129 263t341 79q212 0 335 -41v-196q-143 35 -322 34q-213 0 -213 -108z" />
    <glyph glyph-name="Tcommaaccent" unicode="&#x162;" horiz-adv-x="1085" 
d="M328 -549l86 397h264l-201 -397h-149zM684 1169v-1169h-283v1169h-389v220h1061v-220h-389z" />
    <glyph glyph-name="tcommaaccent" unicode="&#x163;" horiz-adv-x="860" 
d="M285 -549l86 397h264l-201 -397h-149zM213 350v498h-170v174l195 25l67 231h180v-234h322v-196h-324v-492q0 -104 33 -134t122 -30t173 23v-195q-102 -40 -279 -40t-248 78t-71 292z" />
    <glyph glyph-name="Tcaron" unicode="&#x164;" horiz-adv-x="1085" 
d="M664 1493h-242l-248 246h244l125 -117l125 117h245zM684 1169v-1169h-283v1169h-389v220h1061v-220h-389z" />
    <glyph glyph-name="tcaron" unicode="&#x165;" horiz-adv-x="860" 
d="M618 1153l87 397h264l-201 -397h-150zM213 350v498h-170v174l195 25l67 231h180v-234h322v-196h-324v-492q0 -104 33 -134t122 -30t173 23v-195q-102 -40 -279 -40t-248 78t-71 292z" />
    <glyph glyph-name="Tbar" unicode="&#x166;" horiz-adv-x="1085" 
d="M965 817v-219h-281v-598h-283v598h-286v219h286v352h-389v220h1061v-220h-389v-352h281z" />
    <glyph glyph-name="tbar" unicode="&#x167;" horiz-adv-x="860" 
d="M213 350v115h-125v168h125v215h-170v174l195 25l67 231h180v-234h322v-196h-324v-215h250v-168h-250v-109q0 -104 33 -134t122 -30t173 23v-195q-102 -40 -279 -40t-248 78t-71 292z" />
    <glyph glyph-name="Utilde" unicode="&#x168;" horiz-adv-x="1415" 
d="M862 1696q48 0 112 24t105 56v-181q-35 -29 -99 -55t-126 -24t-154 34t-141 31q-100 0 -223 -78v183q38 28 106 54t128 24t151 -34q92 -34 141 -34zM418 436q0 -124 64 -188t226 -64q161 0 225 64t64 188v953h283v-918q0 -250 -127 -377t-445 -127t-454 135
q-119 119 -119 369v918h283v-953z" />
    <glyph glyph-name="utilde" unicode="&#x169;" horiz-adv-x="1269" 
d="M780 1352q48 0 112 24t105 56v-181q-35 -29 -99 -55t-126 -24q-62 1 -154 33t-141 32q-100 0 -223 -78v182q38 29 106 55t128 24t151 -34q92 -34 141 -34zM496 -25q-193 0 -276 81t-83 255v733h271v-694q0 -90 36 -125t117 -35q82 0 159 39t124 97v718h270v-1044h-188
l-37 137h-4q-160 -162 -389 -162z" />
    <glyph glyph-name="Umacron" unicode="&#x16a;" horiz-adv-x="1415" 
d="M1075 1733v-185h-737v185h737zM418 436q0 -124 64 -188t226 -64q161 0 225 64t64 188v953h283v-918q0 -250 -127 -377t-445 -127t-454 135q-119 119 -119 369v918h283v-953z" />
    <glyph glyph-name="umacron" unicode="&#x16b;" horiz-adv-x="1269" 
d="M993 1389v-185h-737v185h737zM496 -25q-193 0 -276 81t-83 255v733h271v-694q0 -90 36 -125t117 -35q82 0 159 39t124 97v718h270v-1044h-188l-37 137h-4q-160 -162 -389 -162z" />
    <glyph glyph-name="Ubreve" unicode="&#x16c;" horiz-adv-x="1415" 
d="M707 1628q147 0 174 105h213q-41 -260 -387 -260t-388 260h213q28 -105 175 -105zM418 436q0 -124 64 -188t226 -64q161 0 225 64t64 188v953h283v-918q0 -250 -127 -377t-445 -127t-454 135q-119 119 -119 369v918h283v-953z" />
    <glyph glyph-name="ubreve" unicode="&#x16d;" horiz-adv-x="1269" 
d="M625 1284q147 0 174 105h213q-41 -261 -387 -261t-387 261h213q27 -105 174 -105zM496 -25q-193 0 -276 81t-83 255v733h271v-694q0 -90 36 -125t117 -35q82 0 159 39t124 97v718h270v-1044h-188l-37 137h-4q-160 -162 -389 -162z" />
    <glyph glyph-name="Uring" unicode="&#x16e;" horiz-adv-x="1415" 
d="M920 1640q0 -164 -212 -164t-212 164t212 164t212 -164zM778 1640q0 66 -70 66t-71 -66q1 -61 71 -61t70 61zM418 436q0 -124 64 -188t226 -64q161 0 225 64t64 188v953h283v-918q0 -250 -127 -377t-445 -127t-454 135q-119 119 -119 369v918h283v-953z" />
    <glyph glyph-name="uring" unicode="&#x16f;" horiz-adv-x="1269" 
d="M696 1296q0 66 -70 66t-71 -66q1 -61 71 -61t70 61zM838 1296q0 -164 -212 -164t-212 164t212 164t212 -164zM496 -25q-193 0 -276 81t-83 255v733h271v-694q0 -90 36 -125t117 -35q82 0 159 39t124 97v718h270v-1044h-188l-37 137h-4q-160 -162 -389 -162z" />
    <glyph glyph-name="Uhungarumlaut" unicode="&#x170;" horiz-adv-x="1415" 
d="M1294 1733l-323 -236h-195l225 236h293zM911 1733l-323 -236h-195l225 236h293zM418 436q0 -124 64 -188t226 -64q161 0 225 64t64 188v953h283v-918q0 -250 -127 -377t-445 -127t-454 135q-119 119 -119 369v918h283v-953z" />
    <glyph glyph-name="uhungarumlaut" unicode="&#x171;" horiz-adv-x="1269" 
d="M821 1389l-323 -236h-195l225 236h293zM1204 1389l-323 -236h-195l225 236h293zM496 -25q-193 0 -276 81t-83 255v733h271v-694q0 -90 36 -125t117 -35q82 0 159 39t124 97v718h270v-1044h-188l-37 137h-4q-160 -162 -389 -162z" />
    <glyph glyph-name="Uogonek" unicode="&#x172;" horiz-adv-x="1415" 
d="M723 -168q0 -63 77 -63t144 22v-139q-74 -29 -186 -29t-170 42q-60 42 -60 132t88 174q-248 16 -364 133t-117 367v918h283v-953q0 -124 64 -188t226 -64q161 0 225 64t64 188v953h283v-918q0 -250 -118 -368t-359 -132q-80 -61 -80 -139z" />
    <glyph glyph-name="uogonek" unicode="&#x173;" horiz-adv-x="1269" 
d="M496 -25q-193 0 -276 81t-83 255v733h271v-694q0 -90 36 -125t117 -35q82 0 159 39t124 97v718h270v-1044q-127 -68 -127 -168q0 -63 77 -63t144 22v-139q-74 -29 -186 -29t-170 42q-59 41 -59 109q-1 68 35 128t96 100l-35 135h-4q-160 -162 -389 -162z" />
    <glyph glyph-name="Wcircumflex" unicode="&#x174;" horiz-adv-x="1984" 
d="M862 1739h242l250 -246h-246l-125 117l-125 -117h-244zM780 1389h291l234 -707q70 -215 114 -403h8q51 270 86 409l181 701h280l-379 -1389h-323l-174 518q-87 266 -101 316h-6q-55 -184 -100 -314l-178 -520h-324l-379 1389h293l178 -699q59 -229 88 -411h9
q49 193 114 389l166 493z" />
    <glyph glyph-name="wcircumflex" unicode="&#x175;" horiz-adv-x="1681" 
d="M702 1395h242l250 -246h-246l-125 117l-125 -117h-243zM649 1044h256l142 -382q104 -291 129 -396h4q12 59 106 402l113 376h268l-342 -1044h-272l-211 545h-4l-209 -545h-277l-338 1044h279l117 -374q82 -287 102 -404h4q16 66 139 412l66 180q-72 184 -72 186z" />
    <glyph glyph-name="Ycircumflex" unicode="&#x176;" horiz-adv-x="1269" 
d="M522 1739h242l250 -246h-246l-125 117l-125 -117h-244zM770 0h-281v504l-499 885h309l336 -637h6l344 637h295l-510 -883v-506z" />
    <glyph glyph-name="ycircumflex" unicode="&#x177;" horiz-adv-x="1136" 
d="M453 1395h241l250 -246h-246l-125 117l-124 -117h-244zM713 690l137 354h272l-571 -1388h-281l156 379l-416 1009h291l137 -354q70 -182 135 -383h5q61 193 135 383z" />
    <glyph glyph-name="Ydieresis" unicode="&#x178;" horiz-adv-x="1269" 
d="M541 1729v-213h-258v213h258zM1001 1729v-213h-258v213h258zM770 0h-281v504l-499 885h309l336 -637h6l344 637h295l-510 -883v-506z" />
    <glyph glyph-name="Zacute" unicode="&#x179;" horiz-adv-x="1155" 
d="M995 1733l-327 -232h-224l230 232h321zM1087 0h-1021v197l669 968v4h-614v220h960v-199l-669 -967v-4h675v-219z" />
    <glyph glyph-name="zacute" unicode="&#x17a;" horiz-adv-x="960" 
d="M911 1389l-327 -232h-224l230 232h321zM911 0h-862v170l522 664v4h-483v206h823v-170l-520 -663v-4h520v-207z" />
    <glyph glyph-name="Zdotaccent" unicode="&#x17b;" horiz-adv-x="1155" 
d="M739 1733v-213h-270v213h270zM1087 0h-1021v197l669 968v4h-614v220h960v-199l-669 -967v-4h675v-219z" />
    <glyph glyph-name="zdotaccent" unicode="&#x17c;" horiz-adv-x="960" 
d="M645 1389v-213h-270v213h270zM911 0h-862v170l522 664v4h-483v206h823v-170l-520 -663v-4h520v-207z" />
    <glyph glyph-name="Zcaron" unicode="&#x17d;" horiz-adv-x="1155" 
d="M723 1493h-242l-248 246h244l125 -117l125 117h246zM1087 0h-1021v197l669 968v4h-614v220h960v-199l-669 -967v-4h675v-219z" />
    <glyph glyph-name="zcaron" unicode="&#x17e;" horiz-adv-x="960" 
d="M631 1149h-242l-248 246h244l125 -117l125 117h246zM911 0h-862v170l522 664v4h-483v206h823v-170l-520 -663v-4h520v-207z" />
    <glyph glyph-name="Schwa" unicode="&#x18f;" horiz-adv-x="1425" 
d="M690 184q162 0 240 78q78 84 92 281h-639q-2 -20 -2 -62q0 -143 76 -225q71 -72 233 -72zM1026 762q0 246 -92 342t-338 96t-436 -61v219q180 63 481 63q373 0 531 -174t157 -564q0 -390 -191 -561q-174 -155 -466 -155q-291 1 -433 145t-143 439q1 113 13 211h917z" />
    <glyph glyph-name="florin" unicode="&#x192;" horiz-adv-x="1069" 
d="M129 -57q74 -1 111 35t49 135l45 376h-146v207h164l17 121q25 184 115 272q91 87 282 87q143 0 256 -48v-196q-86 37 -192 37t-144 -38q-37 -38 -51 -145l-12 -90h299v-207h-320l-49 -423q-41 -330 -338 -330q-129 -1 -219 22v195q59 -10 133 -10z" />
    <glyph glyph-name="Khook" unicode="&#x198;" horiz-adv-x="1308" 
d="M449 598v-598h-283v1389h283v-572h75q12 6 35 29q70 68 163 236t142 218q104 104 285 105q104 0 162 -35v-209q-45 18 -125 18t-125 -45t-116 -175t-124 -195l498 -764h-320l-391 598h-159z" />
    <glyph glyph-name="khook" unicode="&#x199;" horiz-adv-x="1165" 
d="M426 1098v-447h121l262 393h297l-332 -481l385 -563h-315l-297 449h-121v-449h-272v1085q0 193 91 261t290 67q137 0 247 -24v-185q-88 16 -189 16t-134 -22q-33 -24 -33 -100z" />
    <glyph glyph-name="Yogh" unicode="&#x1b7;" horiz-adv-x="1146" 
d="M770 213q0 173 -111 227q-92 45 -249 45q-53 0 -150 -6l-10 176l420 510v4h-621v220h961v-199l-402 -485q197 -17 324 -137t127 -343q0 -175 -90 -289q-89 -114 -231 -162t-340 -48t-392 61v223q195 -51 383 -51q189 1 285 67t96 187z" />
    <glyph glyph-name="Acaron" unicode="&#x1cd;" horiz-adv-x="1323" 
d="M782 1493h-241l-248 246h244l125 -117l124 117h246zM465 535h383l-96 290q-43 137 -93 310h-6q-49 -172 -92 -310zM1026 0l-106 322h-531l-104 -322h-285l500 1389h323l500 -1389h-297z" />
    <glyph glyph-name="acaron" unicode="&#x1ce;" horiz-adv-x="1150" 
d="M686 1149h-242l-247 246h243l125 -117l125 117h246zM592 473q-152 0 -203 -49q-33 -33 -33 -109q0 -77 44 -103t130 -26q147 0 218 103v178q-93 6 -156 6zM748 739q0 57 -10 81q-25 57 -210 58q-184 1 -362 -38v196q156 41 400 41t346 -75q101 -75 102 -275v-727h-187
l-34 106h-2q-51 -59 -135 -94t-181 -35q-209 -1 -301 91t-92 242t80 231q111 109 416 108q82 0 170 -6v96z" />
    <glyph glyph-name="Icaron" unicode="&#x1cf;" horiz-adv-x="614" 
d="M449 0h-283v1389h283v-1389zM428 1493h-242l-247 246h243l125 -117l125 117h246z" />
    <glyph glyph-name="icaron" unicode="&#x1d0;" horiz-adv-x="581" 
d="M412 1149h-242l-248 246h244l125 -117l125 117h246zM426 1047v-1047h-270v1047h270z" />
    <glyph glyph-name="Ocaron" unicode="&#x1d1;" horiz-adv-x="1470" 
d="M856 1493h-242l-247 246h243l125 -117l125 117h246zM1374 694q0 -367 -143 -547t-495 -180t-496 180q-143 180 -144 547q0 367 144 547t495 180t495 -180t144 -547zM1071 694q0 285 -75 399q-75 113 -261 113t-261 -114t-75 -398t75 -398t261 -114t261 114t75 398z" />
    <glyph glyph-name="ocaron" unicode="&#x1d2;" horiz-adv-x="1253" 
d="M383 522q0 -225 78 -303q55 -55 166 -55t166 55q78 78 77 303q0 225 -77 303q-55 55 -166 55t-166 -55q-78 -78 -78 -303zM627 -33q-236 0 -384 119q-149 118 -149 436t149 437t385 119q236 -1 383 -119q148 -118 148 -436q0 -317 -148 -437q-148 -119 -384 -119z
M748 1149h-242l-248 246h244l125 -117l125 117h245z" />
    <glyph glyph-name="Ucaron" unicode="&#x1d3;" horiz-adv-x="1415" 
d="M827 1493h-241l-248 246h244l125 -117l124 117h246zM418 436q0 -124 64 -188t226 -64q161 0 225 64t64 188v953h283v-918q0 -250 -127 -377t-445 -127t-454 135q-119 119 -119 369v918h283v-953z" />
    <glyph glyph-name="ucaron" unicode="&#x1d4;" horiz-adv-x="1269" 
d="M745 1149h-241l-248 246h244l125 -117l125 117h245zM496 -25q-193 0 -276 81t-83 255v733h271v-694q0 -90 36 -125t117 -35q82 0 159 39t124 97v718h270v-1044h-188l-37 137h-4q-160 -162 -389 -162z" />
    <glyph glyph-name="Adieresismacron" unicode="&#x1de;" horiz-adv-x="1323" 
d="M465 535h383l-96 290q-43 137 -93 310h-6q-49 -172 -92 -310zM1026 0l-106 322h-531l-104 -322h-285l500 1389h323l500 -1389h-297zM1024 2052v-184h-737v184h737zM1020 1733v-222h-266v222h266zM559 1733v-222h-266v222h266z" />
    <glyph glyph-name="adieresismacron" unicode="&#x1df;" horiz-adv-x="1150" 
d="M930 1708v-184h-737v184h737zM926 1389v-222h-267v222h267zM465 1389v-222h-266v222h266zM592 473q-152 0 -203 -49q-33 -33 -33 -109q0 -77 44 -103t130 -26q147 0 218 103v178q-93 6 -156 6zM748 739q0 57 -10 81q-25 57 -210 58q-184 1 -362 -38v196q156 41 400 41
t346 -75q101 -75 102 -275v-727h-187l-34 106h-2q-51 -59 -135 -94t-181 -35q-209 -1 -301 91t-92 242t80 231q111 109 416 108q82 0 170 -6v96z" />
    <glyph glyph-name="AEmacron" unicode="&#x1e2;" horiz-adv-x="1966" 
d="M1481 1733v-185h-738v185h738zM975 535v639h-6q-57 -94 -217 -330l-211 -309h434zM1903 219v-219h-928v322h-580l-225 -322h-334l1006 1389h1046v-220h-631v-352h541v-219h-541v-379h646z" />
    <glyph glyph-name="aemacron" unicode="&#x1e3;" horiz-adv-x="1804" 
d="M1300 1389v-185h-737v185h737zM1446 690q0 96 -46 142t-152 47q-104 -1 -156 -53t-62 -179h414q2 27 2 43zM592 473q-152 0 -203 -49q-33 -33 -33 -109q0 -77 44 -103t130 -26q150 0 230 113q-16 61 -23 168q-86 6 -145 6zM1024 461q0 -155 67 -221t237 -66t329 41v-195
q-180 -53 -379 -53q-307 0 -434 158q-156 -147 -367 -147t-303 90q-92 92 -92 242t80 231q111 109 416 108q82 0 170 -6v96q0 57 -10 81q-25 57 -210 58q-184 1 -362 -38v196q156 41 385 41q291 0 375 -106q122 106 338 106q438 0 438 -448q0 -86 -10 -168h-668z" />
    <glyph glyph-name="Gstroke" unicode="&#x1e4;" horiz-adv-x="1413" 
d="M1493 504v-219h-211v-217q-100 -51 -253 -76t-277 -25q-334 0 -495 170t-161 557t170 557t525 170q233 0 401 -51v-211q-154 41 -334 41t-272 -39q-187 -79 -187 -428t104 -457q52 -53 114 -73q63 -21 185 -21t197 23v80h-356v219h356v94h-292v219h575v-313h211z" />
    <glyph glyph-name="gstroke" unicode="&#x1e5;" horiz-adv-x="1253" 
d="M615 860q-134 0 -183 -68t-49 -206q0 -140 53 -198t172 -58q62 0 124 38t95 85v329q-78 78 -212 78zM1303 53v-168h-234q-96 -262 -496 -262q-246 0 -395 53v209q205 -57 361 -57t227 57h-279v168h340v160h-4q-113 -98 -274 -98q-229 1 -342 117t-113 360q0 477 506 477
q164 0 289 -96h4l33 71h172v-976l-2 -15h207z" />
    <glyph glyph-name="Gcaron" unicode="&#x1e6;" horiz-adv-x="1413" 
d="M842 1493h-242l-248 246h244l125 -117l125 117h246zM707 598v219h575v-749q-100 -51 -253 -76t-277 -25q-334 0 -495 170t-161 557t170 557t525 170q233 0 401 -51v-211q-154 41 -334 41t-272 -39q-187 -79 -187 -428t104 -457q52 -53 114 -73q63 -21 185 -21t197 23v393
h-292z" />
    <glyph glyph-name="gcaron" unicode="&#x1e7;" horiz-adv-x="1253" 
d="M729 1149h-242l-247 246h243l125 -117l125 117h246zM615 860q-134 0 -183 -75t-49 -231t54 -220q54 -66 171 -66q62 0 124 38t95 85v391q-78 78 -212 78zM1098 1044v-976q0 -444 -525 -445q-246 0 -395 53v209q168 -47 348 -47t240 56q61 56 61 155v103h-4
q-113 -98 -274 -99q-229 0 -342 125t-113 383q0 508 506 508q164 0 289 -96h4l33 71h172z" />
    <glyph glyph-name="Kcaron" unicode="&#x1e8;" horiz-adv-x="1308" 
d="M778 1493h-241l-248 246h243l125 -117l125 117h246zM449 598v-598h-283v1389h283v-572h153l375 572h297l-428 -656l473 -733h-320l-391 598h-159z" />
    <glyph glyph-name="kcaron" unicode="&#x1e9;" horiz-adv-x="1165" 
d="M412 1503h-242l-248 246h244l125 -117l125 117h246zM426 449v-449h-270v1389h270v-738h121l262 393h297l-332 -481l385 -563h-315l-297 449h-121z" />
    <glyph glyph-name="Oogonek" unicode="&#x1ea;" horiz-adv-x="1470" 
d="M1071 694q0 285 -75 399q-75 113 -261 113t-261 -114t-75 -398t75 -398t261 -114t261 114t75 398zM785 -377q-230 0 -230 174q0 90 90 174q-301 23 -425 202t-124 533t144 535q144 180 495 180t495 -180t144 -547t-143 -547q-123 -155 -401 -176q-80 -59 -80 -139
q0 -63 76 -63t145 22v-139q-74 -29 -186 -29z" />
    <glyph glyph-name="oogonek" unicode="&#x1eb;" horiz-adv-x="1253" 
d="M383 522q0 -225 78 -303q55 -55 166 -55t166 55q78 78 77 303q0 225 -77 303q-55 55 -166 55t-166 -55q-78 -78 -78 -303zM678 -377q-230 0 -229 174q0 90 90 174q-211 19 -328 147t-117 425t149 416t385 119q236 -1 383 -119q148 -118 148 -437q0 -504 -434 -549
q-82 -61 -82 -141q0 -63 77 -63t144 22v-139q-74 -29 -186 -29z" />
    <glyph glyph-name="Oogonekmacron" unicode="&#x1ec;" horiz-adv-x="1470" 
d="M1104 1733v-185h-737v185h737zM1071 694q0 285 -75 399q-75 113 -261 113t-261 -114t-75 -398t75 -398t261 -114t261 114t75 398zM785 -377q-230 0 -230 174q0 90 90 174q-301 23 -425 202t-124 533t144 535q144 180 495 180t495 -180t144 -547t-143 -547
q-123 -155 -401 -176q-80 -59 -80 -139q0 -63 76 -63t145 22v-139q-74 -29 -186 -29z" />
    <glyph glyph-name="oogonekmacron" unicode="&#x1ed;" horiz-adv-x="1253" 
d="M995 1389v-185h-737v185h737zM383 522q0 -225 78 -303q55 -55 166 -55t166 55q78 78 77 303q0 225 -77 303q-55 55 -166 55t-166 -55q-78 -78 -78 -303zM678 -377q-230 0 -229 174q0 90 90 174q-211 19 -328 147t-117 425t149 416t385 119q236 -1 383 -119
q148 -118 148 -437q0 -504 -434 -549q-82 -61 -82 -141q0 -63 77 -63t144 22v-139q-74 -29 -186 -29z" />
    <glyph glyph-name="jcaron" unicode="&#x1f0;" horiz-adv-x="591" 
d="M422 1149h-242l-248 246h244l125 -117l125 117h246zM166 123v921h270v-710q0 -251 -14 -362q-14 -110 -44 -178t-81 -138h-248q117 199 117 467z" />
    <glyph glyph-name="jcaron" unicode="&#xe10c;" horiz-adv-x="591" 
d="M422 1149h-242l-248 246h244l125 -117l125 117h246zM166 123v921h270v-710q0 -251 -14 -362q-14 -110 -44 -178t-81 -138h-248q117 199 117 467z" />
    <glyph glyph-name="Gacute" unicode="&#x1f4;" horiz-adv-x="1413" 
d="M1128 1733l-327 -232h-223l229 232h321zM707 598v219h575v-749q-100 -51 -253 -76t-277 -25q-334 0 -495 170t-161 557t170 557t525 170q233 0 401 -51v-211q-154 41 -334 41t-272 -39q-187 -79 -187 -428t104 -457q52 -53 114 -73q63 -21 185 -21t197 23v393h-292z" />
    <glyph glyph-name="gacute" unicode="&#x1f5;" horiz-adv-x="1253" 
d="M1016 1389l-328 -232h-223l229 232h322zM615 860q-134 0 -183 -75t-49 -231t54 -220q54 -66 171 -66q62 0 124 38t95 85v391q-78 78 -212 78zM1098 1044v-976q0 -444 -525 -445q-246 0 -395 53v209q168 -47 348 -47t240 56q61 56 61 155v103h-4q-113 -98 -274 -99
q-229 0 -342 125t-113 383q0 508 506 508q164 0 289 -96h4l33 71h172z" />
    <glyph glyph-name="Ngrave" unicode="&#x1f8;" horiz-adv-x="1513" 
d="M678 1501l-328 232h322l229 -232h-223zM436 434v-434h-270v1389h317l418 -680q111 -172 189 -342h6q-18 369 -19 587v435h271v-1389h-310l-430 684q-104 160 -184 334h-6q18 -369 18 -584z" />
    <glyph glyph-name="ngrave" unicode="&#x1f9;" horiz-adv-x="1269" 
d="M580 1157l-328 232h321l230 -232h-223zM757 1069q212 0 294 -76t82 -250v-743h-271v694q0 90 -36 125t-118 35t-158 -39t-124 -96v-719h-270v1044h188l37 -137h4q160 162 372 162z" />
    <glyph glyph-name="Aringacute" unicode="&#x1fa;" horiz-adv-x="1323" 
d="M733 1640q-1 66 -71 66t-70 -66q0 -61 70 -61t71 61zM874 1645q0 -164 -212 -164t-211 164q0 63 73 145l170 170h176l-159 -160q163 -10 163 -155zM465 535h383l-96 290q-43 137 -93 310h-6q-49 -172 -92 -310zM1026 0l-106 322h-531l-104 -322h-285l500 1389h323
l500 -1389h-297z" />
    <glyph glyph-name="aringacute" unicode="&#x1fb;" horiz-adv-x="1150" 
d="M668 1292q0 66 -71 66t-71 -66q0 -61 71 -61t71 61zM809 1296q0 -164 -212 -164t-212 164q0 63 74 146l170 170h176l-160 -160q164 -11 164 -156zM592 473q-152 0 -203 -49q-33 -33 -33 -109q0 -77 44 -103t130 -26q147 0 218 103v178q-93 6 -156 6zM748 739q0 57 -10 81
q-25 57 -210 58q-184 1 -362 -38v196q156 41 400 41t346 -75q101 -75 102 -275v-727h-187l-34 106h-2q-51 -59 -135 -94t-181 -35q-209 -1 -301 91t-92 242t80 231q111 109 416 108q82 0 170 -6v96z" />
    <glyph glyph-name="AEacute" unicode="&#x1fc;" horiz-adv-x="1966" 
d="M1686 1733l-328 -232h-223l229 232h322zM975 535v639h-6q-57 -94 -217 -330l-211 -309h434zM1903 219v-219h-928v322h-580l-225 -322h-334l1006 1389h1046v-220h-631v-352h541v-219h-541v-379h646z" />
    <glyph glyph-name="aeacute" unicode="&#x1fd;" horiz-adv-x="1804" 
d="M1343 1395l-327 -232h-223l229 232h321zM1446 690q0 96 -46 142t-152 47q-104 -1 -156 -53t-62 -179h414q2 27 2 43zM592 473q-152 0 -203 -49q-33 -33 -33 -109q0 -77 44 -103t130 -26q150 0 230 113q-16 61 -23 168q-86 6 -145 6zM1024 461q0 -155 67 -221t237 -66
t329 41v-195q-180 -53 -379 -53q-307 0 -434 158q-156 -147 -367 -147t-303 90q-92 92 -92 242t80 231q111 109 416 108q82 0 170 -6v96q0 57 -10 81q-25 57 -210 58q-184 1 -362 -38v196q156 41 385 41q291 0 375 -106q122 106 338 106q438 0 438 -448q0 -86 -10 -168h-668
z" />
    <glyph glyph-name="Oslashacute" unicode="&#x1fe;" horiz-adv-x="1470" 
d="M1110 1733l-328 -232h-223l229 232h322zM735 182q186 0 261 114t75 396q0 283 -72 398l-319 -906q16 -2 55 -2zM735 1206q-186 0 -261 -114t-75 -405q0 -292 82 -402l322 917q-45 4 -68 4zM96 694q0 367 144 547t495 180q55 0 142 -8l51 148h237l-73 -211
q283 -143 282 -656q0 -367 -143 -547t-496 -180q-51 0 -129 8l-53 -151h-234l72 207q-159 77 -227 241t-68 422z" />
    <glyph glyph-name="oslashacute" unicode="&#x1ff;" horiz-adv-x="1253" 
d="M946 1389l-328 -232h-223l230 232h321zM870 522q0 158 -36 242l-213 -600h6q111 0 166 55q77 78 77 303zM383 550q0 -198 39 -278l215 609h-10q-111 0 -166 -56q-78 -77 -78 -275zM94 522q0 318 149 437t384 118q29 0 78 -4l45 127h237l-65 -182q238 -121 237 -496
q0 -316 -148 -436q-148 -119 -384 -119q-27 0 -76 4l-39 -112h-233l57 164q-242 117 -242 499z" />
    <glyph glyph-name="Adoublegrave" unicode="&#x200;" horiz-adv-x="1323" 
d="M379 1497l-324 236h293l225 -236h-194zM762 1497l-324 236h293l225 -236h-194zM465 535h383l-96 290q-43 137 -93 310h-6q-49 -172 -92 -310zM1026 0l-106 322h-531l-104 -322h-285l500 1389h323l500 -1389h-297z" />
    <glyph glyph-name="edoublegrave" unicode="&#x201;" horiz-adv-x="1161" 
d="M346 1153l-323 236h292l226 -236h-195zM729 1153l-323 236h292l226 -236h-195zM803 690q-1 96 -47 142t-150 47q-104 -1 -156 -53t-63 -179h414q2 27 2 43zM381 461q1 -155 67 -221t237 -66t329 41v-195q-180 -53 -379 -53q-287 0 -414 135t-127 432t149 421
q149 123 371 123q445 -2 445 -449q0 -86 -10 -168h-668z" />
    <glyph glyph-name="edoublegrave" unicode="&#x205;" horiz-adv-x="1161" 
d="M346 1153l-323 236h292l226 -236h-195zM729 1153l-323 236h292l226 -236h-195zM803 690q-1 96 -47 142t-150 47q-104 -1 -156 -53t-63 -179h414q2 27 2 43zM381 461q1 -155 67 -221t237 -66t329 41v-195q-180 -53 -379 -53q-287 0 -414 135t-127 432t149 421
q149 123 371 123q445 -2 445 -449q0 -86 -10 -168h-668z" />
    <glyph glyph-name="Ainvertedbreve" unicode="&#x202;" horiz-adv-x="1323" 
d="M662 1602q-147 0 -175 -105h-213q42 260 388 260t387 -260h-213q-27 105 -174 105zM465 535h383l-96 290q-43 137 -93 310h-6q-49 -172 -92 -310zM1026 0l-106 322h-531l-104 -322h-285l500 1389h323l500 -1389h-297z" />
    <glyph glyph-name="ainvertedbreve" unicode="&#x203;" horiz-adv-x="1150" 
d="M561 1257q-147 0 -174 -104h-213q41 260 387 260t387 -260h-213q-27 104 -174 104zM592 473q-152 0 -203 -49q-33 -33 -33 -109q0 -77 44 -103t130 -26q147 0 218 103v178q-93 6 -156 6zM748 739q0 57 -10 81q-25 57 -210 58q-184 1 -362 -38v196q156 41 400 41t346 -75
q101 -75 102 -275v-727h-187l-34 106h-2q-51 -59 -135 -94t-181 -35q-209 -1 -301 91t-92 242t80 231q111 109 416 108q82 0 170 -6v96z" />
    <glyph glyph-name="Edoublegrave" unicode="&#x204;" horiz-adv-x="1157" 
d="M379 1497l-324 236h293l225 -236h-194zM762 1497l-324 236h293l225 -236h-194zM1094 219v-219h-928v1389h913v-220h-630v-352h540v-219h-540v-379h645z" />
    <glyph glyph-name="Einvertedbreve" unicode="&#x206;" horiz-adv-x="1157" 
d="M623 1602q-147 0 -174 -105h-213q41 260 387 260t387 -260h-213q-27 105 -174 105zM1094 219v-219h-928v1389h913v-220h-630v-352h540v-219h-540v-379h645z" />
    <glyph glyph-name="einvertedbreve" unicode="&#x207;" horiz-adv-x="1161" 
d="M600 1257q-147 0 -174 -104h-213q41 260 387 260t387 -260h-213q-27 104 -174 104zM803 690q-1 96 -47 142t-150 47q-104 -1 -156 -53t-63 -179h414q2 27 2 43zM381 461q1 -155 67 -221t237 -66t329 41v-195q-180 -53 -379 -53q-287 0 -414 135t-127 432t149 421
q149 123 371 123q445 -2 445 -449q0 -86 -10 -168h-668z" />
    <glyph glyph-name="Idoublegrave" unicode="&#x208;" horiz-adv-x="614" 
d="M453 0h-283v1389h283v-1389zM39 1497l-324 236h293l225 -236h-194zM422 1497l-324 236h293l225 -236h-194z" />
    <glyph glyph-name="idoublegrave" unicode="&#x209;" horiz-adv-x="581" 
d="M10 1153l-323 236h293l225 -236h-195zM393 1153l-323 236h292l226 -236h-195zM426 1047v-1047h-270v1047h270z" />
    <glyph glyph-name="Iinvertedbreve" unicode="&#x20a;" horiz-adv-x="614" 
d="M451 0h-283v1389h283v-1389zM307 1602q-147 0 -174 -105h-213q41 260 387 260t387 -260h-213q-27 105 -174 105z" />
    <glyph glyph-name="iinvertedbreve" unicode="&#x20b;" horiz-adv-x="581" 
d="M291 1257q-147 0 -174 -104h-213q41 260 387 260t387 -260h-213q-27 104 -174 104zM426 1047v-1047h-270v1047h270z" />
    <glyph glyph-name="Odoublegrave" unicode="&#x20c;" horiz-adv-x="1470" 
d="M469 1497l-324 236h293l226 -236h-195zM852 1497l-324 236h293l226 -236h-195zM1374 694q0 -367 -143 -547t-495 -180t-496 180q-143 180 -144 547q0 367 144 547t495 180t495 -180t144 -547zM1071 694q0 285 -75 399q-75 113 -261 113t-261 -114t-75 -398t75 -398
t261 -114t261 114t75 398z" />
    <glyph glyph-name="odoublegrave" unicode="&#x20d;" horiz-adv-x="1253" 
d="M369 1153l-324 236h293l225 -236h-194zM752 1153l-324 236h293l225 -236h-194zM383 522q0 -225 78 -303q55 -55 166 -55t166 55q78 78 77 303q0 225 -77 303q-55 55 -166 55t-166 -55q-78 -78 -78 -303zM627 -33q-236 0 -384 119q-149 118 -149 436t149 437t385 119
q236 -1 383 -119q148 -118 148 -436q0 -317 -148 -437q-148 -119 -384 -119z" />
    <glyph glyph-name="Oinvertedbreve" unicode="&#x20e;" horiz-adv-x="1470" 
d="M735 1602q-147 0 -174 -105h-213q41 260 387 260t387 -260h-213q-27 105 -174 105zM1374 694q0 -367 -143 -547t-495 -180t-496 180q-143 180 -144 547q0 367 144 547t495 180t495 -180t144 -547zM1071 694q0 285 -75 399q-75 113 -261 113t-261 -114t-75 -398t75 -398
t261 -114t261 114t75 398z" />
    <glyph glyph-name="oinvertedbreve" unicode="&#x20f;" horiz-adv-x="1253" 
d="M627 1257q-147 0 -174 -104h-213q41 260 387 260t387 -260h-213q-27 104 -174 104zM383 522q0 -225 78 -303q55 -55 166 -55t166 55q78 78 77 303q0 225 -77 303q-55 55 -166 55t-166 -55q-78 -78 -78 -303zM627 -33q-236 0 -384 119q-149 118 -149 436t149 437t385 119
q236 -1 383 -119q148 -118 148 -436q0 -317 -148 -437q-148 -119 -384 -119z" />
    <glyph glyph-name="Rinvertedbreve" unicode="&#x212;" horiz-adv-x="1339" 
d="M653 1602q-147 0 -174 -105h-213q41 260 387 260t387 -260h-213q-27 105 -174 105zM698 1169h-249v-424h253q111 1 127 5q15 4 33 9t35 23q59 59 59 175t-59 176q-32 32 -109 35q-24 1 -90 1zM449 0h-283v1389h559q162 0 256 -22q268 -63 266 -411q0 -215 -108 -323
q-80 -78 -195 -101l350 -532h-323l-340 526h-182v-526z" />
    <glyph glyph-name="rinvertedbreve" unicode="&#x213;" horiz-adv-x="817" 
d="M481 1257q-147 0 -174 -104h-213q41 260 387 260t387 -260h-213q-27 104 -174 104zM662 1067q98 0 147 -31v-205q-55 19 -138 19q-150 1 -245 -164v-686h-270v1044h188l39 -147h2q100 170 277 170z" />
    <glyph glyph-name="Udoublegrave" unicode="&#x214;" horiz-adv-x="1415" 
d="M451 1497l-324 236h293l225 -236h-194zM834 1497l-324 236h293l225 -236h-194zM418 436q0 -124 64 -188t226 -64q161 0 225 64t64 188v953h283v-918q0 -250 -127 -377t-445 -127t-454 135q-119 119 -119 369v918h283v-953z" />
    <glyph glyph-name="udoublegrave" unicode="&#x215;" horiz-adv-x="1269" 
d="M768 1153l-324 236h293l226 -236h-195zM385 1153l-324 236h293l226 -236h-195zM496 -25q-193 0 -276 81t-83 255v733h271v-694q0 -90 36 -125t117 -35q82 0 159 39t124 97v718h270v-1044h-188l-37 137h-4q-160 -162 -389 -162z" />
    <glyph glyph-name="Uinvertedbreve" unicode="&#x216;" horiz-adv-x="1415" 
d="M707 1602q-147 0 -175 -105h-213q41 260 387 260t388 -260h-213q-27 105 -174 105zM418 436q0 -124 64 -188t226 -64q161 0 225 64t64 188v953h283v-918q0 -250 -127 -377t-445 -127t-454 135q-119 119 -119 369v918h283v-953z" />
    <glyph glyph-name="uinvertedbreve" unicode="&#x217;" horiz-adv-x="1269" 
d="M625 1257q-147 0 -174 -104h-213q41 260 387 260t387 -260h-213q-27 104 -174 104zM496 -25q-193 0 -276 81t-83 255v733h271v-694q0 -90 36 -125t117 -35q82 0 159 39t124 97v718h270v-1044h-188l-37 137h-4q-160 -162 -389 -162z" />
    <glyph glyph-name="Scommaaccent" unicode="&#x218;" horiz-adv-x="1255" 
d="M426 -549l86 397h264l-201 -397h-149zM565 201q330 0 330 196q0 113 -67 147t-208 41t-221 26q-79 19 -149 63q-142 89 -142 314q2 433 584 433q221 0 373 -51v-211q-176 41 -367 41q-301 0 -301 -176q0 -86 42 -126t153 -46q35 -2 126 -6q340 -15 429 -220
q37 -85 37 -208q0 -223 -165 -337t-429 -114t-453 62v223q190 -51 428 -51z" />
    <glyph glyph-name="scommaaccent" unicode="&#x219;" horiz-adv-x="1048" 
d="M328 -549l86 397h264l-201 -397h-149zM358 766q0 -92 99 -105q45 -6 122 -7q160 -2 273 -61q135 -70 135 -257q0 -188 -140 -278t-382 -91q-180 0 -359 53v207q183 -45 355 -45q258 0 258 117q0 71 -50 93q-51 22 -157 24t-174 15t-127 48q-123 73 -123 256t129 263
t341 79q212 0 335 -41v-196q-143 35 -322 34q-213 0 -213 -108z" />
    <glyph glyph-name="Hcaron" unicode="&#x21e;" horiz-adv-x="1474" 
d="M858 1493h-242l-247 246h243l125 -117l125 117h246zM449 0h-283v1389h283v-572h577v572h283v-1389h-283v598h-577v-598z" />
    <glyph glyph-name="hcaron" unicode="&#x21f;" horiz-adv-x="1269" 
d="M412 1503h-242l-248 246h244l125 -117l125 117h246zM156 0v1389h270v-441h4q150 121 344 121t277 -76q82 -76 82 -250v-743h-271v694q0 90 -36 125t-118 35t-158 -39t-124 -96v-719h-270z" />
    <glyph glyph-name="Adotabove" unicode="&#x226;" horiz-adv-x="1323" 
d="M797 1733v-213h-271v213h271zM465 535h383l-96 290q-43 137 -93 310h-6q-49 -172 -92 -310zM1026 0l-106 322h-531l-104 -322h-285l500 1389h323l500 -1389h-297z" />
    <glyph glyph-name="adotabove" unicode="&#x227;" horiz-adv-x="1150" 
d="M696 1389v-213h-270v213h270zM592 473q-152 0 -203 -49q-33 -33 -33 -109q0 -77 44 -103t130 -26q147 0 218 103v178q-93 6 -156 6zM748 739q0 57 -10 81q-25 57 -210 58q-184 1 -362 -38v196q156 41 400 41t346 -75q101 -75 102 -275v-727h-187l-34 106h-2
q-51 -59 -135 -94t-181 -35q-209 -1 -301 91t-92 242t80 231q111 109 416 108q82 0 170 -6v96z" />
    <glyph glyph-name="Otildemacron" unicode="&#x22c;" horiz-adv-x="1470" 
d="M1104 2046v-172h-737v172h737zM891 1683q49 0 113 25t104 55v-170q-36 -29 -100 -55t-126 -24q-62 1 -153 33q-92 32 -141 32q-100 0 -223 -78v172q39 29 107 55t126 24q60 -1 152 -35t141 -34zM1071 694q0 285 -75 399q-75 113 -261 113t-261 -114t-75 -398t75 -398
t261 -114t261 114t75 398zM1374 694q0 -367 -143 -547t-495 -180t-496 180q-143 180 -144 547q0 367 144 547t495 180t495 -180t144 -547z" />
    <glyph glyph-name="otildemacron" unicode="&#x22d;" horiz-adv-x="1253" 
d="M995 1704v-172h-737v172h737zM782 1341q48 0 112 25t105 55v-170q-35 -29 -99 -55t-126 -24q-62 1 -154 33t-141 32q-100 0 -223 -78v172q38 29 106 55t128 24q60 -1 151 -35q92 -34 141 -34zM383 522q0 -225 78 -303q55 -55 166 -55t166 55q78 78 77 303q0 225 -77 303
q-55 55 -166 55t-166 -55q-78 -78 -78 -303zM627 -33q-236 0 -384 119q-149 118 -149 436t149 437t385 119q236 -1 383 -119q148 -118 148 -436q0 -317 -148 -437q-148 -119 -384 -119z" />
    <glyph glyph-name="Odotabove" unicode="&#x22e;" horiz-adv-x="1470" 
d="M870 1733v-213h-270v213h270zM1374 694q0 -367 -143 -547t-495 -180t-496 180q-143 180 -144 547q0 367 144 547t495 180t495 -180t144 -547zM1071 694q0 285 -75 399q-75 113 -261 113t-261 -114t-75 -398t75 -398t261 -114t261 114t75 398z" />
    <glyph glyph-name="odotabove" unicode="&#x22f;" horiz-adv-x="1253" 
d="M762 1389v-213h-270v213h270zM383 522q0 -225 78 -303q55 -55 166 -55t166 55q78 78 77 303q0 225 -77 303q-55 55 -166 55t-166 -55q-78 -78 -78 -303zM627 -33q-236 0 -384 119q-149 118 -149 436t149 437t385 119q236 -1 383 -119q148 -118 148 -436q0 -317 -148 -437
q-148 -119 -384 -119z" />
    <glyph glyph-name="Odotabovemacron" unicode="&#x230;" horiz-adv-x="1470" 
d="M1374 694q0 -367 -143 -547t-495 -180t-496 180q-143 180 -144 547q0 367 144 547t495 180t495 -180t144 -547zM1071 694q0 285 -75 399q-75 113 -261 113t-261 -114t-75 -398t75 -398t261 -114t261 114t75 398zM872 1729v-213h-270v213h270zM1104 2052v-184h-737v184
h737z" />
    <glyph glyph-name="odotabovemacron" unicode="&#x231;" horiz-adv-x="1253" 
d="M995 1708v-184h-737v184h737zM762 1386v-212h-270v212h270zM383 522q0 -225 78 -303q55 -55 166 -55t166 55q78 78 77 303q0 225 -77 303q-55 55 -166 55t-166 -55q-78 -78 -78 -303zM627 -33q-236 0 -384 119q-149 118 -149 436t149 437t385 119q236 -1 383 -119
q148 -118 148 -436q0 -317 -148 -437q-148 -119 -384 -119z" />
    <glyph glyph-name="odotabovemacron" unicode="&#xe11e;" horiz-adv-x="1253" 
d="M995 1708v-184h-737v184h737zM762 1386v-212h-270v212h270zM383 522q0 -225 78 -303q55 -55 166 -55t166 55q78 78 77 303q0 225 -77 303q-55 55 -166 55t-166 -55q-78 -78 -78 -303zM627 -33q-236 0 -384 119q-149 118 -149 436t149 437t385 119q236 -1 383 -119
q148 -118 148 -436q0 -317 -148 -437q-148 -119 -384 -119z" />
    <glyph glyph-name="Ymacron" unicode="&#x232;" horiz-adv-x="1269" 
d="M1010 1733v-185h-738v185h738zM770 0h-281v504l-499 885h309l336 -637h6l344 637h295l-510 -883v-506z" />
    <glyph glyph-name="ymacron" unicode="&#x233;" horiz-adv-x="1136" 
d="M934 1389v-185h-737v185h737zM713 690l137 354h272l-571 -1388h-281l156 379l-416 1009h291l137 -354q70 -182 135 -383h5q61 193 135 383z" />
    <glyph glyph-name="dotlessj" unicode="&#x237;" horiz-adv-x="591" 
d="M166 123v921h270v-710q0 -251 -14 -362q-14 -110 -44 -178t-81 -138h-248q117 199 117 467z" />
    <glyph glyph-name="schwa" unicode="&#x259;" horiz-adv-x="1161" 
d="M358 354q0 -96 46 -142t152 -46q104 0 156 52t62 179h-414q-2 -27 -2 -43zM780 584q0 154 -66 220t-238 66q-171 0 -329 -41v195q180 53 379 53q287 0 414 -135t127 -433t-148 -420t-371 -122q-446 0 -446 449q1 86 11 168h667z" />
    <glyph glyph-name="yogh" unicode="&#x292;" horiz-adv-x="1030" 
d="M664 49q0 135 -87 182q-71 39 -167 39q-95 0 -174 -6l-9 162l353 408v4h-496v206h823v-180l-334 -391q177 -25 277 -126t100 -288q0 -223 -147 -329t-397 -107q-180 0 -357 60v208q188 -49 350 -49q265 0 265 207z" />
    <glyph glyph-name="circumflex" unicode="&#x2c6;" 
d="M494 1395h241l250 -246h-246l-125 117l-125 -117h-243z" />
    <glyph glyph-name="caron" unicode="&#x2c7;" 
d="M735 1149h-241l-248 246h243l125 -117l125 117h246z" />
    <glyph glyph-name="breve" unicode="&#x2d8;" 
d="M614 1284q147 0 174 105h213q-41 -261 -387 -261t-387 261h213q27 -105 174 -105z" />
    <glyph glyph-name="dotaccent" unicode="&#x2d9;" 
d="M750 1389v-213h-271v213h271z" />
    <glyph glyph-name="ring" unicode="&#x2da;" 
d="M825 1296q0 -164 -212 -164t-212 164t212 164t212 -164zM684 1296q0 66 -71 66t-70 -66q1 -61 71 -61t70 61z" />
    <glyph glyph-name="ogonek" unicode="&#x2db;" 
d="M616 -168q0 -63 77 -63t145 22v-139q-74 -29 -186 -29t-171 42t-59 118q0 129 127 217h194q-127 -68 -127 -168z" />
    <glyph glyph-name="tilde" unicode="&#x2dc;" 
d="M764 1352q48 0 112 24t105 56v-181q-35 -29 -99 -55t-126 -24q-62 1 -154 33t-141 32q-100 0 -223 -78v182q38 29 106 55t128 24t151 -34q92 -34 141 -34z" />
    <glyph glyph-name="hungarumlaut" unicode="&#x2dd;" 
d="M1225 1389l-324 -236h-194l225 236h293zM842 1389l-324 -236h-194l225 236h293z" />
    <glyph glyph-name="commaabovecmb" unicode="&#x313;" 
d="M543 991l86 398h264l-201 -398h-149z" />
    <glyph glyph-name="uni0323" unicode="&#x323;" 
d="M741 -180v-223h-254v223h254z" />
    <glyph glyph-name="uni0329" unicode="&#x329;" 
d="M723 -152v-368h-215v368h215z" />
    <glyph glyph-name="pi" unicode="&#x3c0;" horiz-adv-x="1579" 
d="M874 340v596h-272v-686l-35 -250h-243l8 256v680h-221v207h1312v-207h-278v-598q0 -84 17 -116t92 -32t151 17v-195q-104 -29 -209 -28q-194 0 -258 70t-64 286z" />
    <glyph glyph-name="pi" unicode="&#x3d6;" horiz-adv-x="1579" 
d="M874 340v596h-272v-686l-35 -250h-243l8 256v680h-221v207h1312v-207h-278v-598q0 -84 17 -116t92 -32t151 17v-195q-104 -29 -209 -28q-194 0 -258 70t-64 286z" />
    <glyph glyph-name="Ddotbelow" unicode="&#x1e0c;" horiz-adv-x="1433" 
d="M758 -180v-223h-254v223h254zM696 0h-530v1389h502q354 0 512 -167t158 -538t-175 -539q-152 -145 -467 -145zM449 219h256q152 0 215 62q116 113 116 409t-110 412q-63 68 -219 67h-258v-950z" />
    <glyph glyph-name="ddotbelow" unicode="&#x1e0d;" horiz-adv-x="1267" 
d="M743 -180v-223h-254v223h254zM631 854q-145 0 -197 -84t-51 -259q0 -175 55 -248q56 -73 180 -73t224 121v480q-66 63 -211 63zM94 514q0 272 137 414t371 141q147 0 240 -55v375h270v-1389h-188l-31 115h-2q-135 -139 -316 -140q-241 0 -361 133q-120 134 -120 406z" />
    <glyph glyph-name="Dcedilla" unicode="&#x1e10;" horiz-adv-x="1433" 
d="M668 -199q0 36 -82 47l41 74q147 -6 207 -52t59 -99q0 -147 -279 -148q-102 0 -194 29v139q96 -31 172 -31t76 41zM696 0h-530v1389h502q354 0 512 -167t158 -538t-175 -539q-152 -145 -467 -145zM449 219h256q152 0 215 62q116 113 116 409t-110 412q-63 68 -219 67
h-258v-950z" />
    <glyph glyph-name="dcedilla" unicode="&#x1e11;" horiz-adv-x="1267" 
d="M631 -199q0 36 -82 47l41 74q146 -6 206 -52t60 -99q0 -147 -278 -148q-100 0 -195 29v139q98 -31 173 -31t75 41zM631 854q-145 0 -197 -84t-51 -259q0 -175 55 -248q56 -73 180 -73t224 121v480q-66 63 -211 63zM94 514q0 272 137 414t371 141q147 0 240 -55v375h270
v-1389h-188l-31 115h-2q-135 -139 -316 -140q-241 0 -361 133q-120 134 -120 406z" />
    <glyph glyph-name="Hdotbelow" unicode="&#x1e24;" horiz-adv-x="1474" 
d="M868 -180v-223h-254v223h254zM449 0h-283v1389h283v-572h577v572h283v-1389h-283v598h-577v-598z" />
    <glyph glyph-name="hdotbelow" unicode="&#x1e25;" horiz-adv-x="1269" 
d="M774 -180v-223h-254v223h254zM156 0v1389h270v-441h4q150 121 344 121t277 -76q82 -76 82 -250v-743h-271v694q0 90 -36 125t-118 35t-158 -39t-124 -96v-719h-270z" />
    <glyph glyph-name="Ldotbelow" unicode="&#x1e36;" horiz-adv-x="1099" 
d="M756 -180v-223h-254v223h254zM1094 219v-219h-928v1389h283v-1170h645z" />
    <glyph glyph-name="ldotbelow" unicode="&#x1e37;" horiz-adv-x="581" 
d="M416 -180v-223h-254v223h254zM426 1389v-1389h-270v1389h270z" />
    <glyph glyph-name="Ldotbelowmacron" unicode="&#x1e38;" horiz-adv-x="1099" 
d="M756 -180v-223h-254v223h254zM676 1733v-185h-737v185h737zM1094 219v-219h-928v1389h283v-1170h645z" />
    <glyph glyph-name="ldotbelowmacron" unicode="&#x1e39;" horiz-adv-x="581" 
d="M416 -180v-223h-254v223h254zM659 1681v-184h-737v184h737zM426 1389v-1389h-270v1389h270z" />
    <glyph glyph-name="Mdotbelow" unicode="&#x1e42;" horiz-adv-x="1783" 
d="M1014 -180v-223h-254v223h254zM434 0h-272v1389h370l357 -766h6l356 766h371v-1389h-276v524q0 223 24 586h-6q-61 -201 -145 -379l-228 -471h-203l-227 471q-84 178 -145 379h-6q25 -362 24 -586v-524z" />
    <glyph glyph-name="mdotbelow" unicode="&#x1e43;" horiz-adv-x="1873" 
d="M1073 -180v-223h-254v223h254zM1737 743v-743h-271v694q0 90 -30 125q-31 35 -104 35q-72 0 -140 -39t-111 -96v-719h-270v694q0 90 -31 125q-32 35 -104 35t-140 -39t-110 -96v-719h-270v1044h188l37 -137h4q145 162 358 162q243 1 306 -149h4q143 150 335 150t271 -77
q78 -76 78 -250z" />
    <glyph glyph-name="Ndotaccent" unicode="&#x1e44;" horiz-adv-x="1513" 
d="M922 1733v-213h-271v213h271zM436 434v-434h-270v1389h317l418 -680q111 -172 189 -342h6q-18 369 -19 587v435h271v-1389h-310l-430 684q-104 160 -184 334h-6q18 -369 18 -584z" />
    <glyph glyph-name="ndotaccent" unicode="&#x1e45;" horiz-adv-x="1269" 
d="M795 1389v-213h-271v213h271zM757 1069q212 0 294 -76t82 -250v-743h-271v694q0 90 -36 125t-118 35t-158 -39t-124 -96v-719h-270v1044h188l37 -137h4q160 162 372 162z" />
    <glyph glyph-name="Ndotbelow" unicode="&#x1e46;" horiz-adv-x="1513" 
d="M858 -180v-223h-254v223h254zM436 434v-434h-270v1389h317l418 -680q111 -172 189 -342h6q-18 369 -19 587v435h271v-1389h-310l-430 684q-104 160 -184 334h-6q18 -369 18 -584z" />
    <glyph glyph-name="ndotbelow" unicode="&#x1e47;" horiz-adv-x="1269" 
d="M770 -180v-223h-254v223h254zM757 1069q212 0 294 -76t82 -250v-743h-271v694q0 90 -36 125t-118 35t-158 -39t-124 -96v-719h-270v1044h188l37 -137h4q160 162 372 162z" />
    <glyph glyph-name="Rdotbelow" unicode="&#x1e5a;" horiz-adv-x="1339" 
d="M829 -180v-223h-254v223h254zM698 1169h-249v-424h253q111 1 127 5q15 4 33 9t35 23q59 59 59 175t-59 176q-32 32 -109 35q-24 1 -90 1zM449 0h-283v1389h559q162 0 256 -22q268 -63 266 -411q0 -215 -108 -323q-80 -78 -195 -101l350 -532h-323l-340 526h-182v-526z
" />
    <glyph glyph-name="rdotbelow" unicode="&#x1e5b;" horiz-adv-x="817" 
d="M418 -180v-223h-254v223h254zM662 1067q98 0 147 -31v-205q-55 19 -138 19q-150 1 -245 -164v-686h-270v1044h188l39 -147h2q100 170 277 170z" />
    <glyph glyph-name="Rdotbelowmacron" unicode="&#x1e5c;" horiz-adv-x="1339" 
d="M1016 1733v-185h-737v185h737zM829 -180v-223h-254v223h254zM698 1169h-249v-424h253q111 1 127 5q15 4 33 9t35 23q59 59 59 175t-59 176q-32 32 -109 35q-24 1 -90 1zM449 0h-283v1389h559q162 0 256 -22q268 -63 266 -411q0 -215 -108 -323q-80 -78 -195 -101
l350 -532h-323l-340 526h-182v-526z" />
    <glyph glyph-name="rdotbelowmacron" unicode="&#x1e5d;" horiz-adv-x="817" 
d="M418 -180v-223h-254v223h254zM850 1389v-185h-737v185h737zM662 1067q98 0 147 -31v-205q-55 19 -138 19q-150 1 -245 -164v-686h-270v1044h188l39 -147h2q100 170 277 170z" />
    <glyph glyph-name="Sdotbelow" unicode="&#x1e62;" horiz-adv-x="1255" 
d="M756 -180v-223h-254v223h254zM565 201q330 0 330 196q0 113 -67 147t-208 41t-221 26q-79 19 -149 63q-142 89 -142 314q2 433 584 433q221 0 373 -51v-211q-176 41 -367 41q-301 0 -301 -176q0 -86 42 -126t153 -46q35 -2 126 -6q340 -15 429 -220q37 -85 37 -208
q0 -223 -165 -337t-429 -114t-453 62v223q190 -51 428 -51z" />
    <glyph glyph-name="sdotbelow" unicode="&#x1e63;" horiz-adv-x="1048" 
d="M655 -180v-223h-254v223h254zM358 766q0 -92 99 -105q45 -6 122 -7q160 -2 273 -61q135 -70 135 -257q0 -188 -140 -278t-382 -91q-180 0 -359 53v207q183 -45 355 -45q258 0 258 117q0 71 -50 93q-51 22 -157 24t-174 15t-127 48q-123 73 -123 256t129 263t341 79
q212 0 335 -41v-196q-143 35 -322 34q-213 0 -213 -108z" />
    <glyph glyph-name="Tdotbelow" unicode="&#x1e6c;" horiz-adv-x="1085" 
d="M670 -180v-223h-254v223h254zM684 1169v-1169h-283v1169h-389v220h1061v-220h-389z" />
    <glyph glyph-name="tdotbelow" unicode="&#x1e6d;" horiz-adv-x="860" 
d="M645 -180v-223h-254v223h254zM213 350v498h-170v174l195 25l67 231h180v-234h322v-196h-324v-492q0 -104 33 -134t122 -30t173 23v-195q-102 -40 -279 -40t-248 78t-71 292z" />
    <glyph glyph-name="Wgrave" unicode="&#x1e80;" horiz-adv-x="1984" 
d="M801 1501l-328 232h322l229 -232h-223zM780 1389h291l234 -707q70 -215 114 -403h8q51 270 86 409l181 701h280l-379 -1389h-323l-174 518q-87 266 -101 316h-6q-55 -184 -100 -314l-178 -520h-324l-379 1389h293l178 -699q59 -229 88 -411h9q49 193 114 389l166 493z
" />
    <glyph glyph-name="wgrave" unicode="&#x1e81;" horiz-adv-x="1681" 
d="M670 1157l-328 232h322l229 -232h-223zM649 1044h256l142 -382q104 -291 129 -396h4q12 59 106 402l113 376h268l-342 -1044h-272l-211 545h-4l-209 -545h-277l-338 1044h279l117 -374q82 -287 102 -404h4q16 66 139 412l66 180q-72 184 -72 186z" />
    <glyph glyph-name="Wacute" unicode="&#x1e82;" horiz-adv-x="1984" 
d="M1358 1733l-328 -232h-223l229 232h322zM780 1389h291l234 -707q70 -215 114 -403h8q51 270 86 409l181 701h280l-379 -1389h-323l-174 518q-87 266 -101 316h-6q-55 -184 -100 -314l-178 -520h-324l-379 1389h293l178 -699q59 -229 88 -411h9q49 193 114 389l166 493z
" />
    <glyph glyph-name="wacute" unicode="&#x1e83;" horiz-adv-x="1681" 
d="M1206 1389l-327 -232h-224l230 232h321zM649 1044h256l142 -382q104 -291 129 -396h4q12 59 106 402l113 376h268l-342 -1044h-272l-211 545h-4l-209 -545h-277l-338 1044h279l117 -374q82 -287 102 -404h4q16 66 139 412l66 180q-72 184 -72 186z" />
    <glyph glyph-name="Wdieresis" unicode="&#x1e84;" horiz-adv-x="1984" 
d="M1331 1729v-213h-258v213h258zM870 1729v-213h-258v213h258zM780 1389h291l234 -707q70 -215 114 -403h8q51 270 86 409l181 701h280l-379 -1389h-323l-174 518q-87 266 -101 316h-6q-55 -184 -100 -314l-178 -520h-324l-379 1389h293l178 -699q59 -229 88 -411h9
q49 193 114 389l166 493z" />
    <glyph glyph-name="wdieresis" unicode="&#x1e85;" horiz-adv-x="1681" 
d="M1157 1384v-213h-258v213h258zM696 1384v-213h-258v213h258zM649 1044h256l142 -382q104 -291 129 -396h4q12 59 106 402l113 376h268l-342 -1044h-272l-211 545h-4l-209 -545h-277l-338 1044h279l117 -374q82 -287 102 -404h4q16 66 139 412l66 180q-72 184 -72 186z
" />
    <glyph glyph-name="Idotbelow" unicode="&#x1eca;" horiz-adv-x="614" 
d="M449 0h-283v1389h283v-1389zM432 -180v-223h-254v223h254z" />
    <glyph glyph-name="idotbelow" unicode="&#x1ecb;" horiz-adv-x="581" 
d="M442 1389v-222h-303v222h303zM426 1044v-1044h-270v1044h270zM418 -180v-223h-254v223h254z" />
    <glyph glyph-name="Odotbelow" unicode="&#x1ecc;" horiz-adv-x="1470" 
d="M862 -180v-223h-254v223h254zM1374 694q0 -367 -143 -547t-495 -180t-496 180q-143 180 -144 547q0 367 144 547t495 180t495 -180t144 -547zM1071 694q0 285 -75 399q-75 113 -261 113t-261 -114t-75 -398t75 -398t261 -114t261 114t75 398z" />
    <glyph glyph-name="odotbelow" unicode="&#x1ecd;" horiz-adv-x="1253" 
d="M754 -180v-223h-254v223h254zM383 522q0 -225 78 -303q55 -55 166 -55t166 55q78 78 77 303q0 225 -77 303q-55 55 -166 55t-166 -55q-78 -78 -78 -303zM627 -33q-236 0 -384 119q-149 118 -149 436t149 437t385 119q236 -1 383 -119q148 -118 148 -436q0 -317 -148 -437
q-148 -119 -384 -119z" />
    <glyph glyph-name="Udotbelow" unicode="&#x1ee4;" horiz-adv-x="1415" 
d="M838 -180v-223h-254v223h254zM418 436q0 -124 64 -188t226 -64q161 0 225 64t64 188v953h283v-918q0 -250 -127 -377t-445 -127t-454 135q-119 119 -119 369v918h283v-953z" />
    <glyph glyph-name="udotbelow" unicode="&#x1ee5;" horiz-adv-x="1269" 
d="M768 -180v-223h-254v223h254zM496 -25q-193 0 -276 81t-83 255v733h271v-694q0 -90 36 -125t117 -35q82 0 159 39t124 97v718h270v-1044h-188l-37 137h-4q-160 -162 -389 -162z" />
    <glyph glyph-name="Ygrave" unicode="&#x1ef2;" horiz-adv-x="1269" 
d="M551 1501l-328 232h322l229 -232h-223zM770 0h-281v504l-499 885h309l336 -637h6l344 637h295l-510 -883v-506z" />
    <glyph glyph-name="ygrave" unicode="&#x1ef3;" horiz-adv-x="1136" 
d="M492 1157l-328 232h321l230 -232h-223zM713 690l137 354h272l-571 -1388h-281l156 379l-416 1009h291l137 -354q70 -182 135 -383h5q61 193 135 383z" />
    <glyph glyph-name="Ytilde" unicode="&#x1ef8;" horiz-adv-x="1269" 
d="M797 1708q49 0 112 25t105 55v-180q-35 -29 -100 -55q-65 -27 -126 -25t-153 34t-141 31q-100 0 -224 -77v182q39 28 107 54q67 26 127 25t152 -35t141 -34zM770 0h-281v504l-499 885h309l336 -637h6l344 637h295l-510 -883v-506z" />
    <glyph glyph-name="ytilde" unicode="&#x1ef9;" horiz-adv-x="1136" 
d="M721 1352q49 0 113 24t104 56v-181q-36 -29 -100 -55t-126 -24q-62 1 -153 33q-92 32 -141 32q-100 0 -223 -78v182q39 29 107 55t126 24q60 -2 152 -34q92 -34 141 -34zM713 690l137 354h272l-571 -1388h-281l156 379l-416 1009h291l137 -354q70 -182 135 -383h5
q61 193 135 383z" />
    <glyph glyph-name="enspace" unicode="&#x2002;" horiz-adv-x="1024" 
 />
    <glyph glyph-name="emspace" unicode="&#x2003;" horiz-adv-x="2048" 
 />
    <glyph glyph-name="threeperemspace" unicode="&#x2004;" horiz-adv-x="681" 
 />
    <glyph glyph-name="fourperemspace" unicode="&#x2005;" horiz-adv-x="512" 
 />
    <glyph glyph-name="sixperemspace" unicode="&#x2006;" horiz-adv-x="342" 
 />
    <glyph glyph-name="figurespace" unicode="&#x2007;" horiz-adv-x="1433" 
 />
    <glyph glyph-name="punctuationspace" unicode="&#x2008;" horiz-adv-x="573" 
 />
    <glyph glyph-name="thinspace" unicode="&#x2009;" horiz-adv-x="409" 
 />
    <glyph glyph-name="hairspace" unicode="&#x200a;" horiz-adv-x="204" 
 />
    <glyph glyph-name="zerowidthspace" unicode="&#x200b;" horiz-adv-x="0" 
 />
    <glyph glyph-name="figuredash" unicode="&#x2012;" horiz-adv-x="1843" 
d="M1747 659v-219h-1651v219h1651z" />
    <glyph glyph-name="endash" unicode="&#x2013;" horiz-adv-x="1292" 
d="M1196 659v-219h-1100v219h1100z" />
    <glyph glyph-name="emdash" unicode="&#x2014;" horiz-adv-x="2392" 
d="M2296 659v-219h-2200v219h2200z" />
    <glyph glyph-name="doublebar" unicode="&#x2016;" horiz-adv-x="1284" 
d="M854 1563v-1737h-170v1737h170zM600 1563v-1737h-170v1737h170z" />
    <glyph glyph-name="quoteleft" unicode="&#x2018;" horiz-adv-x="620" 
d="M518 1389l-141 -601h-326l256 601h211z" />
    <glyph glyph-name="quoteright" unicode="&#x2019;" horiz-adv-x="620" 
d="M102 788l142 601h325l-256 -601h-211z" />
    <glyph glyph-name="quotesinglbase" unicode="&#x201a;" horiz-adv-x="620" 
d="M102 -285l142 600h325l-256 -600h-211z" />
    <glyph glyph-name="reversequoteleft" unicode="&#x201b;" horiz-adv-x="620" 
d="M377 1389l141 -601h-211l-256 601h326z" />
    <glyph glyph-name="quotedblleft" unicode="&#x201c;" horiz-adv-x="1110" 
d="M518 1389l-141 -601h-326l256 601h211zM1008 1389l-142 -601h-325l256 601h211z" />
    <glyph glyph-name="quotedblright" unicode="&#x201d;" horiz-adv-x="1110" 
d="M592 788l141 601h326l-256 -601h-211zM102 788l142 601h325l-256 -601h-211z" />
    <glyph glyph-name="quotedblbase" unicode="&#x201e;" horiz-adv-x="1110" 
d="M592 -285l141 600h326l-256 -600h-211zM102 -285l142 600h325l-256 -600h-211z" />
    <glyph glyph-name="reversequotedblleft" unicode="&#x201f;" horiz-adv-x="1112" 
d="M377 1389l141 -601h-211l-256 601h326zM868 1389l142 -601h-211l-256 601h325z" />
    <glyph glyph-name="dagger" unicode="&#x2020;" horiz-adv-x="903" 
d="M557 795l-22 -969h-166l-23 969l-295 -25v229l295 -24l-24 414h260l-25 -414l295 24v-229z" />
    <glyph glyph-name="daggerdbl" unicode="&#x2021;" horiz-adv-x="903" 
d="M557 795l-6 -244l242 20v-194l-246 18l-12 -569h-166l-15 569l-243 -18v194l241 -20l-6 244l-295 -25v229l295 -24l-24 414h260l-25 -414l295 24v-229z" />
    <glyph glyph-name="bullet" unicode="&#x2022;" 
d="M295 702q0 132 94 226t225 94q132 0 226 -93t94 -227t-94 -226q-94 -93 -226 -93t-225 93q-94 93 -94 226z" />
    <glyph glyph-name="ellipsis" unicode="&#x2026;" horiz-adv-x="2205" 
d="M2130 281v-281h-318v281h318zM1262 281v-281h-318v281h318zM393 281v-281h-317v281h317z" />
    <glyph glyph-name="perthousand" unicode="&#x2030;" horiz-adv-x="2609" 
d="M2333 98q0 109 -27 164q-26 55 -108 55t-109 -55t-27 -164t27 -164t109 -55t108 55t27 164zM2550 98q0 -184 -82 -281t-270 -97t-270 96q-82 98 -83 282q0 184 82 282q83 98 271 97q188 1 270 -97t82 -282zM1524 100q0 109 -27 164t-109 55t-108 -55q-27 -55 -27 -164
q0 -110 27 -164t109 -54q83 0 109 54q26 55 26 164zM1741 100q0 -184 -82 -281t-270 -97q-189 0 -271 96q-82 98 -82 282t82 282t270 97q188 1 271 -97q82 -98 82 -282zM582 797q0 109 -27 164t-109 55t-108 -55t-27 -164q0 -109 27 -164q26 -55 108 -55t109 55t27 164z
M799 797q0 -183 -82 -281q-83 -98 -271 -98t-270 97t-82 281t82 282t270 98t270 -98t83 -281zM1526 1143l-991 -1389h-222l992 1389h221z" />
    <glyph glyph-name="tripleprime" unicode="&#x2034;" horiz-adv-x="1280" 
d="M762 1389l-41 -601h-164l-41 601h246zM1163 1389l-41 -601h-164l-40 601h245zM362 1389l-40 -601h-164l-41 601h245z" />
    <glyph glyph-name="guilsinglleft" unicode="&#x2039;" horiz-adv-x="851" 
d="M743 104h-305l-329 474l329 466h305l-325 -466z" />
    <glyph glyph-name="guilsinglright" unicode="&#x203a;" horiz-adv-x="851" 
d="M414 104h-305l325 474l-325 466h305l329 -466z" />
    <glyph glyph-name="fraction" unicode="&#x2044;" horiz-adv-x="368" 
d="M791 1389l-992 -1389h-221l991 1389h222z" />
    <glyph glyph-name="uni2070" unicode="&#x2070;" horiz-adv-x="776" 
d="M279 1022q0 -121 20 -180q20 -60 89 -60t89 60q21 60 21 160t-5 145t-31 80t-73 35q-70 0 -90 -60t-20 -180zM388 1405q181 -1 250 -97t69 -285t-69 -287t-250 -97q-181 0 -250 97q-68 96 -68 286t68 287q69 96 250 96z" />
    <glyph glyph-name="uni2074" unicode="&#x2074;" horiz-adv-x="673" 
d="M578 807v-152h-193v152h-344l-10 137l262 445h190l-245 -437v-2l163 2l25 207h152v-207h77v-145h-77z" />
    <glyph glyph-name="uni2075" unicode="&#x2075;" horiz-adv-x="673" 
d="M298 788q72 0 101 20t29 73q0 90 -152 90q-61 0 -184 -8v426h494v-144h-301v-129h47q301 0 301 -229q0 -119 -89 -184q-88 -65 -216 -65t-240 38v145q138 -33 210 -33z" />
    <glyph glyph-name="uni2076" unicode="&#x2076;" horiz-adv-x="729" 
d="M385 999q-74 0 -111 -47q-4 -170 111 -170q98 0 98 108t-98 109zM412 1145q132 0 200 -69q68 -70 68 -182t-79 -184t-226 -71q-313 0 -314 367q1 197 89 298t280 101q123 0 199 -33v-143q-80 29 -195 28q-164 0 -168 -141l2 -2q66 31 144 31z" />
    <glyph glyph-name="uni2077" unicode="&#x2077;" horiz-adv-x="587" 
d="M213 1245h-190v144h534l10 -117l-260 -617h-215l156 359q49 113 104 231v2q-43 -2 -139 -2z" />
    <glyph glyph-name="uni2078" unicode="&#x2078;" horiz-adv-x="753" 
d="M377 1094q96 0 96 90t-96 90t-96 -90t96 -90zM377 774q106 0 106 92q1 49 -23 73t-83 24q-59 1 -83 -23t-24 -74q1 -92 107 -92zM377 1405q127 0 209 -51t82 -156t-86 -166v-2q46 -20 74 -65t28 -103q0 -119 -87 -171t-220 -52t-220 52t-87 171q0 57 28 103q29 45 74 65
v2q-86 62 -86 166t82 156t209 51z" />
    <glyph glyph-name="uni2079" unicode="&#x2079;" horiz-adv-x="729" 
d="M344 1044q74 0 111 48q4 170 -111 170q-98 0 -98 -109t98 -109zM317 899q-131 0 -199 69q-68 70 -69 182q0 112 79 184t226 71q313 0 314 -367q0 -197 -88 -298t-281 -101q-123 0 -199 33v143q80 -29 195 -29q164 1 168 142l-2 2q-66 -31 -144 -31z" />
    <glyph glyph-name="uni207A" unicode="&#x207a;" horiz-adv-x="759" 
d="M678 1102v-141h-207v-218h-184v218h-205v141h205v217h184v-217h207z" />
    <glyph glyph-name="uni207B" unicode="&#x207b;" horiz-adv-x="759" 
d="M678 1102v-141h-596v141h596z" />
    <glyph glyph-name="uni207C" unicode="&#x207c;" horiz-adv-x="774" 
d="M692 987v-141h-610v141h610zM692 1217v-142h-610v142h610z" />
    <glyph glyph-name="uni207D" unicode="&#x207d;" horiz-adv-x="434" 
d="M285 1033q0 -214 98 -466h-164q-135 250 -135 460t133 450h168q-100 -230 -100 -444z" />
    <glyph glyph-name="uni207E" unicode="&#x207e;" horiz-adv-x="438" 
d="M152 1033q0 214 -101 444h168q133 -242 133 -448t-135 -462h-164q99 252 99 466z" />
    <glyph glyph-name="n.superior" unicode="&#x207f;" horiz-adv-x="829" 
d="M502 1253q126 0 179 -50q54 -50 54 -161v-471h-198v441q-1 49 -19 68t-65 20q-84 0 -154 -74v-455h-199v666h148l20 -78h2q106 94 232 94z" />
    <glyph glyph-name="uni2080" unicode="&#x2080;" horiz-adv-x="776" 
d="M279 367q0 -121 20 -181t89 -59q69 0 89 59q21 59 21 160t-5 146q-5 46 -31 80t-73 34q-70 0 -90 -59t-20 -180zM707 368q0 -188 -69 -286t-250 -98t-250 97q-68 97 -68 287t68 285q69 97 250 97t250 -96t69 -286z" />
    <glyph glyph-name="uni2081" unicode="&#x2081;" horiz-adv-x="489" 
d="M176 578q-103 0 -166 -3v125l363 45v-745h-197v578z" />
    <glyph glyph-name="uni2082" unicode="&#x2082;" horiz-adv-x="645" 
d="M578 143v-143h-533l-10 125q6 4 38 29q32 26 46 36t47 37t50 43t45 44t42 51t37 58t25 93q0 88 -119 88q-94 0 -189 -31v144q101 33 227 33t208 -54t82 -162q0 -110 -55 -193q-54 -83 -195 -198v-2q43 2 168 2h86z" />
    <glyph glyph-name="uni2083" unicode="&#x2083;" horiz-adv-x="679" 
d="M315 442q84 0 84 78q0 84 -103 84t-210 -31v144q102 33 229 33t207 -54t80 -156q0 -104 -90 -163v-2q100 -51 100 -164t-93 -171t-216 -57t-237 37v146q121 -33 219 -33q123 0 123 88q0 82 -80 80h-170v141h157z" />
    <glyph glyph-name="uni2084" unicode="&#x2084;" horiz-adv-x="673" 
d="M578 152v-152h-193v152h-344l-10 137l262 444h190l-245 -436v-2l163 2l25 207h152v-207h77v-145h-77z" />
    <glyph glyph-name="uni2085" unicode="&#x2085;" horiz-adv-x="673" 
d="M298 119q72 0 101 20t29 72q0 90 -152 90q-61 0 -184 -8v426h494v-144h-301v-129h47q301 0 301 -229q0 -119 -89 -183q-88 -64 -216 -65q-128 0 -240 37v146q138 -33 210 -33z" />
    <glyph glyph-name="uni2086" unicode="&#x2086;" horiz-adv-x="729" 
d="M385 344q-74 0 -111 -47q-4 -170 111 -170q98 1 98 109t-98 108zM680 240q0 -112 -79 -185q-79 -72 -226 -71q-313 0 -314 366q1 197 89 298t280 102q123 0 199 -33v-144q-80 29 -195 29q-164 0 -168 -141l2 -2q66 31 144 30q132 -1 200 -69t68 -180z" />
    <glyph glyph-name="uni2087" unicode="&#x2087;" horiz-adv-x="587" 
d="M213 590h-190v143h534l10 -117l-260 -616h-215l156 358q49 113 104 232v2q-43 -2 -139 -2z" />
    <glyph glyph-name="uni2088" unicode="&#x2088;" horiz-adv-x="753" 
d="M377 438q96 0 96 90t-96 90t-96 -90t96 -90zM377 119q106 0 106 92q1 49 -23 73t-83 24t-83 -24q-24 -23 -24 -73q1 -92 107 -92zM377 750q127 0 209 -52t82 -156t-86 -165v-2q46 -19 74 -65t28 -103q0 -119 -87 -171t-220 -52t-220 52t-87 171q0 57 28 102q29 45 74 66
v2q-86 61 -86 165t82 156t209 52z" />
    <glyph glyph-name="uni2089" unicode="&#x2089;" horiz-adv-x="729" 
d="M344 389q74 0 111 47q4 170 -111 170q-98 0 -98 -108t98 -109zM49 494q0 112 79 184t226 72q313 0 314 -367q0 -197 -88 -298t-281 -101q-123 0 -199 32v144q80 -29 195 -29q164 0 168 141l-2 2q-66 -31 -144 -30q-131 0 -199 68q-68 70 -69 182z" />
    <glyph glyph-name="uni208A" unicode="&#x208a;" horiz-adv-x="759" 
d="M678 449v-142h-207v-217h-184v217h-205v142h205v217h184v-217h207z" />
    <glyph glyph-name="uni208B" unicode="&#x208b;" horiz-adv-x="759" 
d="M678 449v-142h-596v142h596z" />
    <glyph glyph-name="uni208C" unicode="&#x208c;" horiz-adv-x="774" 
d="M692 332v-142h-610v142h610zM692 561v-141h-610v141h610z" />
    <glyph glyph-name="uni208D" unicode="&#x208d;" horiz-adv-x="434" 
d="M285 378q0 -214 98 -466h-164q-135 250 -135 460t133 449h168q-100 -229 -100 -443z" />
    <glyph glyph-name="uni208E" unicode="&#x208e;" horiz-adv-x="438" 
d="M152 378q0 214 -101 443h168q133 -241 133 -447t-135 -462h-164q99 252 99 466z" />
    <glyph glyph-name="uni20A1" unicode="&#x20a1;" horiz-adv-x="1060" 
d="M729 969q-101 -1 -155 -19t-86 -47t-52 -98t-20 -257t58 -275t237 -87q127 0 264 43v-209q-117 -43 -270 -51l-52 -211h-151l53 215q-57 8 -86 17l-59 -232h-152l76 287q-207 129 -207 511t178 518q74 56 182 81l60 234h151l-55 -215l35 2q37 0 57 -2l56 215h151
l-61 -238l71 -23v-196q-123 37 -223 37z" />
    <glyph glyph-name="uni20A2" unicode="&#x20a2;" horiz-adv-x="1118" 
d="M890 508q-83 0 -122 -98v-222q125 14 207 41v-209q-143 -53 -313 -53q-276 1 -406 147t-129 471q0 325 160 469q133 122 391 122q145 0 274 -48v-196q-123 37 -231 37q-109 0 -169 -24t-90 -80t-38 -121t-8 -175q0 -242 73 -321q18 -23 58 -41v483h162l30 -102h4
q43 115 146 114q47 0 72 -10v-190q-31 6 -71 6z" />
    <glyph glyph-name="franc" unicode="&#x20a3;" horiz-adv-x="1056" 
d="M72 629v139h188v375h797v-207h-529v-168h342v-139h-342v-94h342v-140h-342v-395h-268v395h-188v140h188v94h-188z" />
    <glyph glyph-name="lira" unicode="&#x20a4;" horiz-adv-x="1161" 
d="M866 395h-329l-17 -143q122 -47 270 -47t269 35v-207q-109 -43 -305 -43t-332 61q-55 -55 -162 -55q-65 0 -131 12l-23 4v189q43 2 67 4q23 2 51 18t30 45l14 127h-131v140h146l8 94h-154v139h168l2 8q25 203 127 301q102 99 292 99t316 -48v-196q-100 37 -228 37
t-175 -43t-61 -158h288v-139h-305l-10 -94h315v-140z" />
    <glyph glyph-name="uni20A6" unicode="&#x20a6;" horiz-adv-x="1529" 
d="M1485 395h-238v-395h-270l-340 553q-55 90 -119 238h-4q14 -223 14 -424v-367h-247v395h-236v140h236v94h-236v139h236v375h282l322 -549q53 -90 123 -246h4q-12 258 -13 434v361h248v-375h238v-139h-238v-94h238v-140z" />
    <glyph glyph-name="peseta" unicode="&#x20a7;" horiz-adv-x="2727" 
d="M449 948v-354h157q121 0 162 41t41 136t-41 136t-162 41h-157zM2126 182q221 0 221 117q0 74 -42 94t-144 23q-178 4 -278 73q-99 69 -99 249t121 260t316 79q195 0 306 -41v-196q-129 34 -298 34t-169 -108q0 -72 39 -92t128 -20q89 -1 149 -14t122 -47
q126 -71 124 -258q-1 -187 -133 -277t-359 -91q-148 0 -291 41v211q164 -37 287 -37zM449 399v-399h-273v1143h453q264 0 356 -92q29 -29 57 -82l187 26l67 260h181v-262h245v-196h-247v-437q-1 -100 37 -132q61 -52 212 -21v-205q-76 -22 -213 -22t-222 82t-85 288v447
h-121l2 -25q0 -180 -96 -276t-360 -97h-180z" />
    <glyph glyph-name="uni20A8" unicode="&#x20a8;" horiz-adv-x="2086" 
d="M449 948v-321h157q125 0 158 32q45 45 45 128t-39 122t-164 39h-157zM449 432v-432h-273v1143h453q143 -1 224 -17t132 -67q100 -99 100 -271t-100 -272q-53 -53 -147 -70q146 -222 490 -266q62 -8 120 -8q258 0 258 135q0 61 -41 83t-128 32t-128 17t-93 29t-81 54
q-68 74 -69 235t114 241t300 79q185 0 288 -41v-196q-119 34 -273 34t-153 -106q0 -72 46 -91q31 -13 101 -21q69 -7 111 -14t101 -30q58 -24 93 -56t61 -92t25 -142q0 -360 -553 -361q-313 0 -543 127t-333 344h-102z" />
    <glyph glyph-name="uni20A9" unicode="&#x20a9;" horiz-adv-x="1955" 
d="M47 629v139h172l-115 375h277l145 -529q37 -135 95 -387h8q45 186 104 365l117 344l-72 207h269l188 -551q55 -166 104 -367h7q8 37 29 124q22 87 38 158t27 105l145 531h268l-116 -375h172v-139h-215l-29 -94h244v-140h-287l-121 -395h-303l-213 625h-8l-217 -625h-303
l-123 395h-287v140h244l-29 94h-215z" />
    <glyph glyph-name="uni20AA" unicode="&#x20aa;" horiz-adv-x="1452" 
d="M1276 0h-424q-172 0 -273 87t-102 245v536h199v-520q0 -154 188 -153h197v948h215v-1143zM176 1143h424q172 0 273 -88t102 -244v-537h-199v521q0 152 -188 151h-199v-946h-213v1143z" />
    <glyph glyph-name="Euro" unicode="&#x20ac;" horiz-adv-x="1132" 
d="M759 184q126 0 288 45v-204q-115 -57 -334 -57t-351 102t-169 325h-177l64 140h100v94h-131l62 139h86q37 211 165 309q129 98 357 99q162 0 301 -48v-196q-137 37 -259 37t-189 -44t-91 -157h471l-67 -139h-420v-94h385l-68 -140h-305q23 -123 89 -167t193 -44z" />
    <glyph glyph-name="uni20AE" unicode="&#x20ae;" horiz-adv-x="1142" 
d="M692 936v-164l223 98v-157l-223 -97v-102l223 96v-151l-223 -97v-362h-243v256l-222 -96v149l222 97v102l-222 -96v155l222 97v272h-361v207h967v-207h-363z" />
    <glyph glyph-name="uni20B1" unicode="&#x20b1;" horiz-adv-x="1341" 
d="M487 936v-367h95q113 1 150 9q38 8 56 26q49 49 50 158t-62 151q-25 17 -52 19q-26 2 -34 3t-61 1h-142zM1317 707v-140h-254q-60 -141 -228 -181q-93 -22 -245 -21h-103v-365h-243v567h-219v140h219v94h-219v139h219v203h346q152 0 244 -22t157 -77q45 -41 72 -104h254
v-139h-223l2 -47l-2 -47h223z" />
    <glyph glyph-name="afii61289" unicode="&#x2113;" horiz-adv-x="892" 
d="M483 983v-205q39 74 67 179t28 183t-43 79q-31 1 -41 -49t-11 -187zM233 1001q0 229 77 325t211 95t209 -77t75 -234t-93 -333t-214 -306v-149q0 -78 14 -105t72 -27t110 15v-199q-76 -24 -200 -24t-189 61q-66 61 -67 250q-57 -24 -127 -51v219q78 29 122 65v475z" />
    <glyph glyph-name="numero" unicode="&#x2116;" horiz-adv-x="2566" 
d="M1507 0v217h869v-217h-869zM1940 1192q-110 0 -150 -79t-39 -220q0 -141 39 -221q38 -80 148 -80t150 78t40 219t-39 222t-149 81zM2406 891q0 -283 -124 -399t-343 -115q-219 0 -343 116q-124 117 -124 399t124 398t343 115q219 1 343 -115t124 -399zM492 0h-267v1389
h312l356 -680q94 -184 135 -314h6q-16 328 -16 559v435h266v-1389h-301l-371 674q-76 135 -131 311h-6q16 -328 17 -551v-434z" />
    <glyph glyph-name="published" unicode="&#x2117;" horiz-adv-x="1818" 
d="M965 721q90 0 90 95t-90 95h-131v-190h131zM1247 817q-1 -137 -73 -188t-226 -51h-114v-234h-191v713h305q154 0 227 -51q72 -52 72 -189zM909 1243q-291 -1 -431 -145t-140 -408t142 -405t429 -142q571 0 572 545q0 555 -572 555zM125 690q0 346 204 539
q205 193 579 193t580 -190q206 -188 206 -540t-206 -538t-579 -186t-579 188t-205 534z" />
    <glyph glyph-name="servicemark" unicode="&#x2120;" horiz-adv-x="1423" 
d="M268 874q125 0 125 70q0 52 -54 64q-23 4 -97 8t-133 45t-60 141q0 197 268 197q109 0 175 -25v-112q-94 20 -173 20q-119 0 -118 -68q0 -29 20 -42q21 -13 37 -14t61 -3q103 -4 163 -48q60 -45 60 -149t-74 -155q-75 -51 -200 -51t-205 28v119q80 -25 205 -25z
M1329 1389v-625h-153v207q0 156 10 264h-6q-51 -154 -84 -236l-49 -122h-140l-49 122q-33 82 -84 236h-6q10 -106 10 -264v-207h-147v625h223l123 -359h6l123 359h223z" />
    <glyph glyph-name="trademark" unicode="&#x2122;" horiz-adv-x="1355" 
d="M336 1268v-504h-146v504h-178v121h506v-121h-182zM1262 1389v-625h-154v207q0 156 10 264h-6q-51 -154 -84 -236l-49 -122h-139l-49 122q-33 82 -84 236h-7q10 -106 11 -264v-207h-148v625h223l123 -359h6l123 359h224z" />
    <glyph glyph-name="estimated" unicode="&#x212e;" horiz-adv-x="1871" 
d="M940 1294q-438 0 -461 -544h914q-15 544 -453 544zM937 1413q310 0 505 -198t194 -523v-59h-1157q23 -541 461 -541q472 0 533 377h137q-77 -494 -685 -494q-298 0 -494 196q-195 195 -195 521t196 524t505 197z" />
    <glyph glyph-name="arrowleft" unicode="&#x2190;" horiz-adv-x="2027" 
d="M1720 817v-219h-1028l541 -571h-279l-622 622v117l622 623h279l-539 -572h1026z" />
    <glyph glyph-name="arrowup" unicode="&#x2191;" horiz-adv-x="2027" 
d="M1122 0h-219v1026l-571 -539v279l622 623h117l623 -623v-279l-572 541v-1028z" />
    <glyph glyph-name="arrowright" unicode="&#x2192;" horiz-adv-x="2027" 
d="M307 598v219h1026l-538 572h278l623 -623v-117l-623 -622h-278l540 571h-1028z" />
    <glyph glyph-name="arrowdown" unicode="&#x2193;" horiz-adv-x="2027" 
d="M903 1389h219v-1029l572 541v-278l-623 -623h-117l-622 623v278l571 -539v1027z" />
    <glyph glyph-name="uni2196" unicode="&#x2196;" horiz-adv-x="2027" 
d="M678 125l-197 197v880l82 82h881l196 -197l-786 -22l727 -725l-154 -156l-727 725z" />
    <glyph glyph-name="uni2197" unicode="&#x2197;" horiz-adv-x="2027" 
d="M1546 322l-196 -197l-23 784l-727 -725l-154 156l728 725l-787 22l197 197h880l82 -82v-880z" />
    <glyph glyph-name="uni2198" unicode="&#x2198;" horiz-adv-x="2027" 
d="M481 1067l197 197l22 -785l727 725l154 -155l-727 -725l786 -23l-196 -197h-881l-82 82v881z" />
    <glyph glyph-name="uni2199" unicode="&#x2199;" horiz-adv-x="2027" 
d="M1350 1264l196 -197v-881l-82 -82h-880l-197 197l787 23l-728 725l154 155l727 -725z" />
    <glyph glyph-name="partialdiff" unicode="&#x2202;" horiz-adv-x="1415" 
d="M680 170q128 0 192 74t64 207q0 279 -256 278q-260 1 -260 -279t260 -280zM659 936q199 0 312 -88h4q-19 180 -109 273t-272 93t-371 -77v206q154 78 402 78q313 0 473 -188t161 -533t-114 -529q-127 -204 -459 -204q-289 0 -420 133q-131 134 -131 352q-1 218 121 351
t403 133z" />
    <glyph glyph-name="increment" unicode="&#x2206;" horiz-adv-x="1622" 
d="M88 0l-4 164l584 1237h286l584 -1237l-4 -164h-1446zM614 225h392q121 0 215 -2v4l-314 686q-33 72 -96 224h-4q-45 -117 -94 -224l-314 -686v-4q94 2 215 2z" />
    <glyph glyph-name="product" unicode="&#x220f;" horiz-adv-x="1609" 
d="M1286 0h-270v1182h-420v-1182h-270v1182h-215v207h1388v-207h-213v-1182z" />
    <glyph glyph-name="summation" unicode="&#x2211;" horiz-adv-x="1236" 
d="M707 207h454v-207h-1071v182l555 529l-508 495v183h977v-207h-366q-90 0 -246 4v-4l424 -410v-123l-465 -442v-4q156 4 246 4z" />
    <glyph glyph-name="minus" unicode="&#x2212;" horiz-adv-x="1286" 
d="M1190 659v-219h-1094v219h1094z" />
    <glyph glyph-name="radical" unicode="&#x221a;" horiz-adv-x="1495" 
d="M47 715v205l381 77l111 -440l53 -262h4q74 180 121 260l489 834h299l-831 -1407h-242l-213 763z" />
    <glyph glyph-name="infinity" unicode="&#x221e;" horiz-adv-x="1656" 
d="M492 582q111 0 208 123q-100 121 -208 120q-145 0 -146 -120q1 -123 146 -123zM1165 582q146 0 146 122t-146 121q-109 0 -209 -120q98 -123 209 -123zM1538 705q0 -158 -102 -243t-280 -85t-329 162q-147 -162 -325 -162t-281 85q-102 85 -102 243q0 157 102 241
q103 84 281 84t325 -162q152 162 329 162q178 0 280 -84t102 -241z" />
    <glyph glyph-name="integral" unicode="&#x222b;" horiz-adv-x="837" 
d="M272 -4v1057q0 199 76 283t230 83q154 0 241 -39v-198q-69 26 -147 26t-103 -37t-24 -112v-1059q0 -199 -75 -283q-74 -84 -228 -84t-242 39v199q70 -27 148 -27t101 37t23 115z" />
    <glyph glyph-name="approxequal" unicode="&#x2248;" horiz-adv-x="1353" 
d="M909 393q164 0 348 90v-223q-176 -86 -346 -86q-83 0 -243 49t-232 49q-156 0 -340 -90v224q172 86 342 86q80 0 238 -50t233 -49zM909 838q164 0 348 90v-223q-176 -86 -346 -87q-83 0 -243 50t-232 49q-156 0 -340 -90v223q172 86 342 86q80 0 238 -49t233 -49z" />
    <glyph glyph-name="notequal" unicode="&#x2260;" horiz-adv-x="1353" 
d="M96 213v219h383l84 238h-467v219h545l109 309h237l-110 -309h380v-219h-458l-84 -238h542v-219h-620l-125 -356h-233l124 356h-307z" />
    <glyph glyph-name="lessequal" unicode="&#x2264;" horiz-adv-x="1236" 
d="M410 692v-6q221 -59 391 -119l291 -96v-240l-1035 363v190l1035 363v-240l-291 -96q-170 -60 -391 -119zM1092 223v-223h-1037v223h1037z" />
    <glyph glyph-name="greaterequal" unicode="&#x2265;" horiz-adv-x="1236" 
d="M827 686v6q-221 59 -391 119l-291 96v240l1035 -363v-190l-1035 -363v240l291 96q170 60 391 119zM145 0v223h1037v-223h-1037z" />
    <glyph glyph-name="filledbox" unicode="&#x25a0;" horiz-adv-x="2027" 
d="M707 270l-117 115l309 309l-309 310l117 114l307 -309l309 309l117 -114l-310 -310l310 -309l-117 -115l-309 308zM483 1225v-1061h1061v1061h-1061zM319 0v1389h1389v-1389h-1389z" />
    <glyph glyph-name="whitesquare" unicode="&#x25a1;" horiz-adv-x="2027" 
d="M483 1225v-1061h1061v1061h-1061zM319 0v1389h1389v-1389h-1389z" />
    <glyph glyph-name="blacksmallsquare" unicode="&#x25aa;" horiz-adv-x="2027" 
d="M492 0v1044h1044v-1044h-1044z" />
    <glyph glyph-name="whitesmallsquare" unicode="&#x25ab;" horiz-adv-x="2027" 
d="M645 891v-737h737v737h-737zM492 0v1044h1044v-1044h-1044z" />
    <glyph glyph-name="uni25B2" unicode="&#x25b2;" horiz-adv-x="2027" 
d="M1726 0h-1423l711 1421z" />
    <glyph glyph-name="uni25B6" unicode="&#x25b6;" horiz-adv-x="2027" 
d="M336 -20v1423l1421 -713z" />
    <glyph glyph-name="uni25BC" unicode="&#x25bc;" horiz-adv-x="2027" 
d="M303 1044h1423l-712 -1421z" />
    <glyph glyph-name="uni25C0" unicode="&#x25c0;" horiz-adv-x="2027" 
d="M1692 1403v-1423l-1422 710z" />
    <glyph glyph-name="lozenge" unicode="&#x25ca;" horiz-adv-x="1280" 
d="M647 256l238 430l-246 444h-4l-240 -430l248 -444h4zM506 -14l-414 706l414 707h270l412 -707l-412 -706h-270z" />
    <glyph glyph-name="whitecircle" unicode="&#x25cb;" horiz-adv-x="2027" 
d="M1014 1255q-231 0 -397 -164q-165 -165 -165 -397t166 -396q164 -165 396 -165t396 165q165 165 165 396t-165 396t-396 165zM1014 1419q299 0 512 -213t213 -512t-213 -512t-512 -213t-512 213t-213 512t213 512t512 213z" />
    <glyph glyph-name="whitecircle" unicode="&#x25ef;" horiz-adv-x="2027" 
d="M1014 1255q-231 0 -397 -164q-165 -165 -165 -397t166 -396q164 -165 396 -165t396 165q165 165 165 396t-165 396t-396 165zM1014 1419q299 0 512 -213t213 -512t-213 -512t-512 -213t-512 213t-213 512t213 512t512 213z" />
    <glyph glyph-name="blackcircle" unicode="&#x25cf;" horiz-adv-x="2027" 
d="M1014 1419q299 0 512 -213t213 -512t-213 -512t-512 -213t-512 213t-213 512t213 512t512 213z" />
    <glyph glyph-name="uni25E2" unicode="&#x25e2;" horiz-adv-x="2027" 
d="M227 279l1006 1005l502 -1507z" />
    <glyph glyph-name="uni25E3" unicode="&#x25e3;" horiz-adv-x="2027" 
d="M795 1284l1005 -1005l-1507 -502z" />
    <glyph glyph-name="uni25E4" unicode="&#x25e4;" horiz-adv-x="2027" 
d="M1800 940l-1005 -1006l-502 1508z" />
    <glyph glyph-name="uni25E5" unicode="&#x25e5;" horiz-adv-x="2027" 
d="M1233 -66l-1006 1006l1508 502z" />
    <glyph glyph-name="lcedilla" unicode="&#xe100;" horiz-adv-x="581" 
d="M522 -229q0 -147 -278 -148q-100 0 -195 29v139q98 -31 173 -31t75 41q0 20 -19 31q-20 10 -63 16l41 74q146 -6 206 -52t60 -99zM426 1389v-1389h-270v1389h270z" />
    <glyph glyph-name="Gtilde" unicode="&#xe105;" horiz-adv-x="1413" 
d="M870 1696q48 0 112 24t105 56v-181q-35 -29 -99 -55t-126 -24t-154 34t-141 31q-100 0 -223 -78v183q39 28 107 54t127 24t151 -34q92 -34 141 -34zM707 598v219h575v-749q-100 -51 -253 -76t-277 -25q-334 0 -495 170t-161 557t170 557t525 170q233 0 401 -51v-211
q-154 41 -334 41t-272 -39q-187 -79 -187 -428t104 -457q52 -53 114 -73q63 -21 185 -21t197 23v393h-292z" />
    <glyph glyph-name="gtilde" unicode="&#xe106;" horiz-adv-x="1253" 
d="M756 1352q49 0 112 24t105 56v-181q-35 -29 -100 -55t-126 -24q-61 1 -153 33t-141 32q-100 0 -224 -78v182q39 29 107 55t128 24t151 -34q92 -34 141 -34zM615 860q-134 0 -183 -75t-49 -231t54 -220q54 -66 171 -66q62 0 124 38t95 85v391q-78 78 -212 78zM1098 1044
v-976q0 -444 -525 -445q-246 0 -395 53v209q168 -47 348 -47t240 56q61 56 61 155v103h-4q-113 -98 -274 -99q-229 0 -342 125t-113 383q0 508 506 508q164 0 289 -96h4l33 71h172z" />
    <glyph glyph-name="Gcommaturnedabove" unicode="&#xe107;" horiz-adv-x="1587" 
d="M1604 1550l-86 -397h-265l201 397h150zM707 598v219h575v-749q-100 -51 -253 -76t-277 -25q-334 0 -495 170t-161 557t170 557t525 170q233 0 401 -51v-211q-154 41 -334 41t-272 -39q-187 -79 -187 -428t104 -457q52 -53 114 -73q63 -21 185 -21t197 23v393h-292z" />
    <glyph glyph-name="gcommaturnedabove" unicode="&#xe108;" horiz-adv-x="1345" 
d="M1333 1550l-86 -397h-264l201 397h149zM615 860q-134 0 -183 -75t-49 -231t54 -220q54 -66 171 -66q62 0 124 38t95 85v391q-78 78 -212 78zM1098 1044v-976q0 -444 -525 -445q-246 0 -395 53v209q168 -47 348 -47t240 56q61 56 61 155v103h-4q-113 -98 -274 -99
q-229 0 -342 125t-113 383q0 508 506 508q164 0 289 -96h4l33 71h172z" />
    <glyph glyph-name="Hmacronbelow" unicode="&#xe109;" horiz-adv-x="1474" 
d="M1106 -160v-184h-737v184h737zM449 0h-283v1389h283v-572h577v572h283v-1389h-283v598h-577v-598z" />
    <glyph glyph-name="hmacronbelow" unicode="&#xe10a;" horiz-adv-x="1269" 
d="M1010 -160v-184h-738v184h738zM156 0v1389h270v-441h4q150 121 344 121t277 -76q82 -76 82 -250v-743h-271v694q0 90 -36 125t-118 35t-158 -39t-124 -96v-719h-270z" />
    <glyph glyph-name="Jcaron" unicode="&#xe10b;" horiz-adv-x="630" 
d="M182 1389h283v-979q0 -223 -37 -370t-135 -282h-266q156 260 155 580v1051zM442 1493h-241l-248 246h244l125 -117l124 117h246z" />
    <glyph glyph-name="Kcedilla" unicode="&#xe10d;" horiz-adv-x="1308" 
d="M632 -240q76 0 77 41q0 36 -82 47l41 74q147 -6 206 -52t60 -99q0 -147 -279 -148q-102 0 -194 29v139q95 -31 171 -31zM449 598v-598h-283v1389h283v-572h153l375 572h297l-428 -656l473 -733h-320l-391 598h-159z" />
    <glyph glyph-name="kcedilla" unicode="&#xe10e;" horiz-adv-x="1165" 
d="M627 -199q0 36 -82 47l41 74q146 -6 206 -52t60 -99q0 -147 -279 -148q-100 0 -194 29v139q96 -31 172 -31t76 41zM426 449v-449h-270v1389h270v-738h121l262 393h297l-332 -481l385 -563h-315l-297 449h-121z" />
    <glyph glyph-name="Lcedilla" unicode="&#xe10f;" horiz-adv-x="1099" 
d="M874 -229q0 -147 -278 -148q-100 0 -195 29v139q98 -31 173 -31t75 41q0 20 -19 31q-20 10 -63 16l41 74q146 -6 206 -52t60 -99zM1094 219v-219h-928v1389h283v-1170h645z" />
    <glyph glyph-name="ocedilla" unicode="&#xe110;" horiz-adv-x="1253" 
d="M383 522q0 -225 78 -303q55 -55 166 -55t166 55q78 78 77 303q0 225 -77 303q-55 55 -166 55t-166 -55q-78 -78 -78 -303zM1159 522q0 -494 -411 -547l-27 -63q125 -43 125 -133q0 -156 -279 -156q-100 0 -194 29v139q99 -31 173 -31t75 41q0 41 -86 45l-13 56l29 69
q-215 15 -336 143t-121 427t149 418t385 119q236 -1 383 -119q148 -118 148 -437z" />
    <glyph glyph-name="Mmacron" unicode="&#xe111;" horiz-adv-x="1792" 
d="M1264 1733v-185h-738v185h738zM438 0h-272v1389h371l356 -766h6l356 766h371v-1389h-276v524q0 223 24 586h-6q-61 -201 -145 -379l-228 -471h-202l-228 471q-84 178 -145 379h-6q25 -362 24 -586v-524z" />
    <glyph glyph-name="mmacron" unicode="&#xe112;" horiz-adv-x="1873" 
d="M1309 1389v-185h-738v185h738zM1737 743v-743h-271v694q0 90 -30 125q-31 35 -104 35q-72 0 -140 -39t-111 -96v-719h-270v694q0 90 -31 125q-32 35 -104 35t-140 -39t-110 -96v-719h-270v1044h188l37 -137h4q145 162 358 162q243 1 306 -149h4q143 150 335 150t271 -77
q78 -76 78 -250z" />
    <glyph glyph-name="Mcedilla" unicode="&#xe113;" horiz-adv-x="1783" 
d="M1128 -229q0 -147 -278 -148q-100 0 -195 29v139q98 -31 173 -31t75 41q0 20 -19 31q-20 10 -63 16l41 74q146 -6 206 -52t60 -99zM434 0h-272v1389h370l357 -766h6l356 766h371v-1389h-276v524q0 223 24 586h-6q-61 -201 -145 -379l-228 -471h-203l-227 471
q-84 178 -145 379h-6q25 -362 24 -586v-524z" />
    <glyph glyph-name="mcedilla" unicode="&#xe114;" horiz-adv-x="1873" 
d="M890 -240q74 0 75 41q0 36 -82 47l41 74q147 -6 206 -52t60 -99q0 -147 -279 -148q-100 0 -194 29v139q99 -31 173 -31zM1737 743v-743h-271v694q0 90 -30 125q-31 35 -104 35q-72 0 -140 -39t-111 -96v-719h-270v694q0 90 -31 125q-32 35 -104 35t-140 -39t-110 -96
v-719h-270v1044h188l37 -137h4q145 162 358 162q243 1 306 -149h4q143 150 335 150t271 -77q78 -76 78 -250z" />
    <glyph glyph-name="Ndieresis" unicode="&#xe115;" horiz-adv-x="1513" 
d="M1135 1729v-213h-258v213h258zM674 1729v-213h-258v213h258zM436 434v-434h-270v1389h317l418 -680q111 -172 189 -342h6q-18 369 -19 587v435h271v-1389h-310l-430 684q-104 160 -184 334h-6q18 -369 18 -584z" />
    <glyph glyph-name="ndieresis" unicode="&#xe116;" horiz-adv-x="1269" 
d="M555 1384v-213h-258v213h258zM1016 1384v-213h-258v213h258zM757 1069q212 0 294 -76t82 -250v-743h-271v694q0 90 -36 125t-118 35t-158 -39t-124 -96v-719h-270v1044h188l37 -137h4q160 162 372 162z" />
    <glyph glyph-name="Nmacron" unicode="&#xe117;" horiz-adv-x="1513" 
d="M1139 1733v-185h-738v185h738zM436 434v-434h-270v1389h317l418 -680q111 -172 189 -342h6q-18 369 -19 587v435h271v-1389h-310l-430 684q-104 160 -184 334h-6q18 -369 18 -584z" />
    <glyph glyph-name="nmacron" unicode="&#xe118;" horiz-adv-x="1269" 
d="M1016 1389v-185h-737v185h737zM757 1069q212 0 294 -76t82 -250v-743h-271v694q0 90 -36 125t-118 35t-158 -39t-124 -96v-719h-270v1044h188l37 -137h4q160 162 372 162z" />
    <glyph glyph-name="Ncedilla" unicode="&#xe119;" horiz-adv-x="1513" 
d="M752 -199q0 36 -82 47l41 74q147 -6 207 -52t59 -99q0 -147 -279 -148q-100 0 -194 29v139q98 -31 173 -31t75 41zM436 434v-434h-270v1389h317l418 -680q111 -172 189 -342h6q-18 369 -19 587v435h271v-1389h-310l-430 684q-104 160 -184 334h-6q18 -369 18 -584z" />
    <glyph glyph-name="ncedilla" unicode="&#xe11a;" horiz-adv-x="1269" 
d="M582 -240q74 0 75 41q0 20 -19 31q-20 10 -63 16l41 74q146 -6 206 -52t61 -99q0 -147 -279 -148q-100 0 -194 29v139q98 -31 172 -31zM757 1069q212 0 294 -76t82 -250v-743h-271v694q0 90 -36 125t-118 35t-158 -39t-124 -96v-719h-270v1044h188l37 -137h4
q160 162 372 162z" />
    <glyph glyph-name="Ocommaturnedabove" unicode="&#xe11b;" horiz-adv-x="1662" 
d="M1681 1550l-86 -397h-264l201 397h149zM1374 694q0 -367 -143 -547t-495 -180t-496 180q-143 180 -144 547q0 367 144 547t495 180t495 -180t144 -547zM1071 694q0 285 -75 399q-75 113 -261 113t-261 -114t-75 -398t75 -398t261 -114t261 114t75 398z" />
    <glyph glyph-name="ocommaturnedabove" unicode="&#xe11c;" horiz-adv-x="1335" 
d="M1386 1550l-86 -397h-264l201 397h149zM383 522q0 -225 78 -303q55 -55 166 -55t166 55q78 78 77 303q0 225 -77 303q-55 55 -166 55t-166 -55q-78 -78 -78 -303zM627 -33q-236 0 -384 119q-149 118 -149 436t149 437t385 119q236 -1 383 -119q148 -118 148 -436
q0 -317 -148 -437q-148 -119 -384 -119z" />
    <glyph glyph-name="Ocedilla" unicode="&#xe11f;" horiz-adv-x="1470" 
d="M1071 694q0 285 -75 399q-75 113 -261 113t-261 -114t-75 -398t75 -398t261 -114t261 114t75 398zM96 706q0 356 144 535q144 180 495 180t495 -180q144 -179 144 -531t-120 -531t-410 -206l-25 -61q125 -43 125 -133q0 -156 -278 -156q-100 0 -195 29v139
q98 -31 173 -31t75 41t-86 45l-12 56l28 69q-303 19 -428 199t-125 536z" />
    <glyph glyph-name="Ounderlineaccent" unicode="&#xe121;" horiz-adv-x="1470" 
d="M844 -152v-368h-215v368h215zM1374 694q0 -367 -143 -547t-495 -180t-496 180q-143 180 -144 547q0 367 144 547t495 180t495 -180t144 -547zM1071 694q0 285 -75 399q-75 113 -261 113t-261 -114t-75 -398t75 -398t261 -114t261 114t75 398z" />
    <glyph glyph-name="ounderlineaccent" unicode="&#xe122;" horiz-adv-x="1253" 
d="M735 -152v-368h-215v368h215zM383 522q0 -225 78 -303q55 -55 166 -55t166 55q78 78 77 303q0 225 -77 303q-55 55 -166 55t-166 -55q-78 -78 -78 -303zM627 -33q-236 0 -384 119q-149 118 -149 436t149 437t385 119q236 -1 383 -119q148 -118 148 -436q0 -317 -148 -437
q-148 -119 -384 -119z" />
    <glyph glyph-name="Pmacron" unicode="&#xe123;" horiz-adv-x="1310" 
d="M1006 1733v-185h-738v185h738zM449 1169v-495h217q93 0 120 1q73 3 109 40q59 59 59 207q0 222 -128 241q-40 6 -136 6h-241zM449 453v-453h-283v1389h530q174 0 276 -25q283 -70 282 -445t-282 -442q-101 -25 -276 -24h-247z" />
    <glyph glyph-name="pmacron" unicode="&#xe124;" horiz-adv-x="1267" 
d="M1020 1389v-185h-737v185h737zM885 533q1 175 -55 248t-180 73t-224 -121v-479q66 -64 211 -64t197 84q51 84 51 259zM692 1069q482 -1 482 -539q0 -272 -138 -413t-370 -142q-147 0 -240 56v-375h-270v1388h188l31 -114h2q135 139 315 139z" />
    <glyph glyph-name="Rdoublegrave" unicode="&#xe125;" horiz-adv-x="1339" 
d="M379 1497l-324 236h293l225 -236h-194zM762 1497l-324 236h293l225 -236h-194zM698 1169h-249v-424h253q111 1 127 5q15 4 33 9t35 23q59 59 59 175t-59 176q-32 32 -109 35q-24 1 -90 1zM449 0h-283v1389h559q162 0 256 -22q268 -63 266 -411q0 -215 -108 -323
q-80 -78 -195 -101l350 -532h-323l-340 526h-182v-526z" />
    <glyph glyph-name="rdoublegrave" unicode="&#xe126;" horiz-adv-x="817" 
d="M602 1153l-323 236h292l226 -236h-195zM219 1153l-323 236h292l226 -236h-195zM662 1067q98 0 147 -31v-205q-55 19 -138 19q-150 1 -245 -164v-686h-270v1044h188l39 -147h2q100 170 277 170z" />
    <glyph glyph-name="Rcedilla" unicode="&#xe127;" horiz-adv-x="1339" 
d="M632 -240q76 0 77 41q0 36 -82 47l41 74q147 -6 206 -52t60 -99q0 -147 -279 -148q-102 0 -194 29v139q95 -31 171 -31zM698 1169h-249v-424h253q111 1 127 5q15 4 33 9t35 23q59 59 59 175t-59 176q-32 32 -109 35q-24 1 -90 1zM449 0h-283v1389h559q162 0 256 -22
q268 -63 266 -411q0 -215 -108 -323q-80 -78 -195 -101l350 -532h-323l-340 526h-182v-526z" />
    <glyph glyph-name="rcedilla" unicode="&#xe128;" horiz-adv-x="817" 
d="M287 -199q0 36 -82 47l41 74q146 -6 206 -52t60 -99q0 -147 -279 -148q-102 0 -194 29v139q96 -31 172 -31t76 41zM662 1067q98 0 147 -31v-205q-55 19 -138 19q-150 1 -245 -164v-686h-270v1044h188l39 -147h2q100 170 277 170z" />
    <glyph glyph-name="Tcedilla" unicode="&#xe129;" horiz-adv-x="1085" 
d="M549 -199q0 36 -82 47l41 74q146 -6 206 -52t60 -99q0 -147 -278 -148q-102 0 -195 29v139q96 -31 172 -31t76 41zM684 1169v-1169h-283v1169h-389v220h1061v-220h-389z" />
    <glyph glyph-name="tcedilla" unicode="&#xe12a;" horiz-adv-x="860" 
d="M465 -199q0 36 -82 47l41 74q146 -6 206 -52t60 -99q0 -147 -278 -148q-100 0 -195 29v139q98 -31 173 -31t75 41zM213 350v498h-170v174l195 25l67 231h180v-234h322v-196h-324v-492q0 -104 33 -134t122 -30t173 23v-195q-102 -40 -279 -40t-248 78t-71 292z" />
    <glyph glyph-name="Umacronbelow" unicode="&#xe12b;" horiz-adv-x="1415" 
d="M1075 -160v-184h-737v184h737zM418 436q0 -124 64 -188t226 -64q161 0 225 64t64 188v953h283v-918q0 -250 -127 -377t-445 -127t-454 135q-119 119 -119 369v918h283v-953z" />
    <glyph glyph-name="umacronbelow" unicode="&#xe12c;" horiz-adv-x="1269" 
d="M991 -193v-184h-737v184h737zM496 -25q-193 0 -276 81t-83 255v733h271v-694q0 -90 36 -125t117 -35q82 0 159 39t124 97v718h270v-1044h-188l-37 137h-4q-160 -162 -389 -162z" />
    <glyph glyph-name="cordinal" unicode="&#xe181;" horiz-adv-x="780" 
d="M508 737q102 0 221 39v-182q-137 -41 -248 -41q-215 0 -312 101t-97 298t75 308q88 129 347 129q117 0 219 -35v-170q-111 30 -209 30t-140 -44q-44 -44 -44 -195t42 -195q44 -44 146 -43z" />
    <glyph glyph-name="f_f_b" unicode="&#xe228;" horiz-adv-x="2877" 
d="M2494 533q0 175 -55 248t-179 73t-224 -121v-467q82 -76 219 -76t188 84t51 259zM2275 -25q-174 0 -301 97h-4l-33 -72h-172v1389h271v-420h4q115 100 262 100q242 0 362 -133q120 -134 119 -406q1 -272 -137 -414t-371 -141zM483 848v-848h-270v848h-170v174l170 14v49
q0 195 91 262t290 66q139 0 250 -24v-185q-88 16 -190 16t-137 -22q-34 -23 -34 -98v-56h273v-196h-273zM1288 848v-848h-270v848h-172v174l172 14v49q0 195 91 262t290 66q106 0 207 -24v-185q-80 16 -165 16t-119 -22q-34 -23 -34 -98v-56h318v-196h-318z" />
    <glyph glyph-name="f_f_b" unicode="&#xe382;" horiz-adv-x="2877" 
d="M2494 533q0 175 -55 248t-179 73t-224 -121v-467q82 -76 219 -76t188 84t51 259zM2275 -25q-174 0 -301 97h-4l-33 -72h-172v1389h271v-420h4q115 100 262 100q242 0 362 -133q120 -134 119 -406q1 -272 -137 -414t-371 -141zM483 848v-848h-270v848h-170v174l170 14v49
q0 195 91 262t290 66q139 0 250 -24v-185q-88 16 -190 16t-137 -22q-34 -23 -34 -98v-56h273v-196h-273zM1288 848v-848h-270v848h-172v174l172 14v49q0 195 91 262t290 66q106 0 207 -24v-185q-80 16 -165 16t-119 -22q-34 -23 -34 -98v-56h318v-196h-318z" />
    <glyph glyph-name="f_f_h" unicode="&#xe229;" horiz-adv-x="2879" 
d="M483 848v-848h-270v848h-170v174l170 14v49q0 195 91 262t290 66q139 0 250 -24v-185q-88 16 -190 16t-137 -22q-34 -23 -34 -98v-56h273v-196h-273zM1288 848v-848h-270v848h-172v174l172 14v49q0 195 91 262t290 66q106 0 207 -24v-185q-80 16 -165 16t-119 -22
q-34 -23 -34 -98v-56h318v-196h-318zM1765 0v1389h271v-441h4q150 121 344 121t276 -76t82 -250v-743h-270v694q0 90 -36 125t-118 35t-158 -39t-124 -96v-719h-271z" />
    <glyph glyph-name="f_f_h" unicode="&#xe383;" horiz-adv-x="2879" 
d="M483 848v-848h-270v848h-170v174l170 14v49q0 195 91 262t290 66q139 0 250 -24v-185q-88 16 -190 16t-137 -22q-34 -23 -34 -98v-56h273v-196h-273zM1288 848v-848h-270v848h-172v174l172 14v49q0 195 91 262t290 66q106 0 207 -24v-185q-80 16 -165 16t-119 -22
q-34 -23 -34 -98v-56h318v-196h-318zM1765 0v1389h271v-441h4q150 121 344 121t276 -76t82 -250v-743h-270v694q0 90 -36 125t-118 35t-158 -39t-124 -96v-719h-271z" />
    <glyph glyph-name="f_f_j" unicode="&#xe22a;" horiz-adv-x="2191" 
d="M483 848v-848h-270v848h-170v174l170 14v49q0 195 91 262t290 66q139 0 250 -24v-185q-88 16 -190 16t-137 -22q-34 -23 -34 -98v-56h273v-196h-273zM1288 848v-848h-270v848h-172v174l172 14v49q0 195 91 262t290 66q106 0 207 -24v-185q-80 16 -165 16t-119 -22
q-34 -23 -34 -98v-56h318v-196h-318zM1765 1044h271v-710q0 -145 -2 -214q-6 -212 -57 -327q-30 -67 -81 -137h-247q117 199 116 467v921zM2052 1389v-222h-297v222h297z" />
    <glyph glyph-name="f_f_j" unicode="&#xe384;" horiz-adv-x="2191" 
d="M483 848v-848h-270v848h-170v174l170 14v49q0 195 91 262t290 66q139 0 250 -24v-185q-88 16 -190 16t-137 -22q-34 -23 -34 -98v-56h273v-196h-273zM1288 848v-848h-270v848h-172v174l172 14v49q0 195 91 262t290 66q106 0 207 -24v-185q-80 16 -165 16t-119 -22
q-34 -23 -34 -98v-56h318v-196h-318zM1765 1044h271v-710q0 -145 -2 -214q-6 -212 -57 -327q-30 -67 -81 -137h-247q117 199 116 467v921zM2052 1389v-222h-297v222h297z" />
    <glyph glyph-name="f_f_k" unicode="&#xe22b;" horiz-adv-x="2775" 
d="M2036 449v-449h-271v1389h271v-738h121l262 393h297l-332 -481l385 -563h-315l-297 449h-121zM483 848v-848h-270v848h-170v174l170 14v49q0 195 91 262t290 66q139 0 250 -24v-185q-88 16 -190 16t-137 -22q-34 -23 -34 -98v-56h273v-196h-273zM1288 848v-848h-270v848
h-172v174l172 14v49q0 195 91 262t290 66q106 0 207 -24v-185q-80 16 -165 16t-119 -22q-34 -23 -34 -98v-56h318v-196h-318z" />
    <glyph glyph-name="f_f_k" unicode="&#xe385;" horiz-adv-x="2775" 
d="M2036 449v-449h-271v1389h271v-738h121l262 393h297l-332 -481l385 -563h-315l-297 449h-121zM483 848v-848h-270v848h-170v174l170 14v49q0 195 91 262t290 66q139 0 250 -24v-185q-88 16 -190 16t-137 -22q-34 -23 -34 -98v-56h273v-196h-273zM1288 848v-848h-270v848
h-172v174l172 14v49q0 195 91 262t290 66q106 0 207 -24v-185q-80 16 -165 16t-119 -22q-34 -23 -34 -98v-56h318v-196h-318z" />
    <glyph glyph-name="f_f_t" unicode="&#xe230;" horiz-adv-x="2469" 
d="M1823 848h-174v174l198 25l68 231h180v-234h322v-196h-324v-492q0 -104 33 -134t122 -30t173 23v-195q-101 -40 -279 -40t-249 78t-70 292v498zM1288 848v-848h-270v848h-174v174l174 14v49q0 195 91 262t290 66q139 0 250 -24v-185q-89 16 -191 16t-136 -22
q-34 -23 -34 -98v-56h273v-196h-273zM483 848v-848h-270v848h-170v174l170 14v49q0 195 91 262t290 66q139 0 250 -24v-185q-88 16 -190 16t-137 -22q-34 -23 -34 -98v-56h273v-196h-273z" />
    <glyph glyph-name="q.superior" unicode="&#xe360;" horiz-adv-x="815" 
d="M394 1098q-74 0 -102 -50t-28 -152q0 -104 31 -146t99 -41q68 0 122 61v293q-49 35 -122 35zM715 1237v-879h-199v248q-76 -51 -158 -51q-305 0 -305 348q0 168 89 259t241 91q92 0 180 -55l17 39h135z" />
    <glyph glyph-name="a.superior" unicode="&#xe361;" horiz-adv-x="741" 
d="M449 870h-78q-77 0 -101 -23t-24 -69q0 -78 83 -78t120 52v118zM362 991h87v47q1 31 -5 44q-14 32 -121 32q-106 0 -227 -29v144q104 27 261 27t224 -48q67 -47 66 -176v-461h-147l-17 58h-2q-23 -29 -75 -51t-107 -21q-133 -1 -195 61t-61 155q0 93 53 147q71 71 266 71
z" />
    <glyph glyph-name="b.superior" unicode="&#xe362;" horiz-adv-x="815" 
d="M551 912q0 104 -31 146q-30 42 -98 42t-123 -62v-293q49 -35 122 -35t101 50q28 48 29 152zM100 571v879h199v-248q76 51 158 51q305 0 305 -348q0 -168 -89 -259t-241 -91q-92 0 -180 55l-16 -39h-136z" />
    <glyph glyph-name="c.superior" unicode="&#xe363;" horiz-adv-x="651" 
d="M264 907q0 -125 39 -163t123 -39q84 0 184 32v-149q-109 -37 -211 -37q-182 0 -264 86t-82 268q0 255 174 324q73 29 179 29t190 -29v-142q-78 23 -166 23t-127 -39t-39 -164z" />
    <glyph glyph-name="d.superior" unicode="&#xe364;" horiz-adv-x="815" 
d="M393 1098q-73 0 -101 -49t-28 -153t31 -146t97 -41q66 0 124 63v297q-51 29 -123 29zM367 555q-313 0 -314 348q0 168 89 259t241 91q70 0 133 -24v221h199v-879h-148l-18 60h-2q-82 -76 -180 -76z" />
    <glyph glyph-name="e.superior" unicode="&#xe365;" horiz-adv-x="735" 
d="M498 1008q0 110 -109 110q-59 0 -88 -28t-35 -105h232v23zM262 856q0 -84 36 -120t135 -36t222 27v-139q-133 -37 -252 -37q-186 0 -268 86t-82 270q0 185 92 267t240 81q297 0 297 -286q0 -23 -4 -80l-2 -33h-414z" />
    <glyph glyph-name="f.superior" unicode="&#xe366;" horiz-adv-x="552" 
d="M334 1090v-519h-199v519h-106v124l106 13v26q1 125 61 169t168 44t193 -18v-137q-70 14 -129 14q-58 0 -76 -12t-18 -51v-31h209v-141h-209z" />
    <glyph glyph-name="g.superior" unicode="&#xe367;" horiz-adv-x="806" 
d="M392 1104q-72 0 -100 -43t-28 -135t29 -130t103 -38t112 57v254q-43 35 -116 35zM707 1237v-612q0 -287 -342 -287q-154 0 -259 37v151q125 -35 240 -34q162 0 162 120v35h-2q-63 -43 -154 -43q-299 0 -299 326q0 158 82 240t238 83q108 0 184 -55l16 39h134z" />
    <glyph glyph-name="h.superior" unicode="&#xe368;" horiz-adv-x="829" 
d="M100 571v879h199v-266h2q92 70 210 70t171 -51q53 -50 53 -161v-471h-198v441q-1 49 -19 68t-65 20q-84 0 -154 -74v-455h-199z" />
    <glyph glyph-name="i.superior" unicode="&#xe369;" horiz-adv-x="399" 
d="M309 1450v-154h-219v154h219zM299 1233v-662h-199v662h199z" />
    <glyph glyph-name="j.superior" unicode="&#xe36a;" horiz-adv-x="403" 
d="M313 1450v-154h-219v154h219zM104 657v576h199v-445q0 -123 -3 -175q-8 -146 -89 -255h-195q88 141 88 299z" />
    <glyph glyph-name="k.superior" unicode="&#xe36b;" horiz-adv-x="747" 
d="M299 848v-277h-199v879h199v-457h47l162 244h221l-213 -307l246 -359h-232l-184 277h-47z" />
    <glyph glyph-name="l.superior" unicode="&#xe36c;" horiz-adv-x="399" 
d="M299 1450v-879h-199v879h199z" />
    <glyph glyph-name="m.superior" unicode="&#xe36d;" horiz-adv-x="1204" 
d="M479 1253q141 0 195 -90q96 90 214 90t170 -50t52 -161v-471h-199v441q0 49 -15 68t-56 20q-74 0 -135 -74v-455h-199v441q0 49 -16 68t-56 20q-74 0 -135 -74v-455h-199v666h148l18 -74h2q104 90 211 90z" />
    <glyph glyph-name="o.superior" unicode="&#xe36e;" horiz-adv-x="798" 
d="M399 692q59 0 97 38t39 174q0 136 -38 174q-37 38 -97 38t-98 -38t-38 -174t38 -174t97 -38zM745 905q0 -354 -346 -354t-346 354q0 193 92 273t254 80t254 -80t92 -273z" />
    <glyph glyph-name="p.superior" unicode="&#xe36f;" horiz-adv-x="815" 
d="M551 912q0 104 -31 146q-32 42 -98 42t-123 -64v-297q51 -29 123 -29t100 50q28 48 29 152zM762 905q0 -168 -89 -259t-241 -91q-70 0 -133 25v-222h-199v879h148l18 -59h2q82 76 181 75q313 0 313 -348z" />
    <glyph glyph-name="r.superior" unicode="&#xe371;" horiz-adv-x="540" 
d="M100 1237h148l20 -84h2q68 98 147 98t120 -24v-150q-45 18 -97 19q-82 0 -141 -101v-424h-199v666z" />
    <glyph glyph-name="s.superior" unicode="&#xe372;" horiz-adv-x="686" 
d="M305 705q139 0 139 61q0 39 -26 50q-27 11 -123 14q-96 4 -167 48t-71 166q0 213 314 213q129 0 217 -28v-144q-104 27 -216 27t-112 -55q0 -41 24 -49t119 -12t169 -49q74 -44 75 -162q0 -118 -91 -176q-90 -58 -228 -58t-258 37v149q137 -32 235 -32z" />
    <glyph glyph-name="t.superior" unicode="&#xe373;" horiz-adv-x="577" 
d="M348 559q-119 0 -166 50t-47 190v291h-106v124l123 19l43 149h139v-151h198v-141h-198v-287q0 -57 17 -75t63 -17q46 0 121 18v-141q-68 -29 -187 -29z" />
    <glyph glyph-name="u.superior" unicode="&#xe374;" horiz-adv-x="821" 
d="M320 555q-125 0 -180 50q-54 50 -54 161v471h199v-440q0 -49 18 -69t66 -19q84 0 153 73v455h199v-666h-148l-20 78h-2q-106 -94 -231 -94z" />
    <glyph glyph-name="v.superior" unicode="&#xe375;" horiz-adv-x="704" 
d="M354 756h4q43 162 58 205l94 276h207l-250 -666h-231l-248 666h215l94 -276q14 -43 57 -205z" />
    <glyph glyph-name="w.superior" unicode="&#xe376;" horiz-adv-x="1060" 
d="M530 901l-124 -330h-199l-211 666h207l76 -270q29 -100 45 -189h4q27 98 51 168l61 172l-43 119h195l96 -276q23 -63 53 -185h4q33 145 46 189l77 272h197l-213 -666h-197z" />
    <glyph glyph-name="y.superior" unicode="&#xe378;" horiz-adv-x="702" 
d="M426 1006l86 231h205l-363 -879h-207l99 242l-262 637h215l86 -231q29 -74 67 -201h4q39 119 70 201z" />
    <glyph glyph-name="z.superior" unicode="&#xe379;" horiz-adv-x="610" 
d="M584 571h-566v115l213 281q17 25 49 61t48 59l-2 5l-283 -2v147h541v-115l-211 -278q-18 -25 -49 -62t-48 -59l3 -4l305 2v-150z" />
    <glyph glyph-name="f_b" unicode="&#xe381;" horiz-adv-x="2072" 
d="M1450 190q136 0 188 84t52 259t-56 248t-179 73q-124 0 -224 -121v-467q82 -76 219 -76zM1497 1069q481 -1 481 -539q0 -272 -138 -414t-370 -141q-174 0 -301 97h-4l-32 -72h-172v1389h270v-420h4q115 100 262 100zM483 848v-848h-270v848h-170v174l170 14v49
q0 195 91 262t290 66q106 0 207 -24v-185q-80 16 -165 16t-119 -22q-34 -23 -34 -98v-56h318v-196h-318z" />
    <glyph glyph-name="f_h" unicode="&#xe386;" horiz-adv-x="2074" 
d="M483 848v-848h-270v848h-170v174l170 14v49q0 195 91 262t290 66q106 0 207 -24v-185q-80 16 -165 16t-119 -22q-34 -23 -34 -98v-56h318v-196h-318zM961 0v1389h270v-441h4q151 121 345 121t276 -76t81 -250v-743h-270v694q0 90 -36 125t-118 35q-83 0 -159 -39
t-123 -96v-719h-270z" />
    <glyph glyph-name="f_j" unicode="&#xe387;" horiz-adv-x="1386" 
d="M961 123v921h270v-710q0 -145 -2 -214q-6 -212 -57 -327q-29 -67 -80 -137h-248q117 199 117 467zM1247 1389v-222h-297v222h297zM483 848v-848h-270v848h-170v174l170 14v49q0 195 91 262t290 66q106 0 207 -24v-185q-80 16 -165 16t-119 -22q-34 -23 -34 -98v-56h318
v-196h-318z" />
    <glyph glyph-name="f_k" unicode="&#xe388;" horiz-adv-x="1970" 
d="M1231 449v-449h-270v1389h270v-738h121l262 393h297l-332 -481l385 -563h-315l-297 449h-121zM483 848v-848h-270v848h-170v174l170 14v49q0 195 91 262t290 66q106 0 207 -24v-185q-80 16 -165 16t-119 -22q-34 -23 -34 -98v-56h318v-196h-318z" />
    <glyph glyph-name="ff" unicode="&#xe389;" horiz-adv-x="1630" 
d="M1288 848v-848h-270v848h-174v174l174 14v49q0 195 91 262t290 66q139 0 250 -24v-185q-89 16 -191 16t-136 -22q-34 -23 -34 -98v-56h338v-196h-338zM483 848v-848h-270v848h-170v174l170 14v49q0 195 91 262t290 66q139 0 250 -24v-185q-88 16 -190 16t-137 -22
q-34 -23 -34 -98v-56h273v-196h-273z" />
    <glyph glyph-name="ffi" unicode="&#xe38a;" horiz-adv-x="2191" 
d="M483 848v-848h-270v848h-170v174l170 14v49q0 195 91 262t290 66q139 0 250 -24v-185q-88 16 -190 16t-137 -22q-34 -23 -34 -98v-56h273v-196h-273zM1288 848v-848h-270v848h-172v174l172 14v49q0 195 91 262t290 66q106 0 207 -24v-185q-80 16 -165 16t-119 -22
q-34 -23 -34 -98v-56h318v-196h-318zM2052 1389v-222h-297v222h297zM2036 1044v-1044h-271v1044h271z" />
    <glyph glyph-name="ffl" unicode="&#xe38b;" horiz-adv-x="2191" 
d="M483 848v-848h-270v848h-170v174l170 14v49q0 195 91 262t290 66q139 0 250 -24v-185q-88 16 -190 16t-137 -22q-34 -23 -34 -98v-56h273v-196h-273zM1288 848v-848h-270v848h-172v174l172 14v49q0 195 91 262t290 66q106 0 207 -24v-185q-80 16 -165 16t-119 -22
q-34 -23 -34 -98v-56h318v-196h-318zM2036 1389v-1389h-271v1389h271z" />
    <glyph glyph-name="zero.slash" unicode="&#xe401;" horiz-adv-x="1351" 
d="M399 646q0 -134 13 -210l403 748q-53 35 -127 35q-74 1 -122 -17t-78 -56t-48 -79t-26 -108t-12 -123t-3 -190zM952 729q0 137 -14 227l-406 -751q56 -35 138 -35q144 0 215 99q52 75 63 257q4 66 4 203zM111 694q0 176 24 301q58 288 259 376q114 50 282 50
q334 0 456 -200q60 -99 85 -225t25 -302t-26 -301q-56 -286 -259 -376q-113 -50 -281 -50q-336 0 -456 201q-60 100 -85 225q-24 125 -24 301z" />
    <glyph glyph-name="zero.slash" unicode="&#xe515;" horiz-adv-x="1351" 
d="M399 646q0 -134 13 -210l403 748q-53 35 -127 35q-74 1 -122 -17t-78 -56t-48 -79t-26 -108t-12 -123t-3 -190zM952 729q0 137 -14 227l-406 -751q56 -35 138 -35q144 0 215 99q52 75 63 257q4 66 4 203zM111 694q0 176 24 301q58 288 259 376q114 50 282 50
q334 0 456 -200q60 -99 85 -225t25 -302t-26 -301q-56 -286 -259 -376q-113 -50 -281 -50q-336 0 -456 201q-60 100 -85 225q-24 125 -24 301z" />
    <glyph glyph-name="invertedbreve" unicode="&#xe411;" 
d="M614 1257q-147 0 -174 -104h-213q41 260 387 260t387 -260h-213q-27 104 -174 104z" />
    <glyph glyph-name="doublegrave" unicode="&#xe412;" 
d="M328 1153l-324 236h293l225 -236h-194zM711 1153l-324 236h293l225 -236h-194z" />
    <glyph glyph-name="caronSlovak" unicode="&#xe413;" 
d="M688 991l86 398h264l-200 -398h-150z" />
    <glyph glyph-name="commaaccent" unicode="&#xe414;" 
d="M401 -549l86 397h265l-201 -397h-150z" />
    <glyph glyph-name="commaaccent" unicode="&#xf6c3;" 
d="M401 -549l86 397h265l-201 -397h-150z" />
    <glyph glyph-name="altcedilla" unicode="&#xe416;" 
d="M629 -199q0 36 -82 47l41 74q146 -6 206 -52t60 -99q0 -147 -279 -148q-102 0 -194 29v139q98 -31 173 -31t75 41z" />
    <glyph glyph-name="grave.cap" unicode="&#xe421;" 
d="M504 1501l-328 232h322l229 -232h-223z" />
    <glyph glyph-name="acute.cap" unicode="&#xe422;" 
d="M1053 1733l-328 -232h-223l229 232h322z" />
    <glyph glyph-name="circumflex.cap" unicode="&#xe423;" 
d="M494 1739h241l250 -246h-246l-125 117l-125 -117h-243z" />
    <glyph glyph-name="tilde.cap" unicode="&#xe424;" 
d="M764 1696q48 0 112 24t105 56v-181q-35 -29 -99 -55t-126 -24t-154 34t-141 31q-100 0 -223 -78v183q38 28 106 54t128 24t151 -34q92 -34 141 -34z" />
    <glyph glyph-name="macron.cap" unicode="&#xe425;" 
d="M983 1733v-185h-737v185h737z" />
    <glyph glyph-name="breve.cap" unicode="&#xe426;" 
d="M614 1628q147 0 174 105h213q-41 -260 -387 -260t-387 260h213q27 -105 174 -105z" />
    <glyph glyph-name="invertedbreve.cap" unicode="&#xe427;" 
d="M614 1602q-147 0 -174 -105h-213q41 260 387 260t387 -260h-213q-27 105 -174 105z" />
    <glyph glyph-name="dotaccent.cap" unicode="&#xe428;" 
d="M750 1733v-213h-271v213h271z" />
    <glyph glyph-name="dieresis.cap" unicode="&#xe429;" 
d="M975 1729v-213h-258v213h258zM514 1729v-213h-258v213h258z" />
    <glyph glyph-name="ring.cap" unicode="&#xe42a;" 
d="M825 1640q0 -164 -212 -164t-212 164t212 164t212 -164zM684 1640q0 66 -71 66t-70 -66q1 -61 71 -61t70 61z" />
    <glyph glyph-name="hungarumlaut.cap" unicode="&#xe42b;" 
d="M1225 1733l-324 -236h-194l225 236h293zM842 1733l-324 -236h-194l225 236h293z" />
    <glyph glyph-name="doublegrave.cap" unicode="&#xe42c;" 
d="M328 1497l-324 236h293l225 -236h-194zM711 1497l-324 236h293l225 -236h-194z" />
    <glyph glyph-name="caron.cap" unicode="&#xe42d;" 
d="M735 1493h-241l-248 246h243l125 -117l125 117h246z" />
    <glyph glyph-name="exclamdown.cap" unicode="&#xe441;" horiz-adv-x="620" 
d="M469 1389v-281h-317v281h317zM420 911l45 -911h-309l47 911h217z" />
    <glyph glyph-name="questiondown.cap" unicode="&#xe444;" horiz-adv-x="1007" 
d="M569 -33q-253 1 -377 105t-124 283t149 289q150 110 350 136l6 131h234l8 -315q-248 -20 -346 -76t-98 -157q0 -100 68 -139q69 -38 219 -38t274 43v-211q-170 -51 -363 -51zM530 1108v281h318v-281h-318z" />
    <glyph glyph-name="guilsinglleft.cap" unicode="&#xe451;" horiz-adv-x="851" 
d="M743 236h-305l-329 473l329 467h305l-325 -467z" />
    <glyph glyph-name="guilsinglright.cap" unicode="&#xe452;" horiz-adv-x="851" 
d="M414 236h-305l325 473l-325 467h305l329 -467z" />
    <glyph glyph-name="guillemotleft.cap" unicode="&#xe453;" horiz-adv-x="1284" 
d="M1178 236h-283l-330 473l330 467h283l-326 -467zM721 236h-283l-329 473l329 467h283l-326 -467z" />
    <glyph glyph-name="guillemotright.cap" unicode="&#xe454;" horiz-adv-x="1284" 
d="M391 236h-282l325 473l-325 467h282l330 -467zM848 236h-283l326 473l-326 467h283l330 -467z" />
    <glyph glyph-name="onethirdemdash" unicode="&#xe471;" horiz-adv-x="917" 
d="M821 659v-219h-725v219h725z" />
    <glyph glyph-name="threequarteremdash" unicode="&#xe472;" horiz-adv-x="1843" 
d="M1747 659v-219h-1651v219h1651z" />
    <glyph glyph-name="periodcentered.cap" unicode="&#xe481;" horiz-adv-x="620" 
d="M469 848v-281h-317v281h317z" />
    <glyph glyph-name="hyphen.cap" unicode="&#xe482;" horiz-adv-x="833" 
d="M786 817v-219h-739v219h739z" />
    <glyph glyph-name="onethirdemdash.cap" unicode="&#xe483;" horiz-adv-x="917" 
d="M821 817v-219h-725v219h725z" />
    <glyph glyph-name="endash.cap" unicode="&#xe484;" horiz-adv-x="1292" 
d="M1196 817v-219h-1100v219h1100z" />
    <glyph glyph-name="threequarteremdash.cap" unicode="&#xe485;" horiz-adv-x="1843" 
d="M1747 817v-219h-1651v219h1651z" />
    <glyph glyph-name="emdash.cap" unicode="&#xe486;" horiz-adv-x="2392" 
d="M2296 817v-219h-2200v219h2200z" />
    <glyph glyph-name="figuredash.cap" unicode="&#xe487;" horiz-adv-x="1843" 
d="M1747 817v-219h-1651v219h1651z" />
    <glyph glyph-name="parenleft.cap" unicode="&#xe491;" horiz-adv-x="729" 
d="M453 700q0 -229 39 -425t139 -449h-221q-143 268 -197 468q-53 200 -53 408t52 405q52 198 196 456h223q-100 -229 -139 -431t-39 -432z" />
    <glyph glyph-name="parenright.cap" unicode="&#xe492;" horiz-adv-x="729" 
d="M276 700q0 230 -38 432t-140 431h226q143 -258 194 -456t51 -406q0 -207 -53 -407t-197 -468h-221q100 254 139 450t39 424z" />
    <glyph glyph-name="bracketleft.cap" unicode="&#xe493;" horiz-adv-x="718" 
d="M647 20v-194h-457v1737h457v-197h-186v-1346h186z" />
    <glyph glyph-name="bracketright.cap" unicode="&#xe494;" horiz-adv-x="718" 
d="M72 -174v194h186v1346h-186v197h456v-1737h-456z" />
    <glyph glyph-name="braceleft.cap" unicode="&#xe495;" horiz-adv-x="727" 
d="M211 1219q0 180 69 262t263 82q72 0 112 -7v-190q-47 4 -75 4q-113 0 -113 -129q0 -45 16 -168t17 -153q0 -99 -51 -199q51 -100 51 -199q0 -31 -16 -176t-17 -190q0 -137 113 -138q29 0 75 5v-191q-41 -6 -112 -6q-193 0 -263 85t-69 267q-1 96 17 223q18 128 20 154
l-127 145v41l127 146q-37 259 -37 332z" />
    <glyph glyph-name="braceright.cap" unicode="&#xe496;" horiz-adv-x="727" 
d="M260 1241q0 129 -113 129q-29 0 -75 -4v190q39 6 112 7q196 0 264 -82t68 -262q0 -68 -17 -193t-20 -139l127 -146v-41l-127 -145q1 -27 19 -156t18 -221q0 -182 -70 -267t-262 -85q-74 0 -112 6v191q47 -4 75 -5q113 0 113 138q0 45 -16 190t-17 176q1 99 52 199
q-51 100 -52 199q1 32 17 154t16 167z" />
    <glyph glyph-name="lowline" unicode="&#xe511;" horiz-adv-x="839" 
d="M840 0h-840v197h840v-197z" />
    <glyph glyph-name="underscoremonospace" unicode="&#xe512;" horiz-adv-x="1351" 
d="M1247 -344h-1143v197h1143v-197z" />
    <glyph glyph-name="underscoremonospace" unicode="&#xff3f;" horiz-adv-x="1351" 
d="M1247 -344h-1143v197h1143v-197z" />
    <glyph glyph-name="at.cap" unicode="&#xe513;" horiz-adv-x="1697" 
d="M715 626q0 -97 78 -98q39 0 80 38t53 100l32 190q-33 4 -57 4q-84 2 -135 -68t-51 -166zM752 348q-115 0 -180 81t-64 204q0 169 100 277t291 108q150 0 281 -51l-54 -330q-8 -51 24 -86t94 -35t110 54q47 54 47 173q0 236 -141 368q-142 132 -388 132t-393 -160
q-147 -161 -147 -405t134 -388t388 -145q154 0 276 56v-185q-104 -49 -276 -49q-346 1 -541 189t-195 525t204 539t544 202t526 -188q186 -187 187 -493q0 -190 -92 -290q-93 -101 -219 -101t-188 32t-97 101h-4q-72 -135 -227 -135z" />
    <glyph glyph-name="registered.superior" unicode="&#xe514;" horiz-adv-x="991" 
d="M514 1040q43 0 43 44t-43 44h-55v-88h55zM459 942v-123h-125v406h176q88 0 130 -30t42 -110q0 -104 -80 -122l76 -144h-129l-60 123h-30zM197 1016q0 -285 299 -285t299 285q0 291 -299 291t-299 -291zM63 1018q0 192 113 297q113 106 319 106q205 0 319 -105t114 -299
t-114 -297q-114 -104 -320 -104t-318 105q-113 105 -113 297z" />
    <glyph glyph-name="uni20AE.LP" unicode="&#xe520;" horiz-adv-x="1351" 
d="M817 1178v-256l236 118v-178l-236 -119v-108l236 119v-179l-236 -118v-457h-282v315l-236 -118v178l236 119v108l-236 -119v179l236 118v398h-390v211h1061v-211h-389z" />
    <glyph glyph-name="Euro.LP" unicode="&#xe521;" horiz-adv-x="1351" 
d="M900 201q156 0 298 51v-223q-70 -29 -176 -45t-180 -17q-246 0 -388 127t-180 406h-176l66 159h100v93h-155l65 159h102q38 262 178 386t388 124q199 0 325 -51v-211q-135 41 -275 41t-214 -62t-98 -227h503l-67 -159h-449v-93h422l-65 -159h-346q23 -176 94 -238
q72 -61 228 -61z" />
    <glyph glyph-name="dollar.LP" unicode="&#xe522;" horiz-adv-x="1351" 
d="M623 268q283 0 282 156q0 88 -62 117t-194 34q-444 16 -444 377q0 174 124 278t339 120l71 278h248l-74 -289q104 -14 166 -36v-211q-156 41 -307 41q-150 0 -212 -35t-62 -110t39 -102t111 -35q71 -7 140 -10q155 -7 274 -81q136 -83 136 -316q0 -180 -141 -290
t-377 -119l-72 -277h-248l74 291q-104 12 -201 47v223q177 -51 390 -51z" />
    <glyph glyph-name="cent.LP" unicode="&#xe523;" horiz-adv-x="1351" 
d="M838 328q127 0 264 43v-209q-143 -53 -314 -53q-37 0 -94 4l-55 -213h-229l73 272q-229 127 -229 539q0 321 133 464q116 123 338 138l51 217h230l-56 -227q55 -8 129 -33v-197q-123 37 -222 37q-173 0 -236 -60t-74 -200q-4 -53 -4 -139q1 -203 59 -293t236 -90z" />
    <glyph glyph-name="sterling.LP" unicode="&#xe524;" horiz-adv-x="1351" 
d="M906 219q148 0 286 45v-221q-147 -55 -335 -55t-339 73q-61 -68 -180 -67q-53 0 -137 14l-23 6v183q143 8 150 84l28 317h-137v219h158l12 125q25 250 133 365q109 115 342 114q164 0 310 -51v-211q-126 41 -254 41t-176 -61t-62 -230l-8 -92h307v-219h-326l-30 -322
q133 -57 281 -57z" />
    <glyph glyph-name="florin.LP" unicode="&#xe525;" horiz-adv-x="1351" 
d="M268 -51q74 0 109 35t45 129l49 485h-139v219h160l24 238q27 186 127 276t297 90q147 0 264 -49v-213q-98 43 -198 43t-139 -40q-40 -40 -56 -140l-20 -205h305v-219h-326l-53 -535q-35 -338 -357 -337q-135 -1 -231 24v211q65 -12 139 -12z" />
    <glyph glyph-name="yen.LP" unicode="&#xe526;" horiz-adv-x="1351" 
d="M1219 911v-159h-293l-45 -93h338v-159h-420v-500h-281v500h-385v159h309l-43 93h-266v159h189l-230 478h299l273 -607h6l305 607h285l-250 -478h209z" />
    <glyph glyph-name="uni20A1.LP" unicode="&#xe527;" horiz-adv-x="1351" 
d="M205 696q0 272 91 427t279 206l76 299h164l-70 -274q15 2 47 2t54 -2l69 274h164l-73 -291q70 -14 122 -32v-211q-142 41 -304 41q-162 1 -239 -91t-77 -347t75 -340t252 -85t324 52v-224q-100 -43 -282 -59l-74 -283h-164l72 283q-66 8 -95 14l-77 -297h-164l90 351
q-260 143 -260 587z" />
    <glyph glyph-name="uni20A2.LP" unicode="&#xe528;" horiz-adv-x="1351" 
d="M164 690q0 379 153 555q154 176 474 176q221 0 358 -51v-211q-154 41 -309 41q-203 0 -288 -105t-85 -397q0 -203 37 -309t117 -149v573h182l28 -111h3q74 129 206 129q72 0 111 -24v-195q-187 61 -287 -108v-303q170 4 316 51v-223q-76 -29 -193 -45t-196 -17
q-309 0 -468 172t-159 551z" />
    <glyph glyph-name="uni20A3.LP" unicode="&#xe529;" horiz-adv-x="1351" 
d="M152 752v159h198v478h867v-211h-584v-267h379v-159h-379v-93h379v-159h-379v-500h-283v500h-198v159h198v93h-198z" />
    <glyph glyph-name="uni20A4.LP" unicode="&#xe52a;" horiz-adv-x="1351" 
d="M981 500h-338l-18 -224q133 -57 281 -57t286 45v-221q-147 -55 -335 -55t-339 73q-61 -68 -180 -67q-53 0 -137 14l-23 6v183q143 8 150 84l20 219h-129v159h143l9 93h-152v159h166l4 31q25 250 133 365q109 115 342 114q164 0 310 -51v-211q-134 43 -258 43t-172 -61
t-62 -230h299v-159h-313l-11 -93h324v-159z" />
    <glyph glyph-name="uni20A6.LP" unicode="&#xe52b;" horiz-adv-x="1785" 
d="M629 0h-267v500h-280v159h280v93h-280v159h280v478h312l356 -680q104 -205 139 -314h7q-20 410 -21 559l-4 435h270v-478h283v-159h-283v-93h283v-159h-283v-500h-301l-370 674q-84 152 -136 311h-6q20 -410 21 -551v-434z" />
    <glyph glyph-name="uni20A7.LP" unicode="&#xe52c;" horiz-adv-x="2908" 
d="M508 1171v-499h164q98 0 144 7q136 21 136 243t-136 242q-46 7 -144 7h-164zM2269 182q221 0 221 117q0 74 -42 94t-144 23q-178 4 -278 73q-99 69 -99 249t121 260q120 80 316 79q196 0 307 -41v-196q-129 34 -298 34t-169 -108q0 -72 38 -92t128 -20q90 -1 150 -14
t120 -47q124 -70 125 -257q0 -188 -132 -278t-360 -91q-148 0 -291 41v211q164 -37 287 -37zM1348 350v488h-103q-30 -303 -275 -361q-101 -25 -276 -24h-186v-453h-283v1389h469q174 0 276 -25q102 -24 177 -100q76 -76 98 -246l127 18l68 242h180v-244h250v-196h-252v-478
q0 -100 38 -132q61 -52 212 -21v-205q-76 -22 -214 -22t-222 82t-84 288z" />
    <glyph glyph-name="uni20A8.LP" unicode="&#xe52d;" horiz-adv-x="2299" 
d="M1882 299q0 74 -42 94t-144 23q-178 4 -278 73q-99 69 -99 249t121 260t316 79q195 0 306 -41v-196q-130 34 -298 34t-169 -108q0 -72 39 -92t128 -20q90 -1 150 -14t120 -47q124 -70 125 -265q0 -196 -154 -280q-155 -84 -473 -85q-318 1 -549 145t-319 418h-154v-526
h-283v1389h498q162 0 256 -22q268 -63 266 -411q0 -215 -108 -323q-80 -78 -195 -101q49 -118 140 -198q90 -80 196 -111q167 -49 311 -49q145 0 219 35t74 90zM696 1178h-188v-441h188q61 0 89 1q169 6 169 218q0 121 -59 181q-41 41 -199 41z" />
    <glyph glyph-name="uni20A9.LP" unicode="&#xe52e;" horiz-adv-x="2144" 
d="M72 752v159h209l-127 478h295l151 -646q8 -39 96 -469h9q27 133 102 406l131 461l-76 248h283l207 -707q57 -199 100 -408h8q80 395 94 455l152 660h289l-127 -478h205v-159h-248l-27 -97h275v-159h-318l-131 -496h-319l-117 397q-68 233 -111 389h-8q-24 -106 -106 -387
l-119 -399h-320l-133 496h-319v159h276l-24 97h-252z" />
    <glyph glyph-name="uni20AA.LP" unicode="&#xe52f;" horiz-adv-x="1640" 
d="M1415 0h-461q-190 0 -301 102t-110 287v674h227v-653q0 -209 205 -209h215v1188h225v-1389zM225 1389h461q190 -1 301 -103t111 -287v-673h-228v653q0 209 -204 209h-215v-1188h-226v1389z" />
    <glyph glyph-name="uni20B1.LP" unicode="&#xe531;" horiz-adv-x="1607" 
d="M625 1178v-512h102q116 0 157 11q42 11 64 34q59 59 60 211q0 230 -136 248q-45 7 -145 8h-102zM625 453v-453h-283v715h-270v159h270v97h-270v159h270v259h408q174 0 275 -25q185 -46 251 -234h270v-159h-241q2 -16 2 -49t-2 -48h241v-159h-270q-58 -192 -251 -238
q-101 -25 -275 -24h-125z" />
    <glyph glyph-name="numbersign.LP" unicode="&#xe533;" horiz-adv-x="1351" 
d="M545 528h178l84 340h-176zM1133 528l-48 -172h-217l-90 -356h-190l88 356h-176l-88 -356h-193l88 356h-219l49 172h217l84 340h-215l47 174h215l88 347h193l-88 -347h176l88 347h193l-91 -347h218l-50 -174h-213l-86 -340h220z" />
    <glyph glyph-name="zero.LP" unicode="&#xe534;" horiz-adv-x="1400" 
d="M135 694q0 176 25 301t85 225q120 200 455 201q336 0 456 -200q60 -99 85 -225t25 -302t-25 -301q-57 -286 -259 -376q-114 -50 -282 -50q-336 0 -455 201q-60 100 -85 225t-25 301zM424 694q0 -86 6 -199t30 -163q23 -51 53 -89q58 -73 192 -73t204 99q50 72 64 257
q4 66 4 216q0 279 -69 378t-203 99q-135 0 -193 -75q-59 -75 -71 -163q-11 -89 -14 -145t-3 -142z" />
    <glyph glyph-name="one.LP" unicode="&#xe536;" horiz-adv-x="837" 
d="M614 0h-270v1159l-326 -2v166l596 76v-1399z" />
    <glyph glyph-name="two.LP" unicode="&#xe537;" horiz-adv-x="1155" 
d="M1036 217v-217h-932l-10 203q372 267 512 447q139 180 139 354q0 98 -60 154q-61 56 -217 56t-333 -38v198q173 47 397 47t361 -96t137 -305t-139 -399t-434 -406v-4q131 6 362 6h217z" />
    <glyph glyph-name="three.LP" unicode="&#xe538;" horiz-adv-x="1208" 
d="M523 -31q-218 0 -398 58v204q195 -47 373 -47q301 -6 301 209q-1 98 -59 157t-183 58h-246v205h240q229 0 229 205q0 96 -62 147q-120 99 -548 13v198q166 47 390 47t364 -94t141 -270q-1 -215 -191 -340v-4q205 -109 205 -329t-169 -318q-169 -99 -387 -99z" />
    <glyph glyph-name="four.LP" unicode="&#xe539;" horiz-adv-x="1234" 
d="M1030 938v-430h152v-207h-152v-301h-270v301h-682l-12 211l503 872h277l-484 -876l3 -4q123 4 288 4h111l39 430h227z" />
    <glyph glyph-name="five.LP" unicode="&#xe53a;" horiz-adv-x="1202" 
d="M180 1389h852v-207h-581v-336q41 2 123 2q206 0 364 -79q184 -92 184 -353q0 -213 -158 -331t-390 -118t-406 56v206q174 -43 358 -43q315 0 316 226q0 61 -23 105t-53 66q-73 52 -250 52q-176 0 -336 -12v766z" />
    <glyph glyph-name="six.LP" unicode="&#xe53b;" horiz-adv-x="1310" 
d="M696 682q-86 0 -167 -41t-117 -98q4 -156 72 -260q68 -105 195 -105t193 67t66 185q0 252 -242 252zM752 905q225 0 345 -131q120 -130 120 -338q-1 -208 -143 -338t-408 -131q-266 0 -407 176q-140 176 -140 516q0 762 672 762q193 0 325 -45v-200q-150 39 -315 38
q-212 0 -306 -109t-98 -319l4 -2q53 53 151 87t200 34z" />
    <glyph glyph-name="seven.LP" unicode="&#xe53c;" horiz-adv-x="1040" 
d="M45 1182v207h946l10 -185l-495 -1204h-295l344 825q45 109 156 355l-2 6l-297 -4h-367z" />
    <glyph glyph-name="eight.LP" unicode="&#xe53d;" horiz-adv-x="1343" 
d="M673 811q114 0 179 66q47 47 47 141t-49 147t-177 53t-177 -52q-50 -54 -50 -148t48 -141q65 -66 179 -66zM674 172q64 0 116 15t95 65t43 143q0 92 -49 142q-70 69 -206 69t-206 -69q-49 -49 -49 -141t43 -143q43 -49 97 -65t116 -16zM673 1421q224 0 367 -91t144 -273
q0 -215 -176 -336v-4q205 -109 204 -340q0 -261 -227 -355q-123 -53 -336 -54t-365 95q-152 97 -151 321q0 224 205 333v4q-176 121 -176 336q0 182 143 273q144 91 368 91z" />
    <glyph glyph-name="nine.LP" unicode="&#xe53e;" horiz-adv-x="1310" 
d="M614 707q86 0 167 41t118 98q-4 156 -72 260q-67 104 -195 104t-194 -66t-65 -186q-1 -251 241 -251zM559 483q-225 0 -345 131t-120 339t142 338t410 130q266 0 406 -176t140 -516q0 -762 -672 -762q-193 0 -325 45v201q141 -39 333 -39q377 0 385 428l-4 2
q-53 -53 -151 -87t-199 -34z" />
    <glyph glyph-name="zero.LT" unicode="&#xe53f;" horiz-adv-x="1351" 
d="M111 694q0 176 24 301q58 288 259 376q114 50 282 50q334 0 456 -200q60 -99 85 -225t25 -302t-26 -301q-56 -286 -259 -376q-113 -50 -281 -50q-336 0 -456 201q-60 100 -85 225q-24 125 -24 301zM399 694q0 -281 43 -379t123 -128q47 -17 117 -17t122 29t81 71
q67 96 67 424t-68 426q-68 99 -203 99t-195 -75q-59 -75 -69 -164q-18 -147 -18 -286z" />
    <glyph glyph-name="one.LT" unicode="&#xe541;" horiz-adv-x="1351" 
d="M268 0v211h332v948l-326 -2v166l596 76v-1188h308v-211h-910z" />
    <glyph glyph-name="two.LT" unicode="&#xe542;" horiz-adv-x="1351" 
d="M1147 217v-217h-932l-10 203q372 267 512 447q139 180 139 354q0 98 -60 154t-217 56t-333 -38v198q174 47 398 47t360 -96q137 -96 137 -305q1 -209 -139 -399t-435 -406v-4q131 6 363 6h217z" />
    <glyph glyph-name="three.LT" unicode="&#xe543;" horiz-adv-x="1351" 
d="M603 -33q-218 0 -398 58v204q195 -47 373 -47q301 -6 301 209q0 98 -59 157t-183 58h-246v205h240q229 0 229 205q0 96 -62 147t-208 51t-340 -38v198q166 47 390 47t364 -94t141 -270q-1 -215 -191 -340v-4q205 -109 205 -329t-169 -318q-169 -99 -387 -99z" />
    <glyph glyph-name="four.LT" unicode="&#xe544;" horiz-adv-x="1351" 
d="M1096 938v-430h151v-207h-151v-301h-271v301h-682l-12 211l504 872h276l-483 -876l2 -4q123 4 289 4h110l39 430h228z" />
    <glyph glyph-name="five.LT" unicode="&#xe545;" horiz-adv-x="1351" 
d="M250 1389h852v-207h-582v-336q41 2 124 2q204 0 364 -79q184 -92 184 -353q0 -213 -159 -331t-390 -118t-405 56v206q174 -43 358 -43q315 0 315 226q0 166 -154 205q-66 18 -207 18q-140 0 -300 -12v766z" />
    <glyph glyph-name="six.LT" unicode="&#xe546;" horiz-adv-x="1351" 
d="M725 682q-86 0 -167 -41t-118 -98q4 -156 72 -260q68 -105 196 -105t194 67t65 185q0 252 -242 252zM780 905q225 0 345 -131q120 -130 120 -338t-142 -338q-143 -130 -409 -131q-266 0 -406 176t-141 516q0 762 672 762q193 0 326 -45v-200q-150 38 -293 38
q-235 -1 -329 -108q-94 -108 -97 -320l4 -2q54 53 152 87t198 34z" />
    <glyph glyph-name="seven.LT" unicode="&#xe547;" horiz-adv-x="1351" 
d="M201 1182v207h946l10 -185l-495 -1204h-295l344 825q45 109 155 355l-2 6l-297 -4h-366z" />
    <glyph glyph-name="eight.LT" unicode="&#xe548;" horiz-adv-x="1351" 
d="M675 811q114 0 179 66q47 47 47 141t-49 147t-177 53t-177 -52q-49 -54 -49 -148t47 -141q65 -66 179 -66zM676 172q64 0 116 15t95 65t43 143q0 92 -49 142q-70 69 -206 69t-206 -69q-49 -49 -49 -141t43 -143q43 -49 97 -65t116 -16zM675 1421q224 0 367 -91t144 -273
q0 -215 -176 -336v-4q205 -109 204 -340q0 -261 -227 -355q-123 -53 -336 -54t-365 95q-152 97 -151 321q0 224 205 333v4q-176 121 -176 336q0 182 143 273q144 91 368 91z" />
    <glyph glyph-name="nine.LT" unicode="&#xe549;" horiz-adv-x="1351" 
d="M627 707q86 0 167 41t117 98q-4 156 -71 260q-68 104 -196 104t-194 -66t-65 -186q0 -251 242 -251zM571 483q-225 0 -345 131t-120 339t142 338t410 130q266 0 406 -176t140 -516q0 -762 -672 -762q-193 0 -325 45v201q141 -39 333 -39q378 0 386 428l-4 2
q-54 -53 -152 -87t-199 -34z" />
    <glyph glyph-name="zero.OT" unicode="&#xe555;" horiz-adv-x="1351" 
d="M429 333q45 -163 244 -163t246 164q25 92 25 237t-20 219t-50 107q-70 76 -200 76q-129 0 -200 -76q-52 -57 -65 -198q-6 -54 -6 -163t26 -203zM1235 571q0 -299 -123 -451t-444 -153q-321 0 -443 165q-61 83 -86 187t-24 250q0 301 121 454t437 153t439 -153t123 -452z
" />
    <glyph glyph-name="one.OT" unicode="&#xe557;" horiz-adv-x="1351" 
d="M268 0v211h332v709l-326 -2v165l596 76v-948h308v-211h-910z" />
    <glyph glyph-name="two.OT" unicode="&#xe558;" horiz-adv-x="1351" 
d="M831 217h314v-217h-928l-12 209q336 177 482 323t147 252q0 184 -250 185q-143 0 -340 -39v198q188 48 392 48t343 -94t139 -300q0 -162 -133 -298t-383 -267l2 -4q196 4 227 4z" />
    <glyph glyph-name="three.OT" unicode="&#xe559;" horiz-adv-x="1351" 
d="M608 565q230 0 230 205q0 96 -62 148t-208 51q-146 0 -341 -39v198q167 48 391 48t364 -94t140 -271q0 -215 -190 -340v-4q205 -109 205 -330t-178 -322q-163 -94 -380 -94t-397 58v205q195 -47 373 -47q301 -6 301 208q0 98 -58 157t-184 58h-245v205h239z" />
    <glyph glyph-name="four.OT" unicode="&#xe55a;" horiz-adv-x="1351" 
d="M1096 696v-430h151v-207h-151v-301h-271v301h-682l-12 211l504 873h276l-483 -877l2 -4q123 4 289 4h110l39 430h228z" />
    <glyph glyph-name="five.OT" unicode="&#xe55b;" horiz-adv-x="1351" 
d="M250 1143h852v-207h-582v-336q41 2 124 2q208 0 364 -79q184 -92 184 -353q0 -213 -159 -331t-390 -118t-405 56v207q174 -43 358 -43q315 0 315 225q0 164 -154 206q-63 17 -205 17t-302 -12v766z" />
    <glyph glyph-name="six.OT" unicode="&#xe55c;" horiz-adv-x="1351" 
d="M725 682q-86 0 -167 -41t-118 -98q4 -156 72 -260q68 -105 196 -105t194 67t65 185q0 252 -242 252zM780 905q225 0 345 -131q120 -130 120 -338t-142 -338q-143 -130 -409 -131q-266 0 -406 176t-141 516q0 762 672 762q193 0 326 -45v-200q-150 38 -293 38
q-235 -1 -329 -108q-94 -108 -97 -320l4 -2q54 53 152 87t198 34z" />
    <glyph glyph-name="seven.OT" unicode="&#xe55d;" horiz-adv-x="1351" 
d="M201 936v207h946l10 -185l-495 -1204h-295l344 826q45 109 155 354l-2 6l-297 -4h-366z" />
    <glyph glyph-name="eight.OT" unicode="&#xe55e;" horiz-adv-x="1351" 
d="M675 811q114 0 179 66q47 47 47 141t-49 147t-177 53t-177 -52q-49 -54 -49 -148t47 -141q65 -66 179 -66zM676 172q64 0 116 15t95 65t43 143q0 92 -49 142q-70 69 -206 69t-206 -69q-49 -49 -49 -141t43 -143q43 -49 97 -65t116 -16zM675 1421q224 0 367 -91t144 -273
q0 -215 -176 -336v-4q205 -109 204 -340q0 -261 -227 -355q-123 -53 -336 -54t-365 95q-152 97 -151 321q0 224 205 333v4q-176 121 -176 336q0 182 143 273q144 91 368 91z" />
    <glyph glyph-name="nine.OT" unicode="&#xe55f;" horiz-adv-x="1351" 
d="M627 461q86 0 167 41t117 98q-4 156 -71 260q-68 104 -196 104t-194 -66q-66 -67 -65 -185q0 -252 242 -252zM106 708q0 208 142 338t410 130q266 0 406 -176t140 -517q0 -762 -672 -762q-193 0 -325 46v200q141 -39 333 -39q378 0 386 428l-4 2q-54 -53 -152 -87
t-199 -33q-225 0 -345 131t-120 339z" />
    <glyph glyph-name="zero.inf" unicode="&#xe571;" horiz-adv-x="776" 
d="M279 23q0 -121 20 -181t89 -59q69 0 89 59q21 59 21 160q0 102 -5 146t-31 79t-73 35q-70 0 -90 -59t-20 -180zM707 24q0 -188 -69 -286t-250 -98t-250 97q-68 97 -68 287t68 285q69 97 250 97t250 -96t69 -286z" />
    <glyph glyph-name="one.inf" unicode="&#xe572;" horiz-adv-x="489" 
d="M373 -344h-197v577l-166 -2v125l363 45v-745z" />
    <glyph glyph-name="two.inf" unicode="&#xe573;" horiz-adv-x="645" 
d="M578 -201v-143h-533l-10 125q6 4 38 29q32 26 46 36q56 42 111 93q54 51 70 77q17 27 40 63t25 93q0 88 -119 88q-94 0 -189 -31v144q101 33 227 33t208 -54t82 -162q0 -110 -55 -193q-54 -83 -195 -198v-2q43 2 168 2h86z" />
    <glyph glyph-name="three.inf" unicode="&#xe574;" horiz-adv-x="679" 
d="M315 98q84 0 84 78q0 84 -103 84t-210 -31v144q102 33 229 33t207 -54t80 -156q0 -104 -90 -163v-2q100 -51 100 -164t-93 -171t-216 -57t-237 37v146q121 -33 219 -33q123 0 123 88q0 80 -80 80h-170v141h157z" />
    <glyph glyph-name="four.inf" unicode="&#xe575;" horiz-adv-x="673" 
d="M578 -193v-151h-193v151h-344l-10 138l262 444h190l-245 -436v-2l163 2l25 207h152v-207h77v-146h-77z" />
    <glyph glyph-name="five.inf" unicode="&#xe576;" horiz-adv-x="673" 
d="M298 -211q72 1 101 21t29 71q0 90 -152 90q-61 0 -184 -8v426h494v-143h-301v-129h47q301 0 301 -230q0 -119 -89 -183q-88 -64 -216 -64t-240 36v146q138 -33 210 -33z" />
    <glyph glyph-name="six.inf" unicode="&#xe577;" horiz-adv-x="729" 
d="M385 0q-74 0 -111 -47q-4 -170 111 -170q98 1 98 109t-98 108zM680 -104q0 -112 -79 -185q-79 -72 -226 -71q-313 0 -314 366q1 197 89 298t280 102q123 0 199 -33v-144q-80 29 -195 29q-164 0 -168 -141l2 -2q66 31 144 30q132 -1 200 -69t68 -180z" />
    <glyph glyph-name="seven.inf" unicode="&#xe578;" horiz-adv-x="587" 
d="M213 246h-190v143h534l10 -117l-260 -616h-215l156 358q49 113 104 232v2q-43 -2 -139 -2z" />
    <glyph glyph-name="eight.inf" unicode="&#xe579;" horiz-adv-x="753" 
d="M377 94q96 0 96 90t-96 90t-96 -90t96 -90zM377 -225q106 0 106 92q1 49 -23 73t-83 24t-83 -24q-24 -23 -24 -73q1 -92 107 -92zM377 406q127 0 209 -52t82 -156t-86 -165v-2q46 -19 74 -65t28 -103q0 -119 -87 -171t-220 -52t-220 52t-87 171q0 57 28 102q29 45 74 66
v2q-86 61 -86 165t82 156t209 52z" />
    <glyph glyph-name="nine.inf" unicode="&#xe57a;" horiz-adv-x="729" 
d="M344 45q74 0 111 47q4 170 -111 170q-98 0 -98 -108t98 -109zM49 150q0 112 79 184t226 72q313 0 314 -367q0 -197 -88 -298t-281 -101q-123 0 -199 32v144q80 -29 195 -29q164 0 168 141l-2 2q-66 -31 -144 -30q-131 0 -199 68q-68 70 -69 182z" />
    <glyph glyph-name="plus.inf" unicode="&#xe57b;" horiz-adv-x="759" 
d="M678 104v-141h-207v-217h-184v217h-205v141h205v218h184v-218h207z" />
    <glyph glyph-name="minus.inf" unicode="&#xe57c;" horiz-adv-x="759" 
d="M678 104v-141h-596v141h596z" />
    <glyph glyph-name="equal.inf" unicode="&#xe57d;" horiz-adv-x="774" 
d="M692 -12v-142h-610v142h610zM692 217v-141h-610v141h610z" />
    <glyph glyph-name="parenleft.inf" unicode="&#xe57e;" horiz-adv-x="434" 
d="M285 34q0 -214 98 -466h-164q-135 250 -135 460t133 449h168q-100 -229 -100 -443z" />
    <glyph glyph-name="parenright.inf" unicode="&#xe57f;" horiz-adv-x="438" 
d="M152 34q0 214 -101 443h168q133 -241 133 -447t-135 -462h-164q99 252 99 466z" />
    <glyph glyph-name="plus.cap" unicode="&#xe591;" horiz-adv-x="1409" 
d="M1313 817v-219h-482v-465h-253v465h-482v219h482v469h253v-469h482z" />
    <glyph glyph-name="minus.cap" unicode="&#xe592;" horiz-adv-x="1409" 
d="M1313 817v-219h-1217v219h1217z" />
    <glyph glyph-name="multiply.cap" unicode="&#xe593;" horiz-adv-x="1384" 
d="M1255 1100l-391 -389l391 -389l-172 -172l-389 391l-395 -396l-170 170l393 396l-393 395l170 170l395 -395l389 391z" />
    <glyph glyph-name="divide.cap" unicode="&#xe594;" horiz-adv-x="1347" 
d="M805 444v-231h-262v231h262zM1251 817v-219h-1155v219h1155zM805 1204v-231h-262v231h262z" />
    <glyph glyph-name="equal.cap" unicode="&#xe595;" horiz-adv-x="1476" 
d="M1380 588v-219h-1284v219h1284zM1380 1044v-219h-1284v219h1284z" />
    <glyph glyph-name="less.cap" unicode="&#xe596;" horiz-adv-x="1370" 
d="M373 711v-4q88 -31 483 -183l369 -147v-258l-1170 483v209l1170 483v-254l-369 -147q-395 -151 -483 -182z" />
    <glyph glyph-name="greater.cap" unicode="&#xe597;" horiz-adv-x="1370" 
d="M997 707v4q-88 31 -483 182l-369 147v254l1170 -483v-209l-1170 -483v258l369 147q395 152 483 183z" />
    <glyph glyph-name="a.hist" unicode="&#xe711;" horiz-adv-x="1267" 
d="M638 854q-146 0 -200 -79t-55 -251q0 -172 49 -253q50 -81 172 -81t200 78l38 43v480q-58 63 -204 63zM94 520q0 160 48 274t128 170q150 105 334 105q82 -1 154 -23t89 -33t56 -40h4l33 71h172v-1044h-188l-31 115h-2q-146 -137 -320 -140q-477 0 -477 545z" />
    <glyph glyph-name="aacute.hist" unicode="&#xe712;" horiz-adv-x="1267" 
d="M1016 1389l-328 -232h-223l229 232h322zM638 854q-146 0 -200 -79t-55 -251q0 -172 49 -253q50 -81 172 -81t200 78l38 43v480q-58 63 -204 63zM94 520q0 160 48 274t128 170q150 105 334 105q82 -1 154 -23t89 -33t56 -40h4l33 71h172v-1044h-188l-31 115h-2
q-146 -137 -320 -140q-477 0 -477 545z" />
    <glyph glyph-name="abreve.hist" unicode="&#xe713;" horiz-adv-x="1267" 
d="M643 1284q147 0 174 105h213q-41 -261 -387 -261t-387 261h213q27 -105 174 -105zM638 854q-146 0 -200 -79t-55 -251q0 -172 49 -253q50 -81 172 -81t200 78l38 43v480q-58 63 -204 63zM94 520q0 160 48 274t128 170q150 105 334 105q82 -1 154 -23t89 -33t56 -40h4
l33 71h172v-1044h-188l-31 115h-2q-146 -137 -320 -140q-477 0 -477 545z" />
    <glyph glyph-name="acaron.hist" unicode="&#xe714;" horiz-adv-x="1267" 
d="M741 1149h-241l-248 246h244l125 -117l124 117h246zM638 854q-146 0 -200 -79t-55 -251q0 -172 49 -253q50 -81 172 -81t200 78l38 43v480q-58 63 -204 63zM94 520q0 160 48 274t128 170q150 105 334 105q82 -1 154 -23t89 -33t56 -40h4l33 71h172v-1044h-188l-31 115h-2
q-146 -137 -320 -140q-477 0 -477 545z" />
    <glyph glyph-name="acaron.small" unicode="&#xe715;" horiz-adv-x="1140" 
d="M504 659l-72 -213h270l-71 216q-41 125 -62 219h-4q-14 -75 -61 -222zM690 1214h-241l-248 246h243l125 -117l125 117h246zM860 0l-90 250h-410l-90 -250h-272l426 1108h293l426 -1108h-283z" />
    <glyph glyph-name="acircumflex.hist" unicode="&#xe716;" horiz-adv-x="1267" 
d="M500 1395h241l250 -246h-246l-124 117l-125 -117h-244zM638 854q-146 0 -200 -79t-55 -251q0 -172 49 -253q50 -81 172 -81t200 78l38 43v480q-58 63 -204 63zM94 520q0 160 48 274t128 170q150 105 334 105q82 -1 154 -23t89 -33t56 -40h4l33 71h172v-1044h-188l-31 115
h-2q-146 -137 -320 -140q-477 0 -477 545z" />
    <glyph glyph-name="adieresis.hist" unicode="&#xe717;" horiz-adv-x="1267" 
d="M995 1384v-213h-258v213h258zM535 1384v-213h-259v213h259zM638 854q-146 0 -200 -79t-55 -251q0 -172 49 -253q50 -81 172 -81t200 78l38 43v480q-58 63 -204 63zM94 520q0 160 48 274t128 170q150 105 334 105q82 -1 154 -23t89 -33t56 -40h4l33 71h172v-1044h-188
l-31 115h-2q-146 -137 -320 -140q-477 0 -477 545z" />
    <glyph glyph-name="adieresismacron.hist" unicode="&#xe718;" horiz-adv-x="1267" 
d="M1008 1389v-222h-267v222h267zM547 1389v-222h-266v222h266zM1012 1708v-184h-738v184h738zM638 854q-146 0 -200 -79t-55 -251q0 -172 49 -253q50 -81 172 -81t200 78l38 43v480q-58 63 -204 63zM94 520q0 160 48 274t128 170q150 105 334 105q82 -1 154 -23t89 -33
t56 -40h4l33 71h172v-1044h-188l-31 115h-2q-146 -137 -320 -140q-477 0 -477 545z" />
    <glyph glyph-name="adieresismacron.small" unicode="&#xe719;" horiz-adv-x="1140" 
d="M930 1450v-213h-258v213h258zM469 1450v-213h-258v213h258zM504 659l-72 -213h270l-71 216q-41 125 -62 219h-4q-14 -75 -61 -222zM936 1780v-185h-737v185h737zM860 0l-90 250h-410l-90 -250h-272l426 1108h293l426 -1108h-283z" />
    <glyph glyph-name="adotabove.hist" unicode="&#xe720;" horiz-adv-x="1267" 
d="M772 1389v-213h-270v213h270zM638 854q-146 0 -200 -79t-55 -251q0 -172 49 -253q50 -81 172 -81t200 78l38 43v480q-58 63 -204 63zM94 520q0 160 48 274t128 170q150 105 334 105q82 -1 154 -23t89 -33t56 -40h4l33 71h172v-1044h-188l-31 115h-2q-146 -137 -320 -140
q-477 0 -477 545z" />
    <glyph glyph-name="adotabove.small" unicode="&#xe721;" horiz-adv-x="1140" 
d="M504 659l-72 -213h270l-71 216q-41 125 -62 219h-4q-14 -75 -61 -222zM705 1454v-213h-271v213h271zM860 0l-90 250h-410l-90 -250h-272l426 1108h293l426 -1108h-283z" />
    <glyph glyph-name="adoublegrave" unicode="&#xe722;" horiz-adv-x="1150" 
d="M307 1153l-323 236h292l226 -236h-195zM690 1153l-323 236h292l226 -236h-195zM592 473q-152 0 -203 -49q-33 -33 -33 -109q0 -77 44 -103t130 -26q147 0 218 103v178q-93 6 -156 6zM748 739q0 57 -10 81q-25 57 -210 58q-184 1 -362 -38v196q156 41 400 41t346 -75
q101 -75 102 -275v-727h-187l-34 106h-2q-51 -59 -135 -94t-181 -35q-209 -1 -301 91t-92 242t80 231q111 109 416 108q82 0 170 -6v96z" />
    </font>
</defs>
</svg>
