<svg xmlns:dc="http://purl.org/dc/elements/1.1/" xmlns:cc="http://creativecommons.org/ns#" xmlns:rdf="http://www.w3.org/1999/02/22-rdf-syntax-ns#" xmlns:svg="http://www.w3.org/2000/svg" xmlns="http://www.w3.org/2000/svg" xmlns:sodipodi="http://sodipodi.sourceforge.net/DTD/sodipodi-0.dtd" xmlns:inkscape="http://www.inkscape.org/namespaces/inkscape" version="1.1" x="0px" y="0px" viewBox="0 0 100 100" class="clock-svg"><g transform="translate(0,-952.36218)"><g transform="translate(9.003938,961.33068)"><path d="M 40.996062,0.03543307 C 34.334645,0.03543307 28.062992,1.6299212 22.5,4.4645668 19.807086,3.011811 18.035433,1.9488189 15.342519,1.4881889 13.322834,1.2755905 11.019685,1.7362204 9.1771652,3.543307 L 3.543307,9.2125982 C 1.0984252,11.65748 1.0984252,14.952756 1.9133858,17.326771 c 0.8858267,1.984252 1.7716535,3.68504 2.515748,5.137795 C 1.5944882,28.027558 0,34.334645 0,41.031495 c 0,22.641732 18.35433,40.996062 40.996062,40.996062 22.641732,0 40.996062,-18.35433 40.996062,-40.996062 0,-6.69685 -1.594488,-12.968503 -4.429133,-18.531495 1.169291,-2.267717 1.877952,-3.118111 2.551181,-5.208662 0.81496,-2.338582 0.779527,-5.633858 -1.629922,-8.0787398 L 72.814959,3.543307 C 70.972439,1.7362204 68.66929,1.2755905 66.614172,1.4881889 63.992125,1.8425196 61.370077,3.543307 59.527558,4.4645668 53.964566,1.6299212 47.657479,0.03543307 40.996062,0.03543307 z m 0,1.98425193 c 21.543307,0 39.01181,17.468504 39.01181,39.01181 0,21.543307 -17.468503,39.01181 -39.01181,39.01181 -21.543306,0 -39.0118101,-17.468503 -39.0118101,-39.01181 0,-21.543306 17.4685041,-39.01181 39.0118101,-39.01181 z m -0.992126,4.0039369 0,4.0039371 c 0,0.531496 0.46063,1.027559 0.992126,1.027559 0.531496,0 1.027559,-0.496063 0.992126,-1.027559 l 0,-4.0039371 c 0.03543,-0.531496 -0.46063,-1.027559 -0.992126,-1.027559 -0.992126,0 -0.992126,0.992126 -0.992126,1.027559 z m 0.850394,9.0000001 c -0.46063,0.07087 -0.850394,0.496063 -0.850394,0.956693 -0.283464,7.192913 -0.602362,14.350393 -0.885827,21.507873 -1.240157,0.673229 -2.125984,2.019685 -2.125984,3.543307 0,0.425197 0.106299,0.814961 0.212599,1.204725 l -9,10.133858 c -0.354331,0.389763 -0.354331,1.062992 0.03543,1.417322 0.354331,0.389764 1.062992,0.354331 1.417323,0 3.366141,-3.01181 6.732283,-6.023621 10.098425,-8.999999 0.389763,0.106299 0.81496,0.248031 1.240157,0.248031 2.196851,0 4.003937,-1.807086 4.003937,-4.003937 0,-1.559055 -0.885827,-2.870078 -2.161417,-3.543307 -0.283465,-7.15748 -0.566929,-14.31496 -0.850394,-21.507873 0,-0.566929 -0.566929,-1.027559 -1.133858,-0.956693 z m -25.370078,0.602362 c -0.283465,0.389764 -0.318898,1.027559 0.03543,1.38189 l 2.870078,2.799212 c 0.318898,0.425197 1.062993,0.46063 1.488189,0.07087 0.389764,-0.389763 0.354331,-1.133858 -0.106299,-1.488189 l -2.799212,-2.834645 c -0.779528,-0.425197 -0.814961,-0.318898 -1.488189,0.07087 z m 49.535432,-0.07087 -2.799213,2.834645 c -0.425197,0.354331 -0.46063,1.098426 -0.07087,1.488189 0.389764,0.389764 1.133858,0.354331 1.488189,-0.07087 l 2.834646,-2.799212 c 0.496063,-0.673229 0.531496,-1.027559 0.07087,-1.488189 -0.531496,-0.531496 -0.814961,-0.212599 -1.523622,0.03543 z M 5.7047243,40.039369 c -0.496063,0.07087 -0.9212598,0.602362 -0.8503937,1.133859 0.070866,0.531496 0.6377953,0.921259 1.1338583,0.850393 l 4.0039369,0 c 0.5314962,0 1.0275592,-0.46063 1.0275592,-0.992126 0,-0.531496 -0.496063,-1.027559 -1.0275592,-0.992126 -1.4527559,0 -2.9763779,0 -4.2874015,0 z m 66.0118097,0 c -0.531496,0.07087 -0.92126,0.602362 -0.850394,1.133859 0.07087,0.531496 0.602362,0.921259 1.133859,0.850393 l 4.003936,0 c 0.531497,0 1.027559,-0.46063 1.027559,-0.992126 0,-0.531496 -0.496062,-1.027559 -1.027559,-0.992126 -1.452755,0 -2.976377,0 -4.287401,0 z m -53.326771,22.216535 -2.870078,2.799213 c -0.354331,0.389764 -0.354331,1.062992 0.03543,1.417323 0.35433,0.389763 1.062992,0.35433 1.417323,0 l 2.799212,-2.834646 c 0.389764,-0.354331 0.283465,-0.992126 -0.03543,-1.38189 -0.708661,-0.496063 -0.708661,-0.283464 -1.346457,0 z m 43.866141,-0.07087 c -0.35433,0.389764 -0.425197,1.098425 -0.03543,1.452756 l 2.799213,2.834646 c 0.389763,0.35433 1.062992,0.389763 1.417323,0 0.389763,-0.354331 0.389763,-1.027559 0.03543,-1.417323 L 63.637794,62.2559 c -0.779528,-0.496063 -0.744095,-0.283464 -1.38189,-0.07087 z m -22.251968,9.850394 0,4.003937 c 0,0.531496 0.46063,0.992125 0.992126,0.992125 0.531496,0 1.027559,-0.460629 0.992126,-0.992125 l 0,-4.003937 c 0.03543,-0.531496 -0.46063,-1.027559 -0.992126,-1.027559 -0.992126,0 -0.992126,1.027559 -0.992126,1.027559 z" style="" fill-opacity="1" fill-rule="nonzero" stroke="none"/></g></g></svg>