<svg class="fat-location" xmlns:dc="http://purl.org/dc/elements/1.1/" xmlns:cc="http://creativecommons.org/ns#" xmlns:rdf="http://www.w3.org/1999/02/22-rdf-syntax-ns#" xmlns:svg="http://www.w3.org/2000/svg" xmlns="http://www.w3.org/2000/svg" xmlns:sodipodi="http://sodipodi.sourceforge.net/DTD/sodipodi-0.dtd" xmlns:inkscape="http://www.inkscape.org/namespaces/inkscape" version="1.1" x="0px" y="0px" viewBox="0 0 100 100"><g transform="translate(0,-952.36218)"><path style="color:#000000;enable-background:accumulate;" d="m 50.000001,960.36215 c -14.359422,0 -26.000002,12.0883 -26.000002,27 0,5.3743 3.49844,13.59745 5.78125,18.00005 l 20.218752,39 20.21875,-39 c 2.28277,-4.4026 5.78125,-12.62575 5.78125,-18.00005 0,-14.9117 -11.6406,-27 -26,-27 z m 0,14 c 6.62742,0 12,5.3726 12,12 0,6.6273 -5.37258,12 -12,12 -6.62742,0 -12.000002,-5.3727 -12.000002,-12 0,-6.6274 5.372583,-12 12.000002,-12 z" fill="#000000" stroke="none" marker="none" visibility="visible" display="inline" overflow="visible"/></g></svg>