<svg xmlns:dc="http://purl.org/dc/elements/1.1/" xmlns:cc="http://creativecommons.org/ns#" xmlns:rdf="http://www.w3.org/1999/02/22-rdf-syntax-ns#" xmlns:svg="http://www.w3.org/2000/svg" xmlns="http://www.w3.org/2000/svg" xmlns:sodipodi="http://sodipodi.sourceforge.net/DTD/sodipodi-0.dtd" xmlns:inkscape="http://www.inkscape.org/namespaces/inkscape" version="1.1" x="0px" y="0px" viewBox="0 0 100 100" class="location-svg"><g transform="translate(0,-952.36205)"><path style="text-indent:0;text-transform:none;direction:ltr;block-progression:tb;baseline-shift:baseline;color:#000000;enable-background:accumulate;" d="m 49.7948,959.39701 c -13.2805,0 -24.06,10.7896 -24.06,24.06 0,2.5235 1.2138,5.8344 3.0269,9.7366 1.8131,3.9022 4.2615,8.33659 6.8547,12.77319 5.1864,8.8729 10.9725,17.792 13.2959,22.1509 a 1.0001,1.0001 0 0 0 1.7654,0 c 2.318,-4.358 8.1017,-13.2771 13.2868,-22.1499 2.5926,-4.4366 5.0409,-8.87109 6.8538,-12.77329 1.8129,-3.9021 3.0265,-7.213 3.0265,-9.7365 0,-13.2705 -10.779,-24.06 -24.05,-24.06 z m 0,2 c 12.1891,0 22.05,9.8705 22.05,22.06 0,1.8216 -1.0738,5.091 -2.8406,8.8938 -1.7668,3.8028 -4.1903,8.19829 -6.7665,12.60699 -4.6094,7.8876 -9.6828,15.7766 -12.4438,20.6274 -2.7647,-4.8502 -7.8401,-12.7397 -12.4506,-20.6274 -2.5768,-4.4086 -5.0009,-8.80419 -6.7678,-12.60699 -1.767,-3.8028 -2.8407,-7.0722 -2.8407,-8.8938 0,-12.1895 9.8606,-22.06 22.06,-22.06 z" fill-opacity="1" fill-rule="evenodd" stroke="none" marker="none" visibility="visible" display="inline" overflow="visible"/><path style="text-indent:0;text-transform:none;direction:ltr;block-progression:tb;baseline-shift:baseline;color:#000000;enable-background:accumulate;" d="m 31.0223,1027.3195 a 1.0001,1.0001 0 0 0 -0.5321,0.181 c -2.5573,1.7422 -4.2254,3.9707 -4.2254,6.5073 0,1.7262 0.7908,3.3362 2.0791,4.7034 1.2883,1.3671 3.0794,2.534 5.2472,3.5066 4.3357,1.9449 10.2016,3.1093 16.6791,3.1093 6.4724,0 12.3359,-1.1644 16.6703,-3.1093 2.1672,-0.9726 3.9578,-2.1395 5.2459,-3.5066 1.2881,-1.3672 2.0788,-2.9772 2.0788,-4.7034 0,-2.4879 -1.6082,-4.6855 -4.0744,-6.3998 a 1.0001,1.0001 0 1 0 -1.1416,1.6422 c 2.1492,1.4939 3.216,3.138 3.216,4.7576 0,1.1244 -0.4957,2.2295 -1.5344,3.3318 -1.0387,1.1024 -2.6153,2.1588 -4.6091,3.0535 -3.9875,1.7894 -9.6215,2.934 -15.8515,2.934 -6.2353,0 -11.8719,-1.1446 -15.8607,-2.934 -1.9944,-0.8947 -3.5712,-1.9511 -4.61,-3.0536 -1.0388,-1.1022 -1.5347,-2.2073 -1.5347,-3.3317 0,-1.6526 1.1094,-3.3271 3.3513,-4.8545 a 1.0001,1.0001 0 0 0 -0.5938,-1.8338 z" fill-opacity="1" fill-rule="evenodd" stroke="none" marker="none" visibility="visible" display="inline" overflow="visible"/><path style="text-indent:0;text-transform:none;direction:ltr;block-progression:tb;baseline-shift:baseline;color:#000000;enable-background:accumulate;" d="m 42.2527,1028.6683 a 1.0001,1.0001 0 0 0 -0.5322,0.1819 c -1.1539,0.7893 -2.0182,1.8703 -2.0182,3.1857 0,0.894 0.416,1.7111 1.0254,2.3568 0.6093,0.6457 1.4174,1.163 2.37,1.5901 1.9052,0.854 4.4116,1.3443 7.1725,1.3443 2.7608,0 5.2652,-0.4904 7.1681,-1.3447 0.9514,-0.4271 1.758,-0.9448 2.3662,-1.5906 0.6083,-0.6458 1.0232,-1.4626 1.0232,-2.3559 0,-1.2896 -0.8337,-2.356 -1.9466,-3.1379 a 1.0001,1.0001 0 1 0 -1.1497,1.6365 c 0.8067,0.5669 1.0963,1.0947 1.0963,1.5014 0,0.2917 -0.1202,0.6036 -0.4791,0.9846 -0.3589,0.3811 -0.9517,0.7882 -1.7297,1.1376 -1.5561,0.6985 -3.8305,1.169 -6.3487,1.169 -2.5183,0 -4.7956,-0.4705 -6.3544,-1.1693 -0.7795,-0.3495 -1.3737,-0.7567 -1.7335,-1.1378 -0.3597,-0.3812 -0.48,-0.693 -0.48,-0.9841 0,-0.4217 0.3001,-0.9552 1.1475,-1.5351 a 1.0001,1.0001 0 0 0 -0.5971,-1.8325 z" fill-opacity="1" fill-rule="evenodd" stroke="none" marker="none" visibility="visible" display="inline" overflow="visible"/><path style="text-indent:0;text-transform:none;direction:ltr;block-progression:tb;baseline-shift:baseline;color:#000000;enable-background:accumulate;" d="m 49.7948,967.66701 c -8.3096,0 -15.07,6.7495 -15.07,15.06 0,8.3013 6.7595,15.06 15.07,15.06 8.3013,0 15.06,-6.7587 15.06,-15.06 0,-8.3105 -6.7596,-15.06 -15.06,-15.06 z m 0,2 c 7.2197,0 13.06,5.8306 13.06,13.06 0,7.2188 -5.8412,13.06 -13.06,13.06 -7.2294,0 -13.07,-5.8412 -13.07,-13.06 0,-7.2294 5.8397,-13.06 13.07,-13.06 z" fill-opacity="1" fill-rule="evenodd" stroke="none" marker="none" visibility="visible" display="inline" overflow="visible"/></g></svg>