<svg xmlns="http://www.w3.org/2000/svg" xmlns:xlink="http://www.w3.org/1999/xlink" version="1.1" x="0px" y="0px" viewBox="0 0 100 100" style="enable-background:new 0 0 100 100;" xml:space="preserve" class="restrict-svg"><style type="text/css">
</style><path class="st0" d="M49.4,3.2C23.2,3.2,1.9,24.4,1.9,50.7c0,26.2,21.3,47.5,47.5,47.5s47.5-21.3,47.5-47.5  C96.9,24.4,75.6,3.2,49.4,3.2z M7.8,50.7c0-22.9,18.6-41.6,41.6-41.6c10.4,0,19.9,3.8,27.2,10.2L18,77.9  C11.7,70.6,7.8,61.1,7.8,50.7z M49.4,92.2c-10.4,0-19.9-3.8-27.2-10.2l58.6-58.6C87.1,30.8,91,40.3,91,50.7  C91,73.6,72.3,92.2,49.4,92.2z"/></svg>