<svg xmlns="http://www.w3.org/2000/svg" data-name="Layer 1" viewBox="0 0 100 100" x="0px" y="0px" class="ticket-svg"><title>Artboard 6</title><path d="M15.33,52.22a4,4,0,0,1,4,4,1,1,0,0,0,1,1h7.16L77.77,72.31a1,1,0,0,0,.29,0,1,1,0,0,0,1-.71A4,4,0,0,1,84,69a1,1,0,0,0,.76-.08,1,1,0,0,0,.48-.59l4.36-14.53a1,1,0,0,0-.67-1.25,4,4,0,0,1-2.68-5,1,1,0,0,0-.67-1.25l-6.3-1.89a1,1,0,0,0-.28,0V36.06a1,1,0,0,0-1-1,4,4,0,0,1-4-4,1,1,0,0,0-1-1H20.33a1,1,0,0,0-1,1,4,4,0,0,1-4,4,1,1,0,0,0-1,1V51.22A1,1,0,0,0,15.33,52.22Zm68.8-4.28a6,6,0,0,0,3.3,6.12L83.59,66.84a6,6,0,0,0-6.12,3.3L63.4,65.91a1,1,0,0,0-1.62-.49l-27.33-8.2H64.09l0,0-.14.48a1,1,0,1,0,1.92.57l.14-.48a1,1,0,0,0,0-.62h4.28l-1.21,4a1,1,0,0,0,.67,1.25l8.56,2.57a1,1,0,0,0,.29,0,1,1,0,0,0,1-.71l3.16-10.54A1,1,0,0,0,82,52.61l-3.11-.93a1,1,0,0,0,.12-.45V46.41Zm-8.28,4.91,4.6,1.38-2.59,8.62-6.65-2,1.09-3.64H73a1,1,0,0,0,1-1A4,4,0,0,1,75.85,52.86ZM16.33,37a6,6,0,0,0,4.92-4.92H55.7a1,1,0,0,0,1.69,0H72.08A6,6,0,0,0,77,37V50.31a6,6,0,0,0-4.92,4.92H57.39a1,1,0,0,0-1.69,0H21.25a6,6,0,0,0-4.92-4.92Z"/><path d="M56.54,42.63a1,1,0,0,0,1-1v-1a1,1,0,0,0-2,0v1A1,1,0,0,0,56.54,42.63Z"/><path d="M56.54,37.59a1,1,0,0,0,1-1v-1a1,1,0,0,0-2,0v1A1,1,0,0,0,56.54,37.59Z"/><path d="M56.54,47.66a1,1,0,0,0,1-1v-1a1,1,0,0,0-2,0v1A1,1,0,0,0,56.54,47.66Z"/><path d="M56.54,52.69a1,1,0,0,0,1-1v-1a1,1,0,0,0-2,0v1A1,1,0,0,0,56.54,52.69Z"/><path d="M26.46,39.14H46.67a1,1,0,0,0,0-2H26.46a1,1,0,1,0,0,2Z"/><path d="M26.46,50.14H37.82a1,1,0,0,0,0-2H26.46a1,1,0,1,0,0,2Z"/><path d="M26.46,44.64H46.67a1,1,0,0,0,0-2H26.46a1,1,0,1,0,0,2Z"/><path d="M62.44,50.14h8.94a1,1,0,0,0,1-1v-11a1,1,0,0,0-1-1H62.44a1,1,0,0,0-1,1v11A1,1,0,0,0,62.44,50.14Zm1-11h6.94v9H63.44Z"/><path d="M64.08,60.68a1,1,0,0,0-1.25.67l-.27.9a1,1,0,1,0,1.92.57l.27-.9A1,1,0,0,0,64.08,60.68Z"/></svg>