<?xml version="1.0" encoding="utf-8"?>
<!-- Generator: Adobe Illustrator 16.0.0, SVG Export Plug-In . SVG Version: 6.00 Build 0)  -->
<!DOCTYPE svg PUBLIC "-//W3C//DTD SVG 1.1//EN" "http://www.w3.org/Graphics/SVG/1.1/DTD/svg11.dtd">
<svg version="1.1" id="Layer_1" xmlns="http://www.w3.org/2000/svg" xmlns:xlink="http://www.w3.org/1999/xlink" x="0px" y="0px"
	 width="1280px" height="800px" viewBox="0 0 1280 800" enable-background="new 0 0 1280 800" xml:space="preserve">
	<!-- orangeBox -->
<path fill="#FF6633" stroke="#FFFFFF" stroke-miterlimit="10" d="M1031.253,456.586c0,17.498-14.187,31.683-31.683,31.683H672.424
	c-17.498,0-31.685-14.185-31.685-31.683V292.89c0-17.501,14.187-31.684,31.685-31.684H999.57c17.496,0,31.683,14.183,31.683,31.684
	V456.586z"/>
<g>
	<!-- h2 -->
	<path fill="#FFFFFF" stroke="#FFFFFF" stroke-miterlimit="10" d="M742.826,328.694v79.047c0,5.84-4.889,10.729-10.729,10.729
		c-5.976,0-10.729-4.89-10.729-10.729v-30.017h-29.338v30.017c0,5.84-4.752,10.729-10.729,10.729
		c-5.839,0-10.728-4.89-10.728-10.729v-79.047c0-5.84,4.889-10.73,10.728-10.73c5.978,0,10.729,4.89,10.729,10.73v30.015h29.338
		v-30.015c0-5.84,4.754-10.73,10.729-10.73C737.938,317.964,742.826,322.854,742.826,328.694z"/>
	<!--A2-->
	<path fill="#FFFFFF" d="M821.872,360.747v47.538c0,5.568-4.619,10.187-10.188,10.187c-2.987,0-5.704-1.359-7.606-3.261
		c-5.159,2.717-10.729,4.346-16.976,4.346c-19.151,0-34.771-15.618-34.771-34.77c0-19.149,15.619-34.77,34.771-34.77
		c5.975,0,11.543,1.631,16.705,4.347c1.901-2.444,4.617-3.802,7.877-3.802C817.253,350.561,821.872,355.178,821.872,360.747z
		 M800.276,384.786c0-7.333-5.84-13.174-13.174-13.174c-7.335,0-13.175,5.841-13.175,13.174c0,7.335,5.84,13.175,13.175,13.175
		C794.437,397.961,800.276,392.121,800.276,384.786z"/>
	<!--P-->
	<path fill="#FFFFFF" d="M867.504,419.014c-4.618,0-9.1-0.951-13.175-2.58v12.63c0,5.84-4.754,10.73-10.729,10.73h-0.951
		c-5.433-0.271-9.914-4.754-9.914-10.322v-68.725c0-5.568,4.617-10.186,10.186-10.186c3.124,0,5.705,1.222,7.605,3.259
		c5.026-2.715,10.866-4.346,16.979-4.346c19.15,0,34.77,15.618,34.77,34.77S886.654,419.014,867.504,419.014z M867.504,371.07
		c-7.335,0-13.175,5.839-13.175,13.174c0,7.334,5.84,13.174,13.175,13.174c7.334,0,13.174-5.84,13.174-13.174
		C880.678,376.909,874.838,371.07,867.504,371.07z"/>
	<path fill="#FFFFFF" d="M944.512,419.014c-4.618,0-9.1-0.951-13.175-2.58v12.63c0,5.84-4.754,10.73-10.729,10.73h-0.951
		c-5.433-0.271-9.914-4.754-9.914-10.322v-68.725c0-5.568,4.617-10.186,10.186-10.186c3.124,0,5.705,1.222,7.605,3.259
		c5.026-2.715,10.866-4.346,16.979-4.346c19.15,0,34.77,15.618,34.77,34.77S963.662,419.014,944.512,419.014z M944.512,371.07
		c-7.335,0-13.175,5.839-13.175,13.174c0,7.334,5.84,13.174,13.175,13.174c7.334,0,13.174-5.84,13.174-13.174
		C957.686,376.909,951.846,371.07,944.512,371.07z"/>
	<path fill="#FFFFFF" d="M1004.133,408.69c0,5.435-4.347,9.78-9.779,9.78c-5.297,0-9.644-4.346-9.644-9.78
		c0-5.295,4.347-9.642,9.644-9.642C999.786,399.049,1004.133,403.396,1004.133,408.69z"/>
</g>
<path fill="#FFFFFF" d="M639.262,456.586c0,17.498-14.188,31.683-31.683,31.683H280.433c-17.498,0-31.686-14.185-31.686-31.683
	V292.89c0-17.501,14.188-31.684,31.686-31.684h327.146c17.495,0,31.683,14.183,31.683,31.684V456.586z"/>
<g>
	<path fill="#FF6633" stroke="#FFFFFF" stroke-miterlimit="10" d="M369.717,365.229l-19.015,46.588
		c-2.58,6.246-7.606,6.654-10.05,6.654c-3.668,0-8.014-1.901-9.643-5.841l-10.322-25.535l-10.458,25.535
		c-1.495,3.668-5.026,5.841-8.692,5.841c-2.444,0-8.421-0.408-11.001-6.654l-19.016-46.588c-2.309-5.567,0.409-11.679,5.841-13.988
		c5.568-2.309,11.815,0.271,13.988,5.839l10.594,25.941l9.915-24.177c1.495-3.667,5.026-5.839,8.83-5.839
		c3.667,0,7.198,2.173,8.692,5.839l9.915,24.177l10.593-25.941c2.173-5.568,8.557-8.148,13.99-5.839
		C369.309,353.549,372.026,359.662,369.717,365.229z"/>
	<path fill="#FF6633" stroke="#FFFFFF" stroke-miterlimit="10" d="M438.302,379.897v27.708c0,5.976-4.889,10.865-10.866,10.865
		c-5.975,0-10.865-4.89-10.865-10.865v-27.708c0-4.617-3.802-8.421-8.42-8.421c-4.481,0-8.285,3.804-8.285,8.421v27.708
		c0,5.976-4.889,10.865-10.866,10.865c-6.111,0-11.001-4.89-11.001-10.865v-68.59c0-6.111,4.89-11.001,11.001-11.001
		c5.977,0,10.866,4.89,10.866,11.001v11.816c2.717-0.68,5.433-1.086,8.285-1.086C424.856,349.746,438.302,363.191,438.302,379.897z"
		/>
	<path fill="#FF6633" stroke="#FFFFFF" stroke-miterlimit="10" d="M513.954,360.747v47.538c0,5.568-4.617,10.187-10.188,10.187
		c-2.987,0-5.704-1.359-7.606-3.261c-5.16,2.717-10.728,4.346-16.976,4.346c-19.151,0-34.77-15.618-34.77-34.77
		c0-19.149,15.619-34.77,34.77-34.77c5.975,0,11.543,1.631,16.705,4.347c1.902-2.444,4.618-3.802,7.877-3.802
		C509.336,350.561,513.954,355.178,513.954,360.747z M492.358,384.786c0-7.333-5.841-13.174-13.174-13.174
		c-7.334,0-13.174,5.841-13.174,13.174c0,7.335,5.84,13.175,13.174,13.175C486.517,397.961,492.358,392.121,492.358,384.786z"/>
	<path fill="#FF6633" stroke="#FFFFFF" stroke-miterlimit="10" d="M565.154,407.605c0,5.976-4.889,10.865-10.865,10.865h-2.038
		c-16.027,0-27.435-12.632-27.435-28.386v-50.254c0-5.975,4.889-10.865,10.866-10.865c5.977,0,10.865,4.89,10.865,10.865v10.73
		h9.915c5.297,0,9.508,4.21,9.508,9.508c0,5.16-4.21,9.37-9.508,9.37h-9.915v20.646c0,3.394,1.766,6.655,5.704,6.655h2.038
		C560.265,396.74,565.154,401.629,565.154,407.605z"/>
	<path fill="#FF6633" stroke="#FFFFFF" stroke-miterlimit="10" d="M598.7,368.49c-2.58-0.815-6.384-1.766-7.062,1.221
		c-0.68,2.717,4.211,4.075,6.247,4.483c4.075,0.815,8.014,3.124,10.866,6.247c6.248,6.52,7.607,16.842,4.075,24.992
		c-3.667,8.42-12.087,13.445-21.051,13.988c-5.026,0.271-15.483-1.086-19.693-6.655c-5.297-7.062-0.136-16.979,8.419-16.569
		c3.397,0.136,7.063,2.717,9.917,2.853c4.889,0.407,5.975-5.57,1.357-6.79c-8.557-2.582-14.805-5.978-18.742-13.856
		c-2.853-5.975-2.173-13.445,1.9-18.878c6.52-8.828,18.88-11.816,29.066-7.877c5.433,2.173,9.914,7.741,6.519,13.717
		C608.072,369.439,603.861,370.254,598.7,368.49z"/>
</g>
</svg>
